# Wavefront OBJ exported by IMDeditor

mtllib a_tuttet.mtl

v    -0.138961 0.199443 0.115715
v    -0.021888 0.199443 0.164208
v    -0.021888 0.252711 -0.001357
v    -0.187454 0.199443 -0.001357
v    -0.138961 0.199443 0.115715
v    -0.021888 0.252711 -0.001357
v    -0.138961 0.199443 -0.118430
v    -0.187454 0.199443 -0.001357
v    -0.021888 0.252711 -0.001357
v    -0.021888 0.199443 -0.166923
v    -0.138961 0.199443 -0.118430
v    -0.021888 0.252711 -0.001357
v    -0.021888 0.199443 0.164208
v    -0.138961 0.199443 0.115715
v    -0.187454 0.092356 0.164208
v    -0.187454 0.092356 0.164208
v    -0.021888 0.092356 0.232788
v    -0.021888 0.199443 0.164208
v    -0.138961 0.199443 0.115715
v    -0.187454 0.199443 -0.001357
v    -0.256033 0.092356 -0.001357
v    -0.256033 0.092356 -0.001357
v    -0.187454 0.092356 0.164208
v    -0.138961 0.199443 0.115715
v    -0.187454 0.199443 -0.001357
v    -0.138961 0.199443 -0.118430
v    -0.187454 0.092356 -0.166923
v    -0.187454 0.092356 -0.166923
v    -0.256033 0.092356 -0.001357
v    -0.187454 0.199443 -0.001357
v    -0.138961 0.199443 -0.118430
v    -0.021888 0.199443 -0.166923
v    -0.021888 0.092356 -0.235503
v    -0.021888 0.092356 -0.235503
v    -0.187454 0.092356 -0.166923
v    -0.138961 0.199443 -0.118430
v     0.139022 0.199443 0.115715
v     0.187515 0.199443 -0.001357
v     0.021949 0.252711 -0.001357
v     0.021949 0.199443 0.164208
v     0.139022 0.199443 0.115715
v     0.021949 0.252711 -0.001357
v     0.139022 0.199443 -0.118430
v     0.021949 0.199443 -0.166923
v     0.021949 0.252711 -0.001357
v     0.187515 0.199443 -0.001357
v     0.139022 0.199443 -0.118430
v     0.021949 0.252711 -0.001357
v     0.187515 0.199443 -0.001357
v     0.139022 0.199443 0.115715
v     0.187680 0.092356 0.164208
v     0.187680 0.092356 0.164208
v     0.256260 0.092356 -0.001357
v     0.187515 0.199443 -0.001357
v     0.139022 0.199443 0.115715
v     0.021949 0.199443 0.164208
v     0.022114 0.092356 0.232788
v     0.022114 0.092356 0.232788
v     0.187680 0.092356 0.164208
v     0.139022 0.199443 0.115715
v     0.021949 0.199443 -0.166923
v     0.139022 0.199443 -0.118430
v     0.187680 0.092356 -0.166923
v     0.187680 0.092356 -0.166923
v     0.022114 0.092356 -0.235503
v     0.021949 0.199443 -0.166923
v     0.139022 0.199443 -0.118430
v     0.187515 0.199443 -0.001357
v     0.256260 0.092356 -0.001357
v     0.256260 0.092356 -0.001357
v     0.187680 0.092356 -0.166923
v     0.139022 0.199443 -0.118430
v    -0.021888 -0.001094 0.232788
v    -0.021888 0.092356 0.232788
v    -0.187454 0.092356 0.164208
v    -0.187454 0.092356 0.164208
v    -0.187454 -0.001094 0.164208
v    -0.021888 -0.001094 0.232788
v    -0.187454 -0.001094 0.164208
v    -0.187454 0.092356 0.164208
v    -0.256033 0.092356 -0.001357
v    -0.256033 0.092356 -0.001357
v    -0.256033 -0.001094 -0.001357
v    -0.187454 -0.001094 0.164208
v    -0.256033 -0.001094 -0.001357
v    -0.256033 0.092356 -0.001357
v    -0.187454 0.092356 -0.166923
v    -0.187454 0.092356 -0.166923
v    -0.187454 -0.001094 -0.166923
v    -0.256033 -0.001094 -0.001357
v    -0.187454 -0.001094 -0.166923
v    -0.187454 0.092356 -0.166923
v    -0.021888 0.092356 -0.235503
v    -0.021888 0.092356 -0.235503
v    -0.021888 -0.001094 -0.235503
v    -0.187454 -0.001094 -0.166923
v     0.256425 -0.001094 -0.001357
v     0.256260 0.092356 -0.001357
v     0.187680 0.092356 0.164208
v     0.187680 0.092356 0.164208
v     0.187846 -0.001094 0.164208
v     0.256425 -0.001094 -0.001357
v     0.187846 -0.001094 0.164208
v     0.187680 0.092356 0.164208
v     0.022114 0.092356 0.232788
v     0.022114 0.092356 0.232788
v     0.022280 -0.001094 0.232788
v     0.187846 -0.001094 0.164208
v     0.022280 -0.001094 -0.235503
v     0.022114 0.092356 -0.235503
v     0.187680 0.092356 -0.166923
v     0.187680 0.092356 -0.166923
v     0.187846 -0.001094 -0.166923
v     0.022280 -0.001094 -0.235503
v     0.187846 -0.001094 -0.166923
v     0.187680 0.092356 -0.166923
v     0.256260 0.092356 -0.001357
v     0.256260 0.092356 -0.001357
v     0.256425 -0.001094 -0.001357
v     0.187846 -0.001094 -0.166923
v    -0.021888 0.092356 -0.235503
v     0.022114 0.092356 -0.235503
v     0.022280 -0.001094 -0.235503
v     0.022280 -0.001094 -0.235503
v    -0.021888 -0.001094 -0.235503
v    -0.021888 0.092356 -0.235503
v    -0.021888 -0.001094 0.232788
v     0.022280 -0.001094 0.232788
v     0.022114 0.092356 0.232788
v     0.022114 0.092356 0.232788
v    -0.021888 0.092356 0.232788
v    -0.021888 -0.001094 0.232788
# 132 vertices

v     0.021949 0.199443 -0.166923
v     0.022114 0.092356 -0.235503
v     0.022114 0.092356 0.232788
v     0.021949 0.252711 -0.001357
v     0.021949 0.199443 -0.166923
v     0.022114 0.092356 0.232788
v     0.021949 0.199443 0.164208
v     0.021949 0.252711 -0.001357
v     0.022114 0.092356 0.232788
v    -0.021888 0.252711 -0.001357
v    -0.021888 0.199443 0.164208
v    -0.021888 0.092356 0.232788
v    -0.021888 0.199443 -0.166923
v    -0.021888 0.252711 -0.001357
v    -0.021888 0.092356 0.232788
v    -0.021888 0.092356 -0.235503
v    -0.021888 0.199443 -0.166923
v    -0.021888 0.092356 0.232788
v    -0.021888 0.092356 0.232788
v     0.022114 0.092356 0.232788
v     0.022114 0.092356 -0.235503
v     0.022114 0.092356 -0.235503
v    -0.021888 0.092356 -0.235503
v    -0.021888 0.092356 0.232788
# 24 vertices

vt 0.684484 0.638680
vt 0.868462 0.697237
vt 0.870793 0.483285
vt 0.610229 0.483779
vt 0.684484 0.638680
vt 0.870793 0.483285
vt 0.683950 0.316925
vt 0.610229 0.483779
vt 0.870793 0.483285
vt 0.870708 0.196870
vt 0.683950 0.316925
vt 0.870793 0.483285
vt 0.868462 0.697237
vt 0.684484 0.638680
vt 0.598236 0.726716
vt 0.598236 0.726716
vt 0.868911 0.836441
vt 0.868462 0.697237
vt 0.684484 0.638680
vt 0.610229 0.483779
vt 0.478317 0.484398
vt 0.478317 0.484398
vt 0.598236 0.726716
vt 0.684484 0.638680
vt 0.610229 0.483779
vt 0.683950 0.316925
vt 0.585990 0.214271
vt 0.585990 0.214271
vt 0.478317 0.484398
vt 0.610229 0.483779
vt 0.683950 0.316925
vt 0.870708 0.196870
vt 0.872674 0.084236
vt 0.872674 0.084236
vt 0.585990 0.214271
vt 0.683950 0.316925
vt 0.192827 0.161284
vt 0.330399 0.215200
vt 0.332587 0.000691
vt 0.157147 0.003409
vt 0.192827 0.161284
vt 0.332587 0.000691
vt 0.464191 0.146238
vt 0.509655 0.001211
vt 0.332587 0.000691
vt 0.330399 0.215200
vt 0.464191 0.146238
vt 0.332587 0.000691
vt 0.330399 0.215200
vt 0.192827 0.161284
vt 0.091757 0.256440
vt 0.091757 0.256440
vt 0.326447 0.376753
vt 0.330399 0.215200
vt 0.192827 0.161284
vt 0.157147 0.003409
vt -0.005181 0.004357
vt -0.005181 0.004357
vt 0.091757 0.256440
vt 0.192827 0.161284
vt 0.509655 0.001211
vt 0.464191 0.146238
vt 0.565039 0.259073
vt 0.565039 0.259073
vt 0.677644 0.000835
vt 0.509655 0.001211
vt 0.464191 0.146238
vt 0.330399 0.215200
vt 0.326447 0.376753
vt 0.326447 0.376753
vt 0.565039 0.259073
vt 0.464191 0.146238
vt 0.430815 0.842057
vt 0.430815 0.995891
vt 0.710145 0.995891
vt 0.710145 0.995891
vt 0.710145 0.842057
vt 0.430815 0.842057
vt 0.710145 0.842057
vt 0.710145 0.995891
vt 0.989475 0.995891
vt 0.989475 0.995891
vt 0.989475 0.842057
vt 0.710145 0.842057
vt 0.266376 0.409702
vt 0.428301 0.409702
vt 0.428301 0.618750
vt 0.428301 0.618750
vt 0.266376 0.618750
vt 0.266376 0.409702
vt 0.266376 0.618750
vt 0.428301 0.618750
vt 0.428301 0.881935
vt 0.428301 0.881935
vt 0.266376 0.881935
vt 0.266376 0.618750
vt 0.266157 0.974702
vt 0.429256 0.974515
vt 0.428778 0.790747
vt 0.428778 0.790747
vt 0.265679 0.790934
vt 0.266157 0.974702
vt 0.265679 0.790934
vt 0.428778 0.790747
vt 0.428873 0.530403
vt 0.428873 0.530403
vt 0.265774 0.530590
vt 0.265679 0.790934
vt 0.420585 0.840309
vt 0.421792 0.995186
vt 0.714372 0.997064
vt 0.714372 0.997064
vt 0.713165 0.839772
vt 0.420585 0.840309
vt 0.713165 0.839772
vt 0.714372 0.997064
vt 0.994874 0.995186
vt 0.994874 0.995186
vt 0.993667 0.840309
vt 0.713165 0.839772
vt 0.428301 0.881935
vt 0.428301 0.968604
vt 0.266376 0.968817
vt 0.266376 0.968817
vt 0.266376 0.881935
vt 0.428301 0.881935
vt 0.265868 0.405721
vt 0.265774 0.530590
vt 0.428873 0.530403
vt 0.428873 0.530403
vt 0.428967 0.405721
vt 0.265868 0.405721
# 132 texture coordinates

vt 0.179968 0.365714
vt -0.001607 0.232456
vt -0.001898 1.007187
vt 0.255839 0.622192
vt 0.179968 0.365714
vt -0.001898 1.007187
vt 0.175449 0.894402
vt 0.255839 0.622192
vt -0.001898 1.007187
vt 0.259572 0.635199
vt 0.184958 0.366368
vt 0.001198 0.235162
vt 0.184958 0.892817
vt 0.259572 0.635199
vt 0.001198 0.235162
vt 0.000449 1.006919
vt 0.184958 0.892817
vt 0.001198 0.235162
vt 0.997047 0.002321
vt 0.876714 0.002130
vt 0.875576 0.841017
vt 0.875576 0.841017
vt 0.995910 0.839779
vt 0.997047 0.002321
# 24 texture coordinates

vn -0.465021 0.753333 0.465021
vn -0.262826 0.726849 0.634518
vn -0.221833 0.975085 0.000000
vn -0.657639 0.753334 -0.000000
vn -0.465021 0.753333 0.465021
vn -0.221833 0.975085 0.000000
vn -0.465021 0.753334 -0.465021
vn -0.657639 0.753334 -0.000000
vn -0.221833 0.975085 0.000000
vn -0.262826 0.726849 -0.634518
vn -0.465021 0.753334 -0.465021
vn -0.221833 0.975085 0.000000
vn -0.262826 0.726849 0.634518
vn -0.465021 0.753333 0.465021
vn -0.682008 0.264063 0.682008
vn -0.682008 0.264063 0.682008
vn -0.370999 0.245218 0.895672
vn -0.262826 0.726849 0.634518
vn -0.465021 0.753333 0.465021
vn -0.657639 0.753334 -0.000000
vn -0.964505 0.264063 -0.000000
vn -0.964505 0.264063 -0.000000
vn -0.682008 0.264063 0.682008
vn -0.465021 0.753333 0.465021
vn -0.657639 0.753334 -0.000000
vn -0.465021 0.753334 -0.465021
vn -0.682008 0.264063 -0.682008
vn -0.682008 0.264063 -0.682008
vn -0.964505 0.264063 -0.000000
vn -0.657639 0.753334 -0.000000
vn -0.465021 0.753334 -0.465021
vn -0.262826 0.726849 -0.634518
vn -0.370999 0.245218 -0.895672
vn -0.370999 0.245218 -0.895672
vn -0.682008 0.264063 -0.682008
vn -0.465021 0.753334 -0.465021
vn 0.464690 0.753614 0.464896
vn 0.657183 0.753731 0.000000
vn 0.221833 0.975085 0.000000
vn 0.262718 0.727115 0.634258
vn 0.464690 0.753614 0.464896
vn 0.221833 0.975085 0.000000
vn 0.464690 0.753614 -0.464896
vn 0.262718 0.727115 -0.634257
vn 0.221833 0.975085 0.000000
vn 0.657183 0.753731 0.000000
vn 0.464690 0.753614 -0.464896
vn 0.221833 0.975085 0.000000
vn 0.657183 0.753731 0.000000
vn 0.464690 0.753614 0.464896
vn 0.681764 0.264994 0.681892
vn 0.681764 0.264994 0.681892
vn 0.964144 0.265379 0.000000
vn 0.657183 0.753731 0.000000
vn 0.464690 0.753614 0.464896
vn 0.262718 0.727115 0.634258
vn 0.370921 0.246024 0.895483
vn 0.370921 0.246024 0.895483
vn 0.681764 0.264994 0.681892
vn 0.464690 0.753614 0.464896
vn 0.262718 0.727115 -0.634257
vn 0.464690 0.753614 -0.464896
vn 0.681764 0.264994 -0.681892
vn 0.681764 0.264994 -0.681892
vn 0.370921 0.246024 -0.895483
vn 0.262718 0.727115 -0.634257
vn 0.464690 0.753614 -0.464896
vn 0.657183 0.753731 0.000000
vn 0.964144 0.265379 0.000000
vn 0.964144 0.265379 0.000000
vn 0.681764 0.264994 -0.681892
vn 0.464690 0.753614 -0.464896
vn -0.382684 -0.000000 0.923880
vn -0.370999 0.245218 0.895672
vn -0.682008 0.264063 0.682008
vn -0.682008 0.264063 0.682008
vn -0.707107 -0.000000 0.707107
vn -0.382684 -0.000000 0.923880
vn -0.707107 -0.000000 0.707107
vn -0.682008 0.264063 0.682008
vn -0.964505 0.264063 -0.000000
vn -0.964505 0.264063 -0.000000
vn -1.000000 0.000000 -0.000000
vn -0.707107 -0.000000 0.707107
vn -1.000000 0.000000 -0.000000
vn -0.964505 0.264063 -0.000000
vn -0.682008 0.264063 -0.682008
vn -0.682008 0.264063 -0.682008
vn -0.707107 0.000000 -0.707107
vn -1.000000 0.000000 -0.000000
vn -0.707107 0.000000 -0.707107
vn -0.682008 0.264063 -0.682008
vn -0.370999 0.245218 -0.895672
vn -0.370999 0.245218 -0.895672
vn -0.382683 0.000000 -0.923880
vn -0.707107 0.000000 -0.707107
vn 0.999998 0.001770 0.000000
vn 0.964144 0.265379 0.000000
vn 0.681764 0.264994 0.681892
vn 0.681764 0.264994 0.681892
vn 0.707322 0.001252 0.706890
vn 0.999998 0.001770 0.000000
vn 0.707322 0.001252 0.706890
vn 0.681764 0.264994 0.681892
vn 0.370921 0.246024 0.895483
vn 0.370921 0.246024 0.895483
vn 0.382683 0.000678 0.923879
vn 0.707322 0.001252 0.706890
vn 0.382684 0.000678 -0.923879
vn 0.370921 0.246024 -0.895483
vn 0.681764 0.264994 -0.681892
vn 0.681764 0.264994 -0.681892
vn 0.707322 0.001252 -0.706890
vn 0.382684 0.000678 -0.923879
vn 0.707322 0.001252 -0.706890
vn 0.681764 0.264994 -0.681892
vn 0.964144 0.265379 0.000000
vn 0.964144 0.265379 0.000000
vn 0.999998 0.001770 0.000000
vn 0.707322 0.001252 -0.706890
vn -0.000000 0.000000 -1.000000
vn -0.000000 0.000000 -1.000000
vn -0.000000 0.000000 -1.000000
vn -0.000000 0.000000 -1.000000
vn -0.000000 0.000000 -1.000000
vn -0.000000 0.000000 -1.000000
vn 0.000000 -0.000000 1.000000
vn 0.000000 -0.000000 1.000000
vn 0.000000 -0.000000 1.000000
vn 0.000000 -0.000000 1.000000
vn 0.000000 -0.000000 1.000000
vn 0.000000 -0.000000 1.000000
# 132 normals

vn -0.999999 -0.001545 -0.000000
vn -0.999999 -0.001545 -0.000000
vn -0.999999 -0.001545 -0.000000
vn -1.000000 -0.000702 0.000226
vn -1.000000 -0.000702 0.000226
vn -1.000000 -0.000702 0.000226
vn -0.999998 -0.001946 -0.000626
vn -0.999998 -0.001946 -0.000626
vn -0.999998 -0.001946 -0.000626
vn 1.000000 -0.000000 0.000000
vn 1.000000 -0.000000 0.000000
vn 1.000000 -0.000000 0.000000
vn 1.000000 -0.000000 0.000000
vn 1.000000 -0.000000 0.000000
vn 1.000000 -0.000000 0.000000
vn 1.000000 -0.000000 0.000000
vn 1.000000 -0.000000 0.000000
vn 1.000000 -0.000000 0.000000
vn -0.000000 1.000000 0.000000
vn -0.000000 1.000000 0.000000
vn -0.000000 1.000000 0.000000
vn -0.000000 1.000000 0.000000
vn -0.000000 1.000000 0.000000
vn -0.000000 1.000000 0.000000
# 24 normals

g object0
usemtl Material_0
f 1/1/1  2/2/2  3/3/3
f 7/7/7  8/8/8  9/9/9
f 10/10/10  11/11/11  12/12/12
f 13/13/13  14/14/14  15/15/15
f 16/16/16  17/17/17  18/18/18
f 19/19/19  20/20/20  21/21/21
f 22/22/22  23/23/23  24/24/24
f 25/25/25  26/26/26  27/27/27
f 28/28/28  29/29/29  30/30/30
f 31/31/31  32/32/32  33/33/33
f 34/34/34  35/35/35  36/36/36
f 37/37/37  38/38/38  39/39/39
f 40/40/40  41/41/41  42/42/42
f 43/43/43  44/44/44  45/45/45
f 46/46/46  47/47/47  48/48/48
f 49/49/49  50/50/50  51/51/51
f 52/52/52  53/53/53  54/54/54
f 55/55/55  56/56/56  57/57/57
f 58/58/58  59/59/59  60/60/60
f 61/61/61  62/62/62  63/63/63
f 64/64/64  65/65/65  66/66/66
f 67/67/67  68/68/68  69/69/69
f 70/70/70  71/71/71  72/72/72
f 73/73/73  74/74/74  75/75/75
f 76/76/76  77/77/77  78/78/78
f 79/79/79  80/80/80  81/81/81
f 82/82/82  83/83/83  84/84/84
f 85/85/85  86/86/86  87/87/87
f 88/88/88  89/89/89  90/90/90
f 91/91/91  92/92/92  93/93/93
f 94/94/94  95/95/95  96/96/96
f 97/97/97  98/98/98  99/99/99
f 100/100/100  101/101/101  102/102/102
f 103/103/103  104/104/104  105/105/105
f 106/106/106  107/107/107  108/108/108
f 109/109/109  110/110/110  111/111/111
f 112/112/112  113/113/113  114/114/114
f 115/115/115  116/116/116  117/117/117
f 118/118/118  119/119/119  120/120/120
f 121/121/121  122/122/122  123/123/123
f 124/124/124  125/125/125  126/126/126
f 127/127/127  128/128/128  129/129/129
f 130/130/130  131/131/131  132/132/132
f 4/4/4  5/5/5  6/6/6
# 44 polygons in group

g object1
usemtl Material_1
f 133/133/133  134/134/134  135/135/135
f 136/136/136  137/137/137  138/138/138
f 139/139/139  140/140/140  141/141/141
f 142/142/142  143/143/143  144/144/144
f 145/145/145  146/146/146  147/147/147
f 148/148/148  149/149/149  150/150/150
f 151/151/151  152/152/152  153/153/153
f 154/154/154  155/155/155  156/156/156
# 8 polygons in group

# 52 polygons total
