# Wavefront OBJ exported by IMDeditor

mtllib Alien_dread_patch1.mtl

v    -0.155459 0.000000 -0.494977
v     0.155459 0.000000 -0.215151
v     0.155459 0.000000 -0.494977
v    -0.155459 0.000000 -0.494977
v    -0.155459 0.000000 -0.215151
# 5 vertices

vt 1.000000 1.000000
vt 0.000000 0.000000
vt 0.000000 1.000000
vt 1.000000 1.000000
vt 1.000000 0.000000
# 5 texture coordinates

vn 0.000000 1.000000 0.000000
vn 0.000000 1.000000 0.000000
vn 0.000000 1.000000 0.000000
vn 0.000000 1.000000 0.000000
vn 0.000000 1.000000 0.000000
# 5 normals

g object0
usemtl Material_0
f 1/1/1  2/2/2  3/3/3
f 2/2/2  4/4/4  5/5/5
# 2 polygons in group

# 2 polygons total
