# Wavefront OBJ exported by IMDeditor

mtllib empty_mesh.mtl

v    -0.500000 0.500000 0.500000
v    -0.500000 0.000000 0.500000
v     0.500000 0.000000 0.500000
v     0.500000 0.500000 0.500000
v    -0.500000 0.500000 -0.500000
v    -0.500000 0.000000 -0.500000
v    -0.500000 0.000000 0.500000
v    -0.500000 0.500000 0.500000
v     0.500000 0.500000 -0.500000
v     0.500000 0.000000 -0.500000
v    -0.500000 0.000000 -0.500000
v    -0.500000 0.500000 -0.500000
v     0.500000 0.500000 0.500000
v     0.500000 0.000000 0.500000
v     0.500000 0.000000 -0.500000
v     0.500000 0.500000 -0.500000
# 16 vertices

v    -0.500000 0.000000 0.500000
v    -0.500000 -0.500000 0.500000
v     0.500000 -0.500000 0.500000
v     0.500000 0.000000 0.500000
v    -0.500000 0.000000 -0.500000
v    -0.500000 -0.500000 -0.500000
v    -0.500000 -0.500000 0.500000
v    -0.500000 0.000000 0.500000
v     0.500000 0.000000 -0.500000
v     0.500000 -0.500000 -0.500000
v    -0.500000 -0.500000 -0.500000
v    -0.500000 0.000000 -0.500000
v     0.500000 0.000000 0.500000
v     0.500000 -0.500000 0.500000
v     0.500000 -0.500000 -0.500000
v     0.500000 0.000000 -0.500000
# 16 vertices

v    -0.500000 0.499950 -0.500000
v     0.500000 0.499950 0.500000
v     0.500000 0.499950 -0.500000
v    -0.500000 0.499950 0.500000
# 4 vertices

v    -0.500000 -0.500000 -0.500000
v     0.500000 -0.500000 0.500000
v    -0.500000 -0.500000 0.500000
v     0.500000 -0.500000 -0.500000
# 4 vertices

vt 0.000000 0.000000
vt 0.000000 0.000000
vt 0.000000 0.000000
vt 0.000000 0.000000
vt 0.000000 0.000000
vt 0.000000 0.000000
vt 0.000000 0.000000
vt 0.000000 0.000000
vt 0.000000 0.000000
vt 0.000000 0.000000
vt 0.000000 0.000000
vt 0.000000 0.000000
vt 0.000000 0.000000
vt 0.000000 0.000000
vt 0.000000 0.000000
vt 0.000000 0.000000
# 16 texture coordinates

vt 0.000000 0.000000
vt 0.000000 0.000000
vt 0.000000 0.000000
vt 0.000000 0.000000
vt 0.000000 0.000000
vt 0.000000 0.000000
vt 0.000000 0.000000
vt 0.000000 0.000000
vt 0.000000 0.000000
vt 0.000000 0.000000
vt 0.000000 0.000000
vt 0.000000 0.000000
vt 0.000000 0.000000
vt 0.000000 0.000000
vt 0.000000 0.000000
vt 0.000000 0.000000
# 16 texture coordinates

vt 0.000000 0.000000
vt 0.000000 0.000000
vt 0.000000 0.000000
vt 0.000000 0.000000
# 4 texture coordinates

vt 0.000000 0.000000
vt 0.000000 0.000000
vt 0.000000 0.000000
vt 0.000000 0.000000
# 4 texture coordinates

vn 0.000000 0.000000 1.000000
vn 0.000000 0.000000 1.000000
vn 0.000000 0.000000 1.000000
vn 0.000000 0.000000 1.000000
vn -1.000000 0.000000 0.000000
vn -1.000000 0.000000 0.000000
vn -1.000000 0.000000 0.000000
vn -1.000000 0.000000 0.000000
vn 0.000000 0.000000 -1.000000
vn 0.000000 0.000000 -1.000000
vn 0.000000 0.000000 -1.000000
vn 0.000000 0.000000 -1.000000
vn 1.000000 0.000000 0.000000
vn 1.000000 0.000000 0.000000
vn 1.000000 0.000000 0.000000
vn 1.000000 0.000000 0.000000
# 16 normals

vn 0.000000 0.000000 1.000000
vn 0.000000 0.000000 1.000000
vn 0.000000 0.000000 1.000000
vn 0.000000 0.000000 1.000000
vn -1.000000 0.000000 0.000000
vn -1.000000 0.000000 0.000000
vn -1.000000 0.000000 0.000000
vn -1.000000 0.000000 0.000000
vn 0.000000 0.000000 -1.000000
vn 0.000000 0.000000 -1.000000
vn 0.000000 0.000000 -1.000000
vn 0.000000 0.000000 -1.000000
vn 1.000000 0.000000 0.000000
vn 1.000000 0.000000 0.000000
vn 1.000000 0.000000 0.000000
vn 1.000000 0.000000 0.000000
# 16 normals

vn 0.000000 1.000000 0.000000
vn 0.000000 1.000000 0.000000
vn 0.000000 1.000000 0.000000
vn 0.000000 1.000000 0.000000
# 4 normals

vn 0.000000 -1.000000 0.000000
vn 0.000000 -1.000000 0.000000
vn 0.000000 -1.000000 0.000000
vn 0.000000 -1.000000 0.000000
# 4 normals

g object0
usemtl Material_0
f 1/1/1  2/2/2  3/3/3
f 3/3/3  4/4/4  1/1/1
f 5/5/5  6/6/6  7/7/7
f 7/7/7  8/8/8  5/5/5
f 9/9/9  10/10/10  11/11/11
f 11/11/11  12/12/12  9/9/9
f 13/13/13  14/14/14  15/15/15
f 15/15/15  16/16/16  13/13/13
# 8 polygons in group

g object1
usemtl Material_1
f 17/17/17  18/18/18  19/19/19
f 19/19/19  20/20/20  17/17/17
f 21/21/21  22/22/22  23/23/23
f 23/23/23  24/24/24  21/21/21
f 25/25/25  26/26/26  27/27/27
f 27/27/27  28/28/28  25/25/25
f 29/29/29  30/30/30  31/31/31
f 31/31/31  32/32/32  29/29/29
# 8 polygons in group

g object2
usemtl Material_1
f 33/33/33  34/34/34  35/35/35
f 34/34/34  33/33/33  36/36/36
# 2 polygons in group

g object3
usemtl Material_0
f 37/37/37  38/38/38  39/39/39
f 38/38/38  37/37/37  40/40/40
# 2 polygons in group

# 20 polygons total
