# Wavefront OBJ exported by IMDeditor

mtllib garbage08.mtl

v    -0.023132 -0.005643 0.104091
v     0.031048 0.016684 0.104091
v     0.031060 0.008055 -0.104087
v     0.030239 -0.001377 -0.104091
v     0.031060 0.008055 -0.104087
v     0.071823 0.016865 -0.104087
v    -0.031550 -0.046714 -0.104084
v    -0.041316 -0.045170 -0.104084
v    -0.033468 -0.014231 -0.104090
v    -0.024616 -0.012079 -0.104090
v    -0.033468 -0.014231 -0.104090
v    -0.023135 -0.005658 -0.104086
v    -0.031550 -0.046714 -0.104084
v    -0.033075 -0.052461 -0.104083
v    -0.041316 -0.045170 -0.104084
v    -0.033463 -0.014217 0.104090
v    -0.041316 -0.045170 -0.104084
v    -0.034643 -0.045158 0.104091
v     0.074141 0.005998 0.104091
v     0.074074 0.006263 -0.104091
v     0.071823 0.016865 -0.104087
v    -0.023132 -0.005643 0.104091
v    -0.033468 -0.014231 -0.104090
v    -0.033463 -0.014217 0.104090
v    -0.041316 -0.045170 -0.104084
v    -0.033075 -0.052461 -0.104083
v    -0.026401 -0.052448 0.104091
v    -0.026401 -0.052448 0.104091
v    -0.034643 -0.045158 0.104091
v    -0.041316 -0.045170 -0.104084
v     0.074141 0.005998 0.104091
v     0.069601 0.016651 0.104091
v     0.070064 0.005948 0.104091
v     0.031048 0.016684 0.104091
v     0.030847 0.014376 0.104089
v     0.066197 0.013588 0.104088
v    -0.023132 -0.005643 0.104091
v    -0.029744 -0.014275 0.104091
v    -0.021002 -0.007155 0.104091
v    -0.033463 -0.014217 0.104090
v    -0.030470 -0.044994 0.104090
v    -0.029744 -0.014275 0.104091
v    -0.034643 -0.045158 0.104091
v    -0.026401 -0.052448 0.104091
v    -0.023555 -0.051159 0.104090
v    -0.023555 -0.051159 0.104090
v    -0.030470 -0.044994 0.104090
v    -0.034643 -0.045158 0.104091
v     0.031048 0.016684 0.104091
v     0.071823 0.016865 -0.104087
v     0.031060 0.008055 -0.104087
v     0.030239 -0.001377 -0.104091
v    -0.024616 -0.012079 -0.104090
v    -0.023135 -0.005658 -0.104086
v     0.031048 0.016684 0.104091
v    -0.021002 -0.007155 0.104091
v     0.030847 0.014376 0.104089
v    -0.026401 -0.052448 0.104091
v    -0.033075 -0.052461 -0.104083
v    -0.023555 -0.051159 0.104090
v    -0.023555 -0.051159 0.104090
v    -0.033075 -0.052461 -0.104083
v    -0.031550 -0.046714 -0.104084
v    -0.031550 -0.046714 -0.104084
v    -0.024616 -0.012079 -0.104090
v    -0.023555 -0.051159 0.104090
v     0.030239 -0.001377 -0.104091
v     0.030847 0.014376 0.104089
v    -0.021002 -0.007155 0.104091
v    -0.021002 -0.007155 0.104091
v    -0.024616 -0.012079 -0.104090
v     0.030239 -0.001377 -0.104091
v     0.074074 0.006263 -0.104091
v     0.074141 0.005998 0.104091
v     0.070064 0.005948 0.104091
v     0.070064 0.005948 0.104091
v     0.030239 -0.001377 -0.104091
v     0.074074 0.006263 -0.104091
v     0.070064 0.005948 0.104091
v     0.066197 0.013588 0.104088
v     0.030239 -0.001377 -0.104091
v    -0.024616 -0.012079 -0.104090
v    -0.029744 -0.014275 0.104091
v    -0.030470 -0.044994 0.104090
v    -0.030470 -0.044994 0.104090
v    -0.023555 -0.051159 0.104090
v    -0.024616 -0.012079 -0.104090
v    -0.033468 -0.014231 -0.104090
v    -0.024616 -0.012079 -0.104090
v    -0.031550 -0.046714 -0.104084
v    -0.033463 -0.014217 0.104090
v    -0.034643 -0.045158 0.104091
v    -0.030470 -0.044994 0.104090
v    -0.033463 -0.014217 0.104090
v    -0.033468 -0.014231 -0.104090
v    -0.041316 -0.045170 -0.104084
v    -0.023132 -0.005643 0.104091
v    -0.023135 -0.005658 -0.104086
v    -0.033468 -0.014231 -0.104090
v     0.031060 0.008055 -0.104087
v    -0.023135 -0.005658 -0.104086
v    -0.023132 -0.005643 0.104091
v     0.031048 0.016684 0.104091
v     0.069601 0.016651 0.104091
v     0.071823 0.016865 -0.104087
v     0.071823 0.016865 -0.104087
v     0.069601 0.016651 0.104091
v     0.074141 0.005998 0.104091
v     0.071823 0.016865 -0.104087
v     0.074074 0.006263 -0.104091
v     0.030239 -0.001377 -0.104091
v    -0.023135 -0.005658 -0.104086
v     0.031060 0.008055 -0.104087
v     0.030239 -0.001377 -0.104091
v    -0.021002 -0.007155 0.104091
v    -0.029744 -0.014275 0.104091
v    -0.024616 -0.012079 -0.104090
v     0.031048 0.016684 0.104091
v    -0.023132 -0.005643 0.104091
v    -0.021002 -0.007155 0.104091
v     0.069601 0.016651 0.104091
v     0.066197 0.013588 0.104088
v     0.070064 0.005948 0.104091
v     0.066197 0.013588 0.104088
v     0.030847 0.014376 0.104089
v     0.030239 -0.001377 -0.104091
v     0.066197 0.013588 0.104088
v     0.069601 0.016651 0.104091
v     0.031048 0.016684 0.104091
v    -0.023132 -0.005643 0.104091
v    -0.033463 -0.014217 0.104090
v    -0.029744 -0.014275 0.104091
# 132 vertices

vt 0.699529 0.093694
vt 0.699203 0.050205
vt 0.853833 0.051481
vt 0.248010 0.849196
vt 0.237902 0.851703
vt 0.214205 0.812422
vt 0.317213 0.897340
vt 0.319088 0.908054
vt 0.284092 0.910913
vt 0.278698 0.902469
vt 0.284092 0.910913
vt 0.271488 0.903215
vt 0.317213 0.897340
vt 0.323738 0.896879
vt 0.319088 0.908054
vt 0.699576 0.103658
vt 0.854187 0.126623
vt 0.699607 0.126639
vt 0.699280 0.012999
vt 0.853785 0.012483
vt 0.853819 0.020527
vt 0.699529 0.093694
vt 0.854078 0.102934
vt 0.699576 0.103658
vt 0.854187 0.126623
vt 0.853992 0.134787
vt 0.699413 0.134804
vt 0.699413 0.134804
vt 0.699607 0.126639
vt 0.854187 0.126623
vt 0.520697 0.952130
vt 0.520549 0.969399
vt 0.515054 0.954397
vt 0.467483 0.991536
vt 0.465885 0.988474
vt 0.514108 0.967133
vt 0.380089 0.991840
vt 0.366037 0.983742
vt 0.382155 0.988537
vt 0.360950 0.985954
vt 0.347436 0.941859
vt 0.366037 0.983742
vt 0.341597 0.944026
vt 0.348768 0.929265
vt 0.353425 0.929408
vt 0.353425 0.929408
vt 0.347436 0.941859
vt 0.341597 0.944026
vt 0.699203 0.050205
vt 0.853819 0.020527
vt 0.853833 0.051479
vt 0.248010 0.849196
vt 0.278698 0.902469
vt 0.271488 0.903215
vt 0.467483 0.991536
vt 0.382155 0.988537
vt 0.465885 0.988474
vt 0.508554 0.011436
vt 0.345817 0.011108
vt 0.508630 0.008997
vt 0.531118 0.009248
vt 0.686728 0.020250
vt 0.686337 0.024684
vt 0.686337 0.024684
vt 0.684082 0.050978
vt 0.531118 0.009248
vt 0.682246 0.092775
vt 0.525997 0.089463
vt 0.528215 0.047496
vt 0.528215 0.047496
vt 0.684082 0.050978
vt 0.682246 0.092775
vt 0.682074 0.126080
vt 0.526238 0.125299
vt 0.526252 0.122279
vt 0.526252 0.122279
vt 0.682246 0.092775
vt 0.682074 0.126080
vt 0.526252 0.122279
vt 0.525405 0.115926
vt 0.682246 0.092775
vt 0.684082 0.050978
vt 0.528643 0.039067
vt 0.530146 0.016114
vt 0.530146 0.016114
vt 0.531110 0.009246
vt 0.684082 0.050978
vt 0.284092 0.910913
vt 0.278698 0.902469
vt 0.317213 0.897340
vt 0.360950 0.985954
vt 0.341597 0.944026
vt 0.347436 0.941859
vt 0.699576 0.103658
vt 0.854078 0.102934
vt 0.854187 0.126623
vt 0.699529 0.093694
vt 0.854028 0.092970
vt 0.854078 0.102934
vt 0.853833 0.051481
vt 0.854028 0.092970
vt 0.699529 0.093694
vt 0.699203 0.050205
vt 0.699312 0.021593
vt 0.853819 0.020527
vt 0.853819 0.020527
vt 0.699312 0.021593
vt 0.699280 0.012999
vt 0.214205 0.812422
vt 0.224435 0.806301
vt 0.248010 0.849196
vt 0.271488 0.903215
vt 0.237902 0.851703
vt 0.248010 0.849196
vt 0.528215 0.047496
vt 0.528643 0.039067
vt 0.684082 0.050978
vt 0.467483 0.991536
vt 0.380089 0.991840
vt 0.382155 0.988537
vt 0.520549 0.969399
vt 0.514108 0.967133
vt 0.515054 0.954397
vt 0.525405 0.115926
vt 0.525997 0.089463
vt 0.682246 0.092775
vt 0.514108 0.967133
vt 0.520549 0.969399
vt 0.467483 0.991536
vt 0.380089 0.991840
vt 0.360950 0.985954
vt 0.366037 0.983742
# 132 texture coordinates

vn -0.358685 0.932910 -0.031990
vn -0.205808 0.978356 -0.021527
vn -0.240485 0.970368 -0.023522
vn -0.000106 0.000436 -1.000000
vn -0.000106 0.000436 -1.000000
vn -0.000106 0.000436 -1.000000
vn -0.000039 -0.000167 -1.000000
vn -0.000039 -0.000167 -1.000000
vn -0.000039 -0.000167 -1.000000
vn -0.000185 0.000670 -1.000000
vn -0.000185 0.000670 -1.000000
vn -0.000185 0.000670 -1.000000
vn -0.000040 -0.000175 -1.000000
vn -0.000040 -0.000175 -1.000000
vn -0.000040 -0.000175 -1.000000
vn -0.998762 0.038069 0.032016
vn -0.998762 0.038069 0.032016
vn -0.998762 0.038069 0.032016
vn 0.978192 0.207703 -0.000050
vn 0.978192 0.207703 -0.000050
vn 0.978192 0.207703 -0.000050
vn -0.638619 0.769523 -0.000039
vn -0.638619 0.769523 -0.000039
vn -0.638619 0.769523 -0.000039
vn -0.662465 -0.748790 0.021286
vn -0.662465 -0.748790 0.021286
vn -0.662465 -0.748790 0.021286
vn -0.662409 -0.748840 0.021280
vn -0.662409 -0.748840 0.021280
vn -0.662409 -0.748840 0.021280
vn 0.000059 0.000025 1.000000
vn 0.000059 0.000025 1.000000
vn 0.000059 0.000025 1.000000
vn 0.000021 -0.000486 1.000000
vn 0.000021 -0.000486 1.000000
vn 0.000021 -0.000486 1.000000
vn -0.000147 0.000146 1.000000
vn -0.000147 0.000146 1.000000
vn -0.000147 0.000146 1.000000
vn -0.000105 -0.000016 1.000000
vn -0.000105 -0.000016 1.000000
vn -0.000105 -0.000016 1.000000
vn 0.000113 0.000128 1.000000
vn 0.000113 0.000128 1.000000
vn 0.000113 0.000128 1.000000
vn 0.000079 0.000065 1.000000
vn 0.000079 0.000065 1.000000
vn 0.000079 0.000065 1.000000
vn -0.205808 0.978356 -0.021527
vn -0.186775 0.981753 -0.035730
vn -0.240485 0.970368 -0.023522
vn -0.000140 0.000660 -1.000000
vn -0.000140 0.000660 -1.000000
vn -0.000140 0.000660 -1.000000
vn 0.000240 -0.000505 1.000000
vn 0.000240 -0.000505 1.000000
vn 0.000240 -0.000505 1.000000
vn 0.412489 -0.910867 -0.013169
vn 0.412489 -0.910867 -0.013169
vn 0.412489 -0.910867 -0.013169
vn 0.965663 -0.256289 -0.042559
vn 0.965663 -0.256289 -0.042559
vn 0.965663 -0.256289 -0.042559
vn 0.979686 -0.196129 -0.041813
vn 0.718763 -0.695223 -0.006710
vn 0.727706 0.674778 0.122962
vn 0.230272 -0.970402 0.072760
vn 0.181959 -0.980543 0.073669
vn 0.382613 -0.921358 0.068604
vn 0.575804 -0.817535 0.009340
vn 0.718763 -0.695223 -0.006710
vn 0.191441 -0.981303 0.019886
vn 0.012328 -0.999923 -0.001279
vn 0.012328 -0.999923 -0.001279
vn 0.012328 -0.999923 -0.001279
vn 0.171716 -0.985145 0.001815
vn 0.171716 -0.985145 0.001815
vn 0.171716 -0.985145 0.001815
vn -0.877146 -0.443820 0.183411
vn -0.877146 -0.443820 0.183411
vn -0.877146 -0.443820 0.183411
vn 0.718763 -0.695223 -0.006710
vn 0.900268 -0.434982 0.017587
vn 0.899258 0.427447 0.092869
vn 0.899258 0.427447 0.092869
vn 0.727706 0.674778 0.122962
vn 0.718763 -0.695223 -0.006710
vn 0.000018 -0.000163 -1.000000
vn 0.000018 -0.000163 -1.000000
vn 0.000018 -0.000163 -1.000000
vn 0.000081 0.000002 1.000000
vn 0.000081 0.000002 1.000000
vn 0.000081 0.000002 1.000000
vn -0.969297 0.245894 0.000003
vn -0.969297 0.245894 0.000003
vn -0.969297 0.245894 0.000003
vn -0.638519 0.769606 -0.000047
vn -0.638519 0.769606 -0.000047
vn -0.638519 0.769606 -0.000047
vn -0.240485 0.970368 -0.023522
vn -0.245291 0.969449 -0.000068
vn -0.358685 0.932910 -0.031990
vn -0.205808 0.978356 -0.021527
vn 0.000856 0.999999 0.001037
vn -0.186775 0.981753 -0.035730
vn 0.919868 0.392096 0.010224
vn 0.919868 0.392096 0.010224
vn 0.919868 0.392096 0.010224
vn -0.000076 0.000368 -1.000000
vn -0.000076 0.000368 -1.000000
vn -0.000076 0.000368 -1.000000
vn -0.000122 0.000438 -1.000000
vn -0.000122 0.000438 -1.000000
vn -0.000122 0.000438 -1.000000
vn 0.575804 -0.817535 0.009340
vn 0.900268 -0.434982 0.017587
vn 0.718763 -0.695223 -0.006710
vn -0.000093 0.000223 1.000000
vn -0.000093 0.000223 1.000000
vn -0.000093 0.000223 1.000000
vn -0.000665 -0.000006 1.000000
vn -0.000665 -0.000006 1.000000
vn -0.000665 -0.000006 1.000000
vn -0.022226 -0.996898 0.075503
vn 0.181959 -0.980543 0.073669
vn 0.230272 -0.970402 0.072760
vn -0.000002 -0.000743 1.000000
vn -0.000002 -0.000743 1.000000
vn -0.000002 -0.000743 1.000000
vn -0.000103 0.000112 1.000000
vn -0.000103 0.000112 1.000000
vn -0.000103 0.000112 1.000000
# 132 normals

g object0
usemtl Material_0
f 1/1/1  2/2/2  3/3/3
f 7/7/7  8/8/8  9/9/9
f 10/10/10  11/11/11  12/12/12
f 13/13/13  14/14/14  15/15/15
f 16/16/16  17/17/17  18/18/18
f 19/19/19  20/20/20  21/21/21
f 22/22/22  23/23/23  24/24/24
f 25/25/25  26/26/26  27/27/27
f 28/28/28  29/29/29  30/30/30
f 31/31/31  32/32/32  33/33/33
f 34/34/34  35/35/35  36/36/36
f 37/37/37  38/38/38  39/39/39
f 40/40/40  41/41/41  42/42/42
f 43/43/43  44/44/44  45/45/45
f 46/46/46  47/47/47  48/48/48
f 49/49/49  50/50/50  51/51/51
f 52/52/52  53/53/53  54/54/54
f 55/55/55  56/56/56  57/57/57
f 58/58/58  59/59/59  60/60/60
f 61/61/61  62/62/62  63/63/63
f 64/64/64  65/65/65  66/66/66
f 67/67/67  68/68/68  69/69/69
f 70/70/70  71/71/71  72/72/72
f 73/73/73  74/74/74  75/75/75
f 76/76/76  77/77/77  78/78/78
f 79/79/79  80/80/80  81/81/81
f 82/82/82  83/83/83  84/84/84
f 85/85/85  86/86/86  87/87/87
f 88/88/88  89/89/89  90/90/90
f 91/91/91  92/92/92  93/93/93
f 94/94/94  95/95/95  96/96/96
f 97/97/97  98/98/98  99/99/99
f 100/100/100  101/101/101  102/102/102
f 103/103/103  104/104/104  105/105/105
f 106/106/106  107/107/107  108/108/108
f 109/109/109  110/110/110  111/111/111
f 112/112/112  113/113/113  114/114/114
f 115/115/115  116/116/116  117/117/117
f 118/118/118  119/119/119  120/120/120
f 121/121/121  122/122/122  123/123/123
f 124/124/124  125/125/125  126/126/126
f 127/127/127  128/128/128  129/129/129
f 130/130/130  131/131/131  132/132/132
f 4/4/4  5/5/5  6/6/6
# 44 polygons in group

# 44 polygons total
