# Wavefront OBJ exported by IMDeditor

mtllib garbage00.mtl

v    -0.026392 0.000000 0.024855
v    -0.026392 0.002601 0.024855
v    -0.026392 0.002601 -0.029104
v    -0.026392 0.002601 -0.029104
v    -0.026392 0.000000 -0.029104
v    -0.026392 0.000000 0.024855
v     0.005809 0.002601 -0.015398
v    -0.013081 0.002601 0.005757
v     0.027969 0.002601 0.005757
v     0.006267 0.000000 -0.013511
v    -0.026392 0.000000 0.024855
v     0.002912 0.000000 -0.029104
v    -0.013081 0.007295 -0.003110
v    -0.006910 0.007295 -0.009281
v    -0.013081 0.007295 -0.015453
v    -0.013081 0.007295 -0.015453
v    -0.019253 0.007295 -0.009281
v    -0.013081 0.007295 -0.003110
v    -0.006910 0.007295 -0.009281
v    -0.004081 0.002601 -0.009281
v    -0.013081 0.002601 -0.018281
v    -0.013081 0.002601 -0.018281
v    -0.013081 0.007295 -0.015453
v    -0.006910 0.007295 -0.009281
v    -0.013081 0.007295 -0.003110
v    -0.013081 0.002601 -0.000281
v    -0.004081 0.002601 -0.009281
v    -0.004081 0.002601 -0.009281
v    -0.006910 0.007295 -0.009281
v    -0.013081 0.007295 -0.003110
v    -0.019253 0.007295 -0.009281
v    -0.022081 0.002601 -0.009281
v    -0.013081 0.002601 -0.000281
v    -0.013081 0.002601 -0.000281
v    -0.013081 0.007295 -0.003110
v    -0.019253 0.007295 -0.009281
v    -0.013081 0.007295 -0.015453
v    -0.013081 0.002601 -0.018281
v    -0.022081 0.002601 -0.009281
v    -0.022081 0.002601 -0.009281
v    -0.019253 0.007295 -0.009281
v    -0.013081 0.007295 -0.015453
v     0.027969 0.004601 0.009131
v     0.027969 0.004601 0.005757
v    -0.013081 0.004601 0.005757
v    -0.013081 0.004601 0.005757
v    -0.013081 0.004601 0.009131
v     0.027969 0.004601 0.009131
v     0.027969 0.002601 0.015089
v     0.027969 0.002601 0.009131
v    -0.013081 0.002601 0.009131
v    -0.013081 0.002601 0.009131
v    -0.013081 0.002601 0.015089
v     0.027969 0.002601 0.015089
v     0.027969 0.004601 0.020504
v     0.027969 0.004601 0.015089
v    -0.013081 0.004601 0.015089
v    -0.013081 0.004601 0.015089
v    -0.013081 0.004601 0.020504
v     0.027969 0.004601 0.020504
v     0.027969 0.004601 0.005757
v     0.027969 0.002601 0.005757
v    -0.013081 0.002601 0.005757
v    -0.013081 0.002601 0.005757
v    -0.013081 0.004601 0.005757
v     0.027969 0.004601 0.005757
v     0.027969 0.004601 0.009131
v     0.027969 0.002601 0.009131
v     0.027969 0.002601 0.005757
v     0.027969 0.002601 0.005757
v     0.027969 0.004601 0.005757
v     0.027969 0.004601 0.009131
v    -0.013081 0.004601 0.009131
v    -0.013081 0.002601 0.009131
v     0.027969 0.002601 0.009131
v     0.027969 0.002601 0.009131
v     0.027969 0.004601 0.009131
v    -0.013081 0.004601 0.009131
v    -0.013081 0.004601 0.005757
v    -0.013081 0.002601 0.005757
v    -0.013081 0.002601 0.009131
v    -0.013081 0.002601 0.009131
v    -0.013081 0.004601 0.009131
v    -0.013081 0.004601 0.005757
v     0.027969 0.004601 0.015089
v     0.027969 0.002601 0.015089
v    -0.013081 0.002601 0.015089
v    -0.013081 0.002601 0.015089
v    -0.013081 0.004601 0.015089
v     0.027969 0.004601 0.015089
v     0.027969 0.004601 0.020504
v     0.027969 0.002601 0.020504
v     0.027969 0.002601 0.015089
v     0.027969 0.002601 0.015089
v     0.027969 0.004601 0.015089
v     0.027969 0.004601 0.020504
v    -0.013081 0.004601 0.020504
v    -0.013081 0.002601 0.020504
v     0.027969 0.002601 0.020504
v     0.027969 0.002601 0.020504
v     0.027969 0.004601 0.020504
v    -0.013081 0.004601 0.020504
v    -0.013081 0.004601 0.015089
v    -0.013081 0.002601 0.015089
v    -0.013081 0.002601 0.020504
v    -0.013081 0.002601 0.020504
v    -0.013081 0.004601 0.020504
v    -0.013081 0.004601 0.015089
v     0.002742 0.002601 -0.029104
v     0.002912 0.000000 -0.029104
v    -0.026392 0.000000 -0.029104
v    -0.026392 0.000000 -0.029104
v    -0.026392 0.002601 -0.029104
v     0.002742 0.002601 -0.029104
v     0.027969 0.002601 0.005757
v     0.027969 0.002601 0.009131
v     0.027969 -0.005355 -0.029104
v     0.027969 -0.005355 -0.029104
v     0.027969 -0.002755 -0.029104
v     0.027969 0.002601 0.005757
v    -0.026392 0.002601 0.024855
v    -0.026392 0.000000 0.024855
v     0.027969 0.000000 0.024855
v     0.027969 0.000000 0.024855
v     0.027969 0.002601 0.024855
v    -0.026392 0.002601 0.024855
v     0.002742 0.002601 -0.029104
v    -0.026392 0.002601 -0.029104
v    -0.013081 0.002601 -0.018281
v     0.002742 0.002601 -0.029104
v    -0.013081 0.002601 -0.018281
v    -0.004081 0.002601 -0.009281
v     0.005809 0.002601 -0.015398
v     0.002742 0.002601 -0.029104
v    -0.004081 0.002601 -0.009281
v    -0.026392 0.002601 -0.029104
v    -0.022081 0.002601 -0.009281
v    -0.013081 0.002601 -0.018281
v    -0.026392 0.002601 -0.029104
v    -0.026392 0.002601 0.024855
v    -0.022081 0.002601 -0.009281
v    -0.013081 0.002601 0.005757
v    -0.013081 0.002601 -0.000281
v    -0.022081 0.002601 -0.009281
v    -0.013081 0.002601 0.009131
v    -0.013081 0.002601 0.005757
v    -0.022081 0.002601 -0.009281
v    -0.013081 0.002601 0.015089
v    -0.013081 0.002601 0.009131
v    -0.022081 0.002601 -0.009281
v    -0.026392 0.002601 0.024855
v    -0.013081 0.002601 0.020504
v    -0.013081 0.002601 0.015089
v    -0.026392 0.002601 0.024855
v    -0.013081 0.002601 0.015089
v    -0.022081 0.002601 -0.009281
v     0.027969 0.002601 0.024855
v     0.027969 0.002601 0.020504
v    -0.013081 0.002601 0.020504
v    -0.013081 0.002601 0.020504
v    -0.026392 0.002601 0.024855
v     0.027969 0.002601 0.024855
v     0.005445 0.002601 -0.027511
v     0.027969 -0.002755 -0.029104
v     0.027969 -0.005355 -0.029104
v     0.005809 0.002601 -0.015398
v     0.027969 -0.002755 -0.029104
v     0.005445 0.002601 -0.027511
v     0.027969 0.000000 0.024855
v    -0.026392 0.000000 0.024855
v     0.006267 0.000000 -0.013511
v     0.006267 0.000000 -0.013511
v     0.027969 -0.005355 -0.029104
v     0.027969 0.000000 0.024855
v     0.004518 0.000000 -0.029104
v     0.027969 -0.005355 -0.029104
v     0.006267 0.000000 -0.013511
v     0.006267 0.000000 -0.013511
v     0.005445 0.002601 -0.027511
v     0.004518 0.000000 -0.029104
v     0.002742 0.002601 -0.029104
v     0.006267 0.000000 -0.013511
v     0.002912 0.000000 -0.029104
v     0.006267 0.000000 -0.013511
v     0.005809 0.002601 -0.015398
v     0.005445 0.002601 -0.027511
v     0.002742 0.002601 -0.029104
v     0.005809 0.002601 -0.015398
v     0.006267 0.000000 -0.013511
v    -0.026392 0.000000 0.024855
v    -0.026392 0.000000 -0.029104
v     0.002912 0.000000 -0.029104
v     0.027969 -0.005355 -0.029104
v     0.004518 0.000000 -0.029104
v     0.005445 0.002601 -0.027511
v     0.027969 0.002601 0.005757
v     0.027969 -0.002755 -0.029104
v     0.005809 0.002601 -0.015398
v    -0.004081 0.002601 -0.009281
v    -0.013081 0.002601 -0.000281
v    -0.013081 0.002601 0.005757
v    -0.013081 0.002601 0.005757
v     0.005809 0.002601 -0.015398
v    -0.004081 0.002601 -0.009281
v     0.027969 0.002601 0.020504
v     0.027969 0.002601 0.024855
v     0.027969 0.000000 0.024855
v     0.027969 0.002601 0.015089
v     0.027969 0.002601 0.020504
v     0.027969 0.000000 0.024855
v     0.027969 0.002601 0.009131
v     0.027969 0.002601 0.015089
v     0.027969 0.000000 0.024855
v     0.027969 0.000000 0.024855
v     0.027969 -0.005355 -0.029104
v     0.027969 0.002601 0.009131
# 216 vertices

vt 0.629192 0.363591
vt 0.629192 0.369124
vt 0.744002 0.369124
vt 0.744002 0.369124
vt 0.744002 0.363591
vt 0.629192 0.363591
vt 0.714840 0.437640
vt 0.669827 0.397447
vt 0.669827 0.484791
vt 0.808753 0.434623
vt 0.876714 0.514460
vt 0.815734 0.402177
vt 0.921200 0.232332
vt 0.905121 0.248411
vt 0.921200 0.264490
vt 0.921200 0.264490
vt 0.937279 0.248411
vt 0.921200 0.232332
vt 0.905121 0.248411
vt 0.892037 0.254126
vt 0.915485 0.277574
vt 0.915485 0.277574
vt 0.921200 0.264490
vt 0.905121 0.248411
vt 0.921200 0.232332
vt 0.915485 0.219248
vt 0.892037 0.242696
vt 0.892037 0.242696
vt 0.905121 0.248411
vt 0.921200 0.232332
vt 0.937279 0.248411
vt 0.950363 0.242696
vt 0.926915 0.219248
vt 0.926915 0.219248
vt 0.921200 0.232332
vt 0.937279 0.248411
vt 0.921200 0.264490
vt 0.926915 0.277574
vt 0.950363 0.254126
vt 0.950363 0.254126
vt 0.937279 0.248411
vt 0.921200 0.264490
vt 0.520136 0.485335
vt 0.520136 0.492480
vt 0.607072 0.492480
vt 0.607072 0.492480
vt 0.607072 0.485335
vt 0.520136 0.485335
vt 0.649971 0.484791
vt 0.662648 0.484791
vt 0.662648 0.397447
vt 0.662648 0.397447
vt 0.649971 0.397447
vt 0.649971 0.484791
vt 0.775886 0.360231
vt 0.775886 0.371719
vt 0.862981 0.371719
vt 0.862981 0.371719
vt 0.862981 0.360231
vt 0.775886 0.360231
vt 0.520136 0.492480
vt 0.520136 0.496716
vt 0.607072 0.496716
vt 0.607072 0.496716
vt 0.607072 0.492480
vt 0.520136 0.492480
vt 0.520136 0.485335
vt 0.515900 0.485335
vt 0.515900 0.492480
vt 0.515900 0.492480
vt 0.520136 0.492480
vt 0.520136 0.485335
vt 0.607072 0.485335
vt 0.607072 0.481099
vt 0.520136 0.481099
vt 0.520136 0.481099
vt 0.520136 0.485335
vt 0.607072 0.485335
vt 0.607072 0.492480
vt 0.611308 0.492480
vt 0.611308 0.485335
vt 0.611308 0.485335
vt 0.607072 0.485335
vt 0.607072 0.492480
vt 0.775886 0.371719
vt 0.775886 0.375963
vt 0.862981 0.375963
vt 0.862981 0.375963
vt 0.862981 0.371719
vt 0.775886 0.371719
vt 0.775886 0.360231
vt 0.771642 0.360231
vt 0.771642 0.371719
vt 0.771642 0.371719
vt 0.775886 0.371719
vt 0.775886 0.360231
vt 0.862981 0.360231
vt 0.862981 0.355988
vt 0.775886 0.355988
vt 0.775886 0.355988
vt 0.775886 0.360231
vt 0.862981 0.360231
vt 0.862981 0.371719
vt 0.867224 0.371719
vt 0.867224 0.360231
vt 0.867224 0.360231
vt 0.862981 0.360231
vt 0.862981 0.371719
vt 0.816088 0.396765
vt 0.815734 0.402177
vt 0.876714 0.402177
vt 0.876714 0.402177
vt 0.876714 0.396765
vt 0.816088 0.396765
vt 0.669827 0.484791
vt 0.662720 0.485803
vt 0.745648 0.491096
vt 0.745648 0.491096
vt 0.744868 0.485618
vt 0.669827 0.484791
vt 0.876714 0.519872
vt 0.876714 0.514460
vt 0.763592 0.514460
vt 0.763592 0.514460
vt 0.763592 0.519872
vt 0.876714 0.519872
vt 0.744002 0.431114
vt 0.744002 0.369124
vt 0.720975 0.397447
vt 0.744002 0.431114
vt 0.720975 0.397447
vt 0.701826 0.416597
vt 0.714840 0.437640
vt 0.744002 0.431114
vt 0.701826 0.416597
vt 0.744002 0.369124
vt 0.701826 0.378297
vt 0.720975 0.397447
vt 0.744002 0.369124
vt 0.629192 0.369124
vt 0.701826 0.378297
vt 0.669827 0.397447
vt 0.682676 0.397447
vt 0.701826 0.378297
vt 0.662648 0.397447
vt 0.669827 0.397447
vt 0.701826 0.378297
vt 0.649971 0.397447
vt 0.662648 0.397447
vt 0.701826 0.378297
vt 0.629192 0.369124
vt 0.638450 0.397447
vt 0.649971 0.397447
vt 0.629192 0.369124
vt 0.649971 0.397447
vt 0.701826 0.378297
vt 0.629192 0.484791
vt 0.638450 0.484791
vt 0.638450 0.397447
vt 0.638450 0.397447
vt 0.629192 0.369124
vt 0.629192 0.484791
vt 0.813058 0.396257
vt 0.764771 0.396895
vt 0.763592 0.402177
vt 0.714840 0.437640
vt 0.744868 0.485618
vt 0.740597 0.436425
vt 0.763592 0.514460
vt 0.876714 0.514460
vt 0.808753 0.434623
vt 0.808753 0.434623
vt 0.763592 0.402177
vt 0.763592 0.514460
vt 0.813643 0.402864
vt 0.763592 0.402177
vt 0.809651 0.435268
vt 0.876697 0.199605
vt 0.909629 0.205965
vt 0.913593 0.199604
vt 0.871093 0.237280
vt 0.876697 0.199605
vt 0.865281 0.235335
vt 0.876697 0.199605
vt 0.881130 0.205816
vt 0.909629 0.205965
vt 0.871093 0.237280
vt 0.881130 0.205816
vt 0.876697 0.199605
vt 0.876714 0.514460
vt 0.876714 0.402177
vt 0.815734 0.402177
vt 0.763592 0.402177
vt 0.813643 0.402864
vt 0.813058 0.396257
vt 0.669827 0.484791
vt 0.744868 0.485618
vt 0.714840 0.437640
vt 0.701826 0.416597
vt 0.682676 0.397447
vt 0.669827 0.397447
vt 0.669827 0.397447
vt 0.714840 0.437640
vt 0.701826 0.416597
vt 0.638763 0.489214
vt 0.629598 0.490519
vt 0.630378 0.495997
vt 0.650169 0.487590
vt 0.638763 0.489214
vt 0.630378 0.495997
vt 0.662720 0.485803
vt 0.650169 0.487590
vt 0.630378 0.495997
vt 0.630378 0.495997
vt 0.745648 0.491096
vt 0.662720 0.485803
# 216 texture coordinates

vn -1.000000 0.000000 0.000000
vn -1.000000 0.000000 0.000000
vn -1.000000 0.000000 0.000000
vn -1.000000 0.000000 0.000000
vn -1.000000 0.000000 0.000000
vn -1.000000 0.000000 0.000000
vn 0.071472 0.996866 -0.033911
vn 0.000000 1.000000 0.000000
vn 0.074738 0.994125 -0.078289
vn -0.085538 -0.995858 0.030838
vn 0.000000 -1.000000 0.000000
vn 0.000000 -1.000000 0.000000
vn 0.000000 1.000000 0.000000
vn 0.000000 1.000000 0.000000
vn 0.000000 1.000000 0.000000
vn 0.000000 1.000000 0.000000
vn 0.000000 1.000000 0.000000
vn 0.000000 1.000000 0.000000
vn 0.650520 0.391980 -0.650520
vn 0.650520 0.391980 -0.650520
vn 0.650520 0.391980 -0.650520
vn 0.650520 0.391980 -0.650520
vn 0.650520 0.391980 -0.650520
vn 0.650520 0.391980 -0.650520
vn 0.650520 0.391980 0.650520
vn 0.650520 0.391980 0.650520
vn 0.650520 0.391980 0.650520
vn 0.650520 0.391980 0.650520
vn 0.650520 0.391980 0.650520
vn 0.650520 0.391980 0.650520
vn -0.650520 0.391980 0.650520
vn -0.650520 0.391980 0.650520
vn -0.650520 0.391980 0.650520
vn -0.650520 0.391980 0.650520
vn -0.650520 0.391980 0.650520
vn -0.650520 0.391980 0.650520
vn -0.650520 0.391980 -0.650520
vn -0.650520 0.391980 -0.650520
vn -0.650520 0.391980 -0.650520
vn -0.650520 0.391980 -0.650520
vn -0.650520 0.391980 -0.650520
vn -0.650520 0.391980 -0.650520
vn 0.000000 1.000000 0.000000
vn 0.000000 1.000000 0.000000
vn 0.000000 1.000000 0.000000
vn 0.000000 1.000000 0.000000
vn 0.000000 1.000000 0.000000
vn 0.000000 1.000000 0.000000
vn 0.000000 1.000000 0.000000
vn 0.000000 1.000000 0.000000
vn 0.000000 1.000000 0.000000
vn 0.000000 1.000000 0.000000
vn 0.000000 1.000000 0.000000
vn 0.000000 1.000000 0.000000
vn 0.000000 1.000000 0.000000
vn 0.000000 1.000000 0.000000
vn 0.000000 1.000000 0.000000
vn 0.000000 1.000000 0.000000
vn 0.000000 1.000000 0.000000
vn 0.000000 1.000000 0.000000
vn 0.000000 0.000000 -1.000000
vn 0.000000 0.000000 -1.000000
vn 0.000000 0.000000 -1.000000
vn 0.000000 0.000000 -1.000000
vn 0.000000 0.000000 -1.000000
vn 0.000000 0.000000 -1.000000
vn 1.000000 0.000000 0.000000
vn 1.000000 0.000000 0.000000
vn 1.000000 0.000000 0.000000
vn 1.000000 0.000000 0.000000
vn 1.000000 0.000000 0.000000
vn 1.000000 0.000000 0.000000
vn 0.000000 0.000000 1.000000
vn 0.000000 0.000000 1.000000
vn 0.000000 0.000000 1.000000
vn 0.000000 0.000000 1.000000
vn 0.000000 0.000000 1.000000
vn 0.000000 0.000000 1.000000
vn -1.000000 0.000000 0.000000
vn -1.000000 0.000000 0.000000
vn -1.000000 0.000000 0.000000
vn -1.000000 0.000000 0.000000
vn -1.000000 0.000000 0.000000
vn -1.000000 0.000000 0.000000
vn 0.000000 0.000000 -1.000000
vn 0.000000 0.000000 -1.000000
vn 0.000000 0.000000 -1.000000
vn 0.000000 0.000000 -1.000000
vn 0.000000 0.000000 -1.000000
vn 0.000000 0.000000 -1.000000
vn 1.000000 0.000000 0.000000
vn 1.000000 0.000000 0.000000
vn 1.000000 0.000000 0.000000
vn 1.000000 0.000000 0.000000
vn 1.000000 0.000000 0.000000
vn 1.000000 0.000000 0.000000
vn 0.000000 0.000000 1.000000
vn 0.000000 0.000000 1.000000
vn 0.000000 0.000000 1.000000
vn 0.000000 0.000000 1.000000
vn 0.000000 0.000000 1.000000
vn 0.000000 0.000000 1.000000
vn -1.000000 0.000000 0.000000
vn -1.000000 0.000000 0.000000
vn -1.000000 0.000000 0.000000
vn -1.000000 0.000000 0.000000
vn -1.000000 0.000000 0.000000
vn -1.000000 0.000000 0.000000
vn 0.000000 0.000000 -1.000000
vn 0.000000 0.000000 -1.000000
vn 0.000000 0.000000 -1.000000
vn 0.000000 0.000000 -1.000000
vn 0.000000 0.000000 -1.000000
vn 0.000000 0.000000 -1.000000
vn 1.000000 0.000000 0.000000
vn 1.000000 0.000000 0.000000
vn 1.000000 0.000000 0.000000
vn 1.000000 0.000000 0.000000
vn 1.000000 0.000000 0.000000
vn 1.000000 0.000000 0.000000
vn 0.000000 0.000000 1.000000
vn 0.000000 0.000000 1.000000
vn 0.000000 0.000000 1.000000
vn 0.000000 0.000000 1.000000
vn 0.000000 0.000000 1.000000
vn 0.000000 0.000000 1.000000
vn 0.000000 1.000000 0.000000
vn 0.000000 1.000000 0.000000
vn 0.000000 1.000000 0.000000
vn 0.000000 1.000000 0.000000
vn 0.000000 1.000000 0.000000
vn 0.000000 1.000000 0.000000
vn 0.071472 0.996866 -0.033911
vn 0.000000 1.000000 0.000000
vn 0.000000 1.000000 0.000000
vn 0.000000 1.000000 0.000000
vn 0.000000 1.000000 0.000000
vn 0.000000 1.000000 0.000000
vn 0.000000 1.000000 0.000000
vn 0.000000 1.000000 0.000000
vn 0.000000 1.000000 0.000000
vn 0.000000 1.000000 0.000000
vn 0.000000 1.000000 0.000000
vn 0.000000 1.000000 0.000000
vn 0.000000 1.000000 0.000000
vn 0.000000 1.000000 0.000000
vn 0.000000 1.000000 0.000000
vn 0.000000 1.000000 0.000000
vn 0.000000 1.000000 0.000000
vn 0.000000 1.000000 0.000000
vn 0.000000 1.000000 0.000000
vn 0.000000 1.000000 0.000000
vn 0.000000 1.000000 0.000000
vn 0.000000 1.000000 0.000000
vn 0.000000 1.000000 0.000000
vn 0.000000 1.000000 0.000000
vn 0.000000 1.000000 0.000000
vn 0.000000 1.000000 0.000000
vn 0.000000 1.000000 0.000000
vn 0.000000 1.000000 0.000000
vn 0.000000 1.000000 0.000000
vn 0.000000 1.000000 0.000000
vn 0.100969 0.462185 -0.881017
vn -0.070525 0.000000 -0.997510
vn -0.053466 0.048272 -0.997402
vn 0.071472 0.996866 -0.033911
vn 0.172020 0.979524 -0.104604
vn 0.230847 0.972965 -0.006926
vn -0.057247 -0.997835 0.032382
vn 0.000000 -1.000000 0.000000
vn -0.085538 -0.995858 0.030838
vn -0.085538 -0.995858 0.030838
vn -0.192047 -0.978962 0.068935
vn -0.057247 -0.997835 0.032382
vn -0.222565 -0.974598 0.024960
vn -0.192047 -0.978962 0.068935
vn -0.085538 -0.995858 0.030838
vn -0.955474 0.274932 0.107156
vn -0.955474 0.274932 0.107156
vn -0.955474 0.274932 0.107156
vn 0.975633 0.063813 -0.209925
vn 0.975633 0.063813 -0.209925
vn 0.975633 0.063813 -0.209925
vn -0.987849 -0.152562 0.029640
vn -0.987849 -0.152562 0.029640
vn -0.987849 -0.152562 0.029640
vn 0.975778 0.013544 -0.218343
vn 0.975778 0.013544 -0.218343
vn 0.975778 0.013544 -0.218343
vn 0.000000 -1.000000 0.000000
vn 0.000000 -1.000000 0.000000
vn 0.000000 -1.000000 0.000000
vn -0.053466 0.048272 -0.997402
vn 0.111814 0.489627 -0.864733
vn 0.100969 0.462185 -0.881017
vn 0.074738 0.994125 -0.078289
vn 0.172020 0.979524 -0.104604
vn 0.071472 0.996866 -0.033911
vn 0.000000 1.000000 0.000000
vn 0.000000 1.000000 0.000000
vn 0.000000 1.000000 0.000000
vn 0.000000 1.000000 0.000000
vn 0.071472 0.996866 -0.033911
vn 0.000000 1.000000 0.000000
vn 1.000000 0.000000 0.000000
vn 1.000000 0.000000 0.000000
vn 1.000000 0.000000 0.000000
vn 1.000000 0.000000 0.000000
vn 1.000000 0.000000 0.000000
vn 1.000000 0.000000 0.000000
vn 1.000000 0.000000 0.000000
vn 1.000000 0.000000 0.000000
vn 1.000000 0.000000 0.000000
vn 1.000000 0.000000 0.000000
vn 1.000000 0.000000 0.000000
vn 1.000000 0.000000 0.000000
# 216 normals

g object0
usemtl Material_0
f 1/1/1  2/2/2  3/3/3
f 10/10/10  11/11/11  12/12/12
f 13/13/13  14/14/14  15/15/15
f 16/16/16  17/17/17  18/18/18
f 19/19/19  20/20/20  21/21/21
f 22/22/22  23/23/23  24/24/24
f 25/25/25  26/26/26  27/27/27
f 28/28/28  29/29/29  30/30/30
f 31/31/31  32/32/32  33/33/33
f 34/34/34  35/35/35  36/36/36
f 37/37/37  38/38/38  39/39/39
f 40/40/40  41/41/41  42/42/42
f 43/43/43  44/44/44  45/45/45
f 46/46/46  47/47/47  48/48/48
f 49/49/49  50/50/50  51/51/51
f 52/52/52  53/53/53  54/54/54
f 55/55/55  56/56/56  57/57/57
f 58/58/58  59/59/59  60/60/60
f 61/61/61  62/62/62  63/63/63
f 64/64/64  65/65/65  66/66/66
f 67/67/67  68/68/68  69/69/69
f 70/70/70  71/71/71  72/72/72
f 73/73/73  74/74/74  75/75/75
f 76/76/76  77/77/77  78/78/78
f 79/79/79  80/80/80  81/81/81
f 82/82/82  83/83/83  84/84/84
f 85/85/85  86/86/86  87/87/87
f 88/88/88  89/89/89  90/90/90
f 91/91/91  92/92/92  93/93/93
f 94/94/94  95/95/95  96/96/96
f 97/97/97  98/98/98  99/99/99
f 100/100/100  101/101/101  102/102/102
f 103/103/103  104/104/104  105/105/105
f 106/106/106  107/107/107  108/108/108
f 109/109/109  110/110/110  111/111/111
f 112/112/112  113/113/113  114/114/114
f 115/115/115  116/116/116  117/117/117
f 118/118/118  119/119/119  120/120/120
f 121/121/121  122/122/122  123/123/123
f 124/124/124  125/125/125  126/126/126
f 127/127/127  128/128/128  129/129/129
f 130/130/130  131/131/131  132/132/132
f 133/133/133  134/134/134  135/135/135
f 136/136/136  137/137/137  138/138/138
f 139/139/139  140/140/140  141/141/141
f 142/142/142  143/143/143  144/144/144
f 145/145/145  146/146/146  147/147/147
f 148/148/148  149/149/149  150/150/150
f 151/151/151  152/152/152  153/153/153
f 154/154/154  155/155/155  156/156/156
f 157/157/157  158/158/158  159/159/159
f 160/160/160  161/161/161  162/162/162
f 163/163/163  164/164/164  165/165/165
f 166/166/166  167/167/167  168/168/168
f 169/169/169  170/170/170  171/171/171
f 172/172/172  173/173/173  174/174/174
f 175/175/175  176/176/176  177/177/177
f 178/178/178  179/179/179  180/180/180
f 181/181/181  182/182/182  183/183/183
f 184/184/184  185/185/185  186/186/186
f 187/187/187  188/188/188  189/189/189
f 190/190/190  191/191/191  192/192/192
f 193/193/193  194/194/194  195/195/195
f 196/196/196  197/197/197  198/198/198
f 199/199/199  200/200/200  201/201/201
f 202/202/202  203/203/203  204/204/204
f 205/205/205  206/206/206  207/207/207
f 208/208/208  209/209/209  210/210/210
f 211/211/211  212/212/212  213/213/213
f 214/214/214  215/215/215  216/216/216
f 4/4/4  5/5/5  6/6/6
f 7/7/7  8/8/8  9/9/9
# 72 polygons in group

# 72 polygons total
