# Wavefront OBJ exported by IMDeditor

mtllib garbage03.mtl

v    -0.121581 -0.037150 0.144080
v    -0.088284 -0.012351 0.144080
v    -0.088284 -0.012351 -0.080842
v    -0.035681 0.012754 0.130412
v    -0.035681 0.000864 -0.080842
v    -0.088284 -0.012351 -0.080842
v    -0.088284 -0.012351 -0.080842
v    -0.088284 -0.012351 0.144080
v    -0.035681 0.012754 0.130412
v    -0.035681 0.012754 0.130412
v     0.010359 0.015940 0.064116
v    -0.035681 0.000864 -0.080842
v     0.010359 0.015940 0.064116
v     0.022426 0.008194 0.144080
v     0.070469 -0.024809 0.144080
v     0.070469 -0.024809 0.144080
v     0.116838 -0.053440 -0.080842
v     0.070469 -0.024809 -0.080842
v     0.070469 -0.024809 -0.080842
v     0.028981 0.010602 -0.065241
v     0.010359 0.015940 0.064116
v     0.070469 -0.024809 0.144080
v     0.070469 -0.024809 -0.080842
v     0.010359 0.015940 0.064116
v    -0.035681 0.012754 0.130412
v     0.022426 0.008194 0.144080
v     0.010359 0.015940 0.064116
v     0.010359 0.015940 0.064116
v     0.000929 -0.000846 -0.080842
v    -0.035681 0.000864 -0.080842
v    -0.088284 -0.012351 -0.080842
v    -0.130586 -0.040330 -0.065696
v    -0.121581 -0.037150 0.144080
v     0.070469 -0.024809 0.144080
v     0.095574 -0.077411 0.144080
v     0.116838 -0.053440 -0.080842
v    -0.121581 -0.037150 0.144080
v    -0.088284 -0.012351 0.144080
v    -0.088284 -0.012351 -0.080842
v    -0.035681 0.012754 0.130412
v    -0.035681 0.000864 -0.080842
v    -0.088284 -0.012351 -0.080842
v    -0.088284 -0.012351 -0.080842
v    -0.088284 -0.012351 0.144080
v    -0.035681 0.012754 0.130412
v    -0.035681 0.012754 0.130412
v     0.010359 0.015940 0.064116
v    -0.035681 0.000864 -0.080842
v     0.010359 0.015940 0.064116
v     0.022426 0.008194 0.144080
v     0.070469 -0.024809 0.144080
v     0.070469 -0.024809 0.144080
v     0.116838 -0.053440 -0.080842
v     0.070469 -0.024809 -0.080842
v     0.070469 -0.024809 -0.080842
v     0.028981 0.010602 -0.065241
v     0.010359 0.015940 0.064116
v     0.070469 -0.024809 0.144080
v     0.070469 -0.024809 -0.080842
v     0.010359 0.015940 0.064116
v    -0.035681 0.012754 0.130412
v     0.022426 0.008194 0.144080
v     0.010359 0.015940 0.064116
v     0.010359 0.015940 0.064116
v     0.000929 -0.000846 -0.080842
v    -0.035681 0.000864 -0.080842
v    -0.088284 -0.012351 -0.080842
v    -0.130586 -0.040330 -0.065696
v    -0.121581 -0.037150 0.144080
v     0.070469 -0.024809 0.144080
v     0.095574 -0.077411 0.144080
v     0.116838 -0.053440 -0.080842
# 72 vertices

vt 0.879263 0.989297
vt 0.895808 0.989282
vt 0.895808 0.899661
vt 0.918937 0.983899
vt 0.917301 0.899602
vt 0.895808 0.899661
vt 0.895808 0.899661
vt 0.895808 0.989282
vt 0.918937 0.983899
vt 0.918937 0.983899
vt 0.936977 0.957246
vt 0.917301 0.899602
vt 0.936977 0.957246
vt 0.942202 0.989198
vt 0.965426 0.989558
vt 0.965426 0.989558
vt 0.988483 0.900264
vt 0.966794 0.899927
vt 0.966794 0.899927
vt 0.944944 0.905733
vt 0.936977 0.957246
vt 0.965426 0.989558
vt 0.966794 0.899927
vt 0.936977 0.957246
vt 0.918937 0.983899
vt 0.942202 0.989198
vt 0.936977 0.957246
vt 0.936977 0.957246
vt 0.931901 0.899192
vt 0.917301 0.899602
vt 0.895808 0.899661
vt 0.875628 0.905697
vt 0.879263 0.989297
vt 0.965426 0.989558
vt 0.988620 0.990805
vt 0.988483 0.900264
vt 0.879263 0.989297
vt 0.895808 0.989282
vt 0.895808 0.899661
vt 0.918937 0.983899
vt 0.917301 0.899602
vt 0.895808 0.899661
vt 0.895808 0.899661
vt 0.895808 0.989282
vt 0.918937 0.983899
vt 0.918937 0.983899
vt 0.936977 0.957246
vt 0.917301 0.899602
vt 0.936977 0.957246
vt 0.942202 0.989198
vt 0.965426 0.989558
vt 0.965426 0.989558
vt 0.988483 0.900264
vt 0.966794 0.899927
vt 0.966794 0.899927
vt 0.944944 0.905733
vt 0.936977 0.957246
vt 0.965426 0.989558
vt 0.966794 0.899927
vt 0.936977 0.957246
vt 0.918937 0.983899
vt 0.942202 0.989198
vt 0.936977 0.957246
vt 0.936977 0.957246
vt 0.931901 0.899192
vt 0.917301 0.899602
vt 0.895808 0.899661
vt 0.875628 0.905697
vt 0.879263 0.989297
vt 0.965426 0.989558
vt 0.988620 0.990805
vt 0.988483 0.900264
# 72 texture coordinates

vn -0.590652 0.806925 0.001528
vn -0.523070 0.852290 0.000000
vn -0.406715 0.913313 -0.021038
vn -0.212006 0.977131 0.016379
vn -0.118945 0.989603 -0.080854
vn -0.406715 0.913313 -0.021038
vn -0.406715 0.913313 -0.021038
vn -0.523070 0.852290 0.000000
vn -0.212006 0.977131 0.016379
vn -0.212006 0.977131 0.016379
vn 0.238145 0.971156 -0.011932
vn -0.118945 0.989603 -0.080854
vn 0.238145 0.971156 -0.011932
vn 0.374249 0.926730 0.033291
vn 0.730421 0.680638 0.056721
vn 0.730421 0.680638 0.056721
vn 0.598091 0.801144 0.021320
vn 0.572577 0.819637 0.018751
vn 0.572577 0.819637 0.018751
vn 0.661758 0.746943 0.064444
vn 0.238145 0.971156 -0.011932
vn 0.730421 0.680638 0.056721
vn 0.572577 0.819637 0.018751
vn 0.238145 0.971156 -0.011932
vn -0.212006 0.977131 0.016379
vn 0.374249 0.926730 0.033291
vn 0.238145 0.971156 -0.011932
vn 0.238145 0.971156 -0.011932
vn 0.046327 0.991947 -0.117879
vn -0.118945 0.989603 -0.080854
vn -0.406715 0.913313 -0.021038
vn -0.548901 0.835816 0.010894
vn -0.590652 0.806925 0.001528
vn 0.730421 0.680638 0.056721
vn 0.894815 0.427057 0.130111
vn 0.598091 0.801144 0.021320
vn 0.590652 -0.806925 -0.001528
vn 0.523070 -0.852290 -0.000000
vn 0.406715 -0.913313 0.021038
vn 0.212006 -0.977131 -0.016379
vn 0.118945 -0.989603 0.080854
vn 0.406715 -0.913313 0.021038
vn 0.406715 -0.913313 0.021038
vn 0.523070 -0.852290 -0.000000
vn 0.212006 -0.977131 -0.016379
vn 0.212006 -0.977131 -0.016379
vn -0.238145 -0.971156 0.011932
vn 0.118945 -0.989603 0.080854
vn -0.238145 -0.971156 0.011932
vn -0.374249 -0.926730 -0.033291
vn -0.730421 -0.680638 -0.056721
vn -0.730421 -0.680638 -0.056721
vn -0.598091 -0.801144 -0.021320
vn -0.572577 -0.819637 -0.018751
vn -0.572577 -0.819637 -0.018751
vn -0.661758 -0.746943 -0.064444
vn -0.238145 -0.971156 0.011932
vn -0.730421 -0.680638 -0.056721
vn -0.572577 -0.819637 -0.018751
vn -0.238145 -0.971156 0.011932
vn 0.212006 -0.977131 -0.016379
vn -0.374249 -0.926730 -0.033291
vn -0.238145 -0.971156 0.011932
vn -0.238145 -0.971156 0.011932
vn -0.046327 -0.991947 0.117879
vn 0.118945 -0.989603 0.080854
vn 0.406715 -0.913313 0.021038
vn 0.548901 -0.835816 -0.010894
vn 0.590652 -0.806925 -0.001528
vn -0.730421 -0.680638 -0.056721
vn -0.894815 -0.427057 -0.130111
vn -0.598091 -0.801144 -0.021320
# 72 normals

g object0
usemtl Material_0
f 1/1/1  2/2/2  3/3/3
f 4/4/4  5/5/5  6/6/6
f 7/7/7  8/8/8  9/9/9
f 10/10/10  11/11/11  12/12/12
f 13/13/13  14/14/14  15/15/15
f 16/16/16  17/17/17  18/18/18
f 19/19/19  20/20/20  21/21/21
f 22/22/22  23/23/23  24/24/24
f 25/25/25  26/26/26  27/27/27
f 28/28/28  29/29/29  30/30/30
f 31/31/31  32/32/32  33/33/33
f 34/34/34  35/35/35  36/36/36
f 37/37/37  39/39/39  38/38/38
f 40/40/40  42/42/42  41/41/41
f 43/43/43  45/45/45  44/44/44
f 46/46/46  48/48/48  47/47/47
f 49/49/49  51/51/51  50/50/50
f 52/52/52  54/54/54  53/53/53
f 55/55/55  57/57/57  56/56/56
f 58/58/58  60/60/60  59/59/59
f 61/61/61  63/63/63  62/62/62
f 64/64/64  66/66/66  65/65/65
f 67/67/67  69/69/69  68/68/68
f 70/70/70  72/72/72  71/71/71
# 24 polygons in group

# 24 polygons total
