# Wavefront OBJ exported by IMDeditor

mtllib garbage16.mtl

v     0.022950 -0.006987 -0.075959
v     0.029365 -0.005553 -0.075959
v     0.028950 -0.003913 -0.007303
v     0.028950 -0.003913 -0.007303
v     0.022625 -0.005707 -0.007303
v     0.022950 -0.006987 -0.075959
v     0.022625 -0.005707 -0.007303
v     0.028950 -0.003913 -0.007303
v     0.029687 -0.007214 0.039179
v     0.029687 -0.007214 0.039179
v     0.023201 -0.008283 0.039179
v     0.022625 -0.005707 -0.007303
v     0.023201 -0.008283 0.039179
v     0.029687 -0.007214 0.039179
v     0.029365 -0.005553 0.077594
v     0.029365 -0.005553 0.077594
v     0.022950 -0.006987 0.077594
v     0.023201 -0.008283 0.039179
v     0.029365 -0.005553 0.077594
v     0.021526 0.008870 0.077594
v     0.016833 0.004266 0.077594
v     0.016833 0.004266 0.077594
v     0.022950 -0.006987 0.077594
v     0.029365 -0.005553 0.077594
v    -0.020217 -0.000736 0.070330
v    -0.025963 0.002459 0.070330
v    -0.029311 -0.007075 0.054709
v    -0.029311 -0.007075 0.054709
v    -0.022830 -0.008174 0.054709
v    -0.020217 -0.000736 0.070330
v    -0.022830 -0.008174 0.054709
v    -0.029311 -0.007075 0.054709
v    -0.029400 -0.007632 -0.043266
v    -0.029400 -0.007632 -0.043266
v    -0.022899 -0.008609 -0.043266
v    -0.022830 -0.008174 0.054709
v    -0.022899 -0.008609 -0.043266
v    -0.029400 -0.007632 -0.043266
v    -0.029687 -0.010437 -0.077594
v    -0.029687 -0.010437 -0.077594
v    -0.023123 -0.010797 -0.077594
v    -0.022899 -0.008609 -0.043266
v    -0.029687 -0.010437 -0.077594
v    -0.019094 0.010797 -0.077129
v    -0.014858 0.005770 -0.077129
v    -0.014858 0.005770 -0.077129
v    -0.023123 -0.010797 -0.077594
v    -0.029687 -0.010437 -0.077594
v    -0.020217 -0.000736 0.070330
v    -0.022830 -0.008174 0.054709
v    -0.022899 -0.008609 -0.043266
v    -0.014858 0.005770 -0.077129
v    -0.014858 0.005770 0.070330
v    -0.020217 -0.000736 0.070330
v    -0.014858 0.005770 -0.077129
v    -0.020217 -0.000736 0.070330
v    -0.022899 -0.008609 -0.043266
v    -0.023123 -0.010797 -0.077594
v    -0.014858 0.005770 -0.077129
v    -0.022899 -0.008609 -0.043266
v    -0.019094 0.010797 -0.077129
v    -0.029687 -0.010437 -0.077594
v    -0.029400 -0.007632 -0.043266
v    -0.025963 0.002459 0.070330
v    -0.019094 0.010797 0.070330
v    -0.019094 0.010797 -0.077129
v    -0.025963 0.002459 0.070330
v    -0.019094 0.010797 -0.077129
v    -0.029400 -0.007632 -0.043266
v    -0.029311 -0.007075 0.054709
v    -0.025963 0.002459 0.070330
v    -0.029400 -0.007632 -0.043266
v    -0.019094 0.010797 0.070330
v    -0.025963 0.002459 0.070330
v    -0.020217 -0.000736 0.070330
v    -0.020217 -0.000736 0.070330
v    -0.014858 0.005770 0.070330
v    -0.019094 0.010797 0.070330
v    -0.019094 0.010797 -0.077129
v     0.021526 0.008870 -0.076276
v     0.016833 0.004266 -0.076276
v     0.016833 0.004266 -0.076276
v    -0.014858 0.005770 -0.077129
v    -0.019094 0.010797 -0.077129
v    -0.014858 0.005770 -0.077129
v     0.016833 0.004266 -0.076276
v     0.016833 0.004266 0.077594
v     0.016833 0.004266 0.077594
v    -0.014858 0.005770 0.070330
v    -0.014858 0.005770 -0.077129
v    -0.019094 0.010797 0.070330
v     0.021526 0.008870 0.077594
v     0.021526 0.008870 -0.076276
v     0.021526 0.008870 -0.076276
v    -0.019094 0.010797 -0.077129
v    -0.019094 0.010797 0.070330
v     0.021526 0.008870 0.077594
v    -0.019094 0.010797 0.070330
v    -0.014858 0.005770 0.070330
v    -0.014858 0.005770 0.070330
v     0.016833 0.004266 0.077594
v     0.021526 0.008870 0.077594
v     0.021526 0.008870 -0.076276
v     0.029365 -0.005553 -0.075959
v     0.022950 -0.006987 -0.075959
v     0.022950 -0.006987 -0.075959
v     0.016833 0.004266 -0.076276
v     0.021526 0.008870 -0.076276
v     0.023201 -0.008283 0.039179
v     0.022950 -0.006987 0.077594
v     0.016833 0.004266 0.077594
v     0.022625 -0.005707 -0.007303
v     0.023201 -0.008283 0.039179
v     0.016833 0.004266 0.077594
v     0.022950 -0.006987 -0.075959
v     0.022625 -0.005707 -0.007303
v     0.016833 0.004266 0.077594
v     0.016833 0.004266 -0.076276
v     0.022950 -0.006987 -0.075959
v     0.016833 0.004266 0.077594
v     0.028950 -0.003913 -0.007303
v     0.029365 -0.005553 -0.075959
v     0.021526 0.008870 -0.076276
v     0.029365 -0.005553 0.077594
v     0.029687 -0.007214 0.039179
v     0.028950 -0.003913 -0.007303
v     0.029365 -0.005553 0.077594
v     0.028950 -0.003913 -0.007303
v     0.021526 0.008870 -0.076276
v     0.021526 0.008870 0.077594
v     0.029365 -0.005553 0.077594
v     0.021526 0.008870 -0.076276
# 132 vertices

vt 0.311028 0.636191
vt 0.310957 0.644638
vt 0.399243 0.645323
vt 0.399243 0.645323
vt 0.399303 0.636879
vt 0.311028 0.636191
vt 0.399303 0.636879
vt 0.399243 0.645323
vt 0.459156 0.645532
vt 0.459156 0.645532
vt 0.459154 0.637089
vt 0.399303 0.636879
vt 0.459154 0.637089
vt 0.459156 0.645532
vt 0.508588 0.645475
vt 0.508588 0.645475
vt 0.508568 0.637027
vt 0.459154 0.637089
vt 0.760090 0.296407
vt 0.776665 0.326775
vt 0.786515 0.317110
vt 0.786515 0.317110
vt 0.773618 0.293384
vt 0.760090 0.296407
vt 0.866576 0.307544
vt 0.878491 0.314481
vt 0.895180 0.279028
vt 0.895180 0.279028
vt 0.882330 0.274242
vt 0.866576 0.307544
vt 0.133855 0.717600
vt 0.133339 0.725930
vt 0.255981 0.725348
vt 0.255981 0.725348
vt 0.256434 0.717145
vt 0.133855 0.717600
vt 0.256434 0.717145
vt 0.255981 0.725348
vt 0.298995 0.727572
vt 0.298995 0.727572
vt 0.299389 0.719370
vt 0.256434 0.717145
vt 0.303399 0.382758
vt 0.327295 0.430641
vt 0.336844 0.419305
vt 0.336844 0.419305
vt 0.318199 0.381942
vt 0.303399 0.382758
vt 0.114300 0.707905
vt 0.133855 0.717600
vt 0.256434 0.717145
vt 0.298638 0.696250
vt 0.114244 0.697530
vt 0.114300 0.707905
vt 0.298638 0.696250
vt 0.114300 0.707905
vt 0.256434 0.717145
vt 0.299389 0.719370
vt 0.298638 0.696250
vt 0.256434 0.717145
vt 0.310634 0.718034
vt 0.310510 0.748509
vt 0.354595 0.744476
vt 0.500414 0.728656
vt 0.500174 0.714987
vt 0.310634 0.718034
vt 0.500414 0.728656
vt 0.310634 0.718034
vt 0.354595 0.744476
vt 0.480517 0.741771
vt 0.500414 0.728656
vt 0.354595 0.744476
vt 0.863689 0.331762
vt 0.878491 0.314481
vt 0.866576 0.307544
vt 0.866576 0.307544
vt 0.855008 0.321036
vt 0.863689 0.331762
vt 0.327295 0.430641
vt 0.418895 0.426316
vt 0.408315 0.415939
vt 0.408315 0.415939
vt 0.336844 0.419305
vt 0.327295 0.430641
vt 0.298638 0.696250
vt 0.297300 0.656583
vt 0.104885 0.657918
vt 0.104885 0.657918
vt 0.114244 0.697530
vt 0.298638 0.696250
vt 0.500174 0.714987
vt 0.508676 0.662565
vt 0.310890 0.665745
vt 0.310890 0.665745
vt 0.310634 0.718034
vt 0.500174 0.714987
vt 0.776665 0.326775
vt 0.863689 0.331762
vt 0.855008 0.321036
vt 0.855008 0.321036
vt 0.786515 0.317110
vt 0.776665 0.326775
vt 0.418895 0.426316
vt 0.436576 0.393814
vt 0.422112 0.390584
vt 0.422112 0.390584
vt 0.408315 0.415939
vt 0.418895 0.426316
vt 0.152800 0.639996
vt 0.104774 0.641902
vt 0.104885 0.657918
vt 0.210949 0.642765
vt 0.152800 0.639996
vt 0.104885 0.657918
vt 0.296792 0.640570
vt 0.210949 0.642765
vt 0.104885 0.657918
vt 0.297300 0.656583
vt 0.296792 0.640570
vt 0.104885 0.657918
vt 0.399243 0.645323
vt 0.310957 0.644638
vt 0.310890 0.665745
vt 0.508337 0.641465
vt 0.458925 0.640186
vt 0.399243 0.645323
vt 0.508337 0.641465
vt 0.399243 0.645323
vt 0.310890 0.665745
vt 0.508676 0.662565
vt 0.508337 0.641465
vt 0.310890 0.665745
# 132 texture coordinates

vn 0.221408 -0.974878 0.024302
vn 0.218056 -0.975625 0.024629
vn 0.269604 -0.962773 0.019548
vn 0.269604 -0.962773 0.019548
vn 0.272914 -0.961847 0.019218
vn 0.221408 -0.974878 0.024302
vn 0.262599 -0.962283 -0.071093
vn 0.272246 -0.959495 -0.072468
vn 0.172245 -0.983342 -0.058048
vn 0.172245 -0.983342 -0.058048
vn 0.162322 -0.985113 -0.056598
vn 0.262599 -0.962283 -0.071093
vn 0.168439 -0.984776 0.042954
vn 0.162426 -0.985740 0.043988
vn 0.212032 -0.976622 0.035380
vn 0.212032 -0.976622 0.035380
vn 0.217994 -0.975346 0.034332
vn 0.168439 -0.984776 0.042954
vn 0.000000 0.000000 1.000000
vn -0.081764 0.062358 0.994699
vn -0.116912 0.119162 0.985968
vn -0.116912 0.119162 0.985968
vn 0.000000 0.000000 1.000000
vn 0.000000 0.000000 1.000000
vn -0.358092 -0.773811 0.522482
vn -0.409800 -0.736912 0.537611
vn -0.212297 -0.856186 0.471036
vn -0.212297 -0.856186 0.471036
vn -0.149731 -0.882730 0.445385
vn -0.358092 -0.773811 0.522482
vn -0.166438 -0.986035 0.005703
vn -0.167231 -0.985901 0.005757
vn -0.149404 -0.988766 0.004546
vn -0.149404 -0.988766 0.004546
vn -0.148608 -0.988886 0.004492
vn -0.166438 -0.986035 0.005703
vn -0.136985 -0.987365 0.079662
vn -0.148112 -0.985585 0.081768
vn -0.065993 -0.995631 0.066064
vn -0.065993 -0.995631 0.066064
vn -0.054719 -0.996456 0.063879
vn -0.136985 -0.987365 0.079662
vn 0.005048 0.024077 -0.999697
vn 0.020637 0.014902 -0.999676
vn 0.021666 0.019940 -0.999566
vn 0.021666 0.019940 -0.999566
vn 0.001500 0.027321 -0.999626
vn 0.005048 0.024077 -0.999697
vn 0.820102 -0.572217 0.000890
vn 0.942964 -0.332894 0.000808
vn 0.887174 -0.461250 0.013071
vn 0.508736 -0.860845 0.011530
vn 0.374302 -0.927307 0.000000
vn 0.820102 -0.572217 0.000890
vn 0.508736 -0.860845 0.011530
vn 0.820102 -0.572217 0.000890
vn 0.887174 -0.461250 0.013071
vn 0.894331 -0.446833 0.022649
vn 0.508736 -0.860845 0.011530
vn 0.887174 -0.461250 0.013071
vn -0.886456 0.462223 -0.023366
vn -0.894183 0.446759 -0.029024
vn -0.887906 0.459704 -0.017201
vn -0.827774 0.561061 -0.001377
vn -0.771812 0.635851 -0.000000
vn -0.886456 0.462223 -0.023366
vn -0.827774 0.561061 -0.001377
vn -0.886456 0.462223 -0.023366
vn -0.887906 0.459704 -0.017201
vn -0.942964 0.332893 -0.001035
vn -0.827774 0.561061 -0.001377
vn -0.887906 0.459704 -0.017201
vn -0.068537 -0.057739 0.995976
vn 0.000000 0.000000 1.000000
vn 0.000000 0.000000 1.000000
vn 0.000000 0.000000 1.000000
vn -0.104605 -0.075316 0.991658
vn -0.068537 -0.057739 0.995976
vn 0.020637 0.014902 -0.999676
vn 0.016164 -0.019393 -0.999681
vn 0.019383 -0.018098 -0.999648
vn 0.019383 -0.018098 -0.999648
vn 0.021666 0.019940 -0.999566
vn 0.020637 0.014902 -0.999676
vn 0.508736 -0.860845 0.011530
vn -0.523477 -0.852040 0.000000
vn -0.570338 -0.821400 0.004062
vn -0.570338 -0.821400 0.004062
vn 0.374302 -0.927307 0.000000
vn 0.508736 -0.860845 0.011530
vn 0.047401 0.998876 0.000000
vn 0.047401 0.998876 0.000000
vn 0.047401 0.998876 0.000000
vn 0.047401 0.998876 0.000000
vn 0.047401 0.998876 0.000000
vn 0.047401 0.998876 0.000000
vn -0.081764 0.062358 0.994699
vn -0.068537 -0.057739 0.995976
vn -0.104605 -0.075316 0.991658
vn -0.104605 -0.075316 0.991658
vn -0.116912 0.119162 0.985968
vn -0.081764 0.062358 0.994699
vn 0.016164 -0.019393 -0.999681
vn 0.004380 -0.019596 -0.999798
vn 0.007393 -0.019325 -0.999786
vn 0.007393 -0.019325 -0.999786
vn 0.019383 -0.018098 -0.999648
vn 0.016164 -0.019393 -0.999681
vn -0.903549 -0.428371 -0.009843
vn -0.878551 -0.477537 0.010361
vn -0.570338 -0.821400 0.004062
vn -0.845560 -0.533857 0.005024
vn -0.903549 -0.428371 -0.009843
vn -0.570338 -0.821400 0.004062
vn -0.877159 -0.480200 0.000251
vn -0.845560 -0.533857 0.005024
vn -0.570338 -0.821400 0.004062
vn -0.523477 -0.852040 0.000000
vn -0.877159 -0.480200 0.000251
vn -0.570338 -0.821400 0.004062
vn 0.855335 0.518052 0.005022
vn 0.878638 0.477450 -0.006087
vn 0.876812 0.480808 -0.004853
vn 0.882505 0.470304 0.000294
vn 0.978192 0.207701 -0.000776
vn 0.855335 0.518052 0.005022
vn 0.882505 0.470304 0.000294
vn 0.855335 0.518052 0.005022
vn 0.876812 0.480808 -0.004853
vn 0.878598 0.477562 0.000000
vn 0.882505 0.470304 0.000294
vn 0.876812 0.480808 -0.004853
# 132 normals

g object0
usemtl Material_0
f 1/1/1  2/2/2  3/3/3
f 7/7/7  8/8/8  9/9/9
f 10/10/10  11/11/11  12/12/12
f 13/13/13  14/14/14  15/15/15
f 16/16/16  17/17/17  18/18/18
f 19/19/19  20/20/20  21/21/21
f 22/22/22  23/23/23  24/24/24
f 25/25/25  26/26/26  27/27/27
f 28/28/28  29/29/29  30/30/30
f 31/31/31  32/32/32  33/33/33
f 34/34/34  35/35/35  36/36/36
f 37/37/37  38/38/38  39/39/39
f 40/40/40  41/41/41  42/42/42
f 43/43/43  44/44/44  45/45/45
f 46/46/46  47/47/47  48/48/48
f 49/49/49  50/50/50  51/51/51
f 52/52/52  53/53/53  54/54/54
f 55/55/55  56/56/56  57/57/57
f 58/58/58  59/59/59  60/60/60
f 61/61/61  62/62/62  63/63/63
f 64/64/64  65/65/65  66/66/66
f 67/67/67  68/68/68  69/69/69
f 70/70/70  71/71/71  72/72/72
f 73/73/73  74/74/74  75/75/75
f 76/76/76  77/77/77  78/78/78
f 79/79/79  80/80/80  81/81/81
f 82/82/82  83/83/83  84/84/84
f 85/85/85  86/86/86  87/87/87
f 88/88/88  89/89/89  90/90/90
f 91/91/91  92/92/92  93/93/93
f 94/94/94  95/95/95  96/96/96
f 97/97/97  98/98/98  99/99/99
f 100/100/100  101/101/101  102/102/102
f 103/103/103  104/104/104  105/105/105
f 106/106/106  107/107/107  108/108/108
f 109/109/109  110/110/110  111/111/111
f 112/112/112  113/113/113  114/114/114
f 115/115/115  116/116/116  117/117/117
f 118/118/118  119/119/119  120/120/120
f 121/121/121  122/122/122  123/123/123
f 124/124/124  125/125/125  126/126/126
f 127/127/127  128/128/128  129/129/129
f 130/130/130  131/131/131  132/132/132
f 4/4/4  5/5/5  6/6/6
# 44 polygons in group

# 44 polygons total
