# Wavefront OBJ exported by IMDeditor

mtllib garbage11.mtl

v    -0.031412 0.014042 0.132368
v    -0.038717 -0.008004 -0.140284
v    -0.065717 -0.022633 0.142339
v    -0.038717 -0.008004 -0.140284
v    -0.031412 0.014042 0.132368
v    -0.000275 0.030287 0.126904
v     0.058353 0.019313 0.125039
v     0.065717 -0.030705 -0.142339
v     0.012197 -0.018747 -0.141027
v     0.012197 -0.018747 -0.141027
v     0.029694 0.030705 0.126041
v     0.058353 0.019313 0.125039
v    -0.000275 0.030287 0.126904
v     0.029694 0.030705 0.126041
v     0.012197 -0.018747 -0.141027
v     0.012197 -0.018747 -0.141027
v    -0.038717 -0.008004 -0.140284
v    -0.000275 0.030287 0.126904
v    -0.065717 -0.022633 0.142339
v    -0.050184 -0.018579 0.137008
v    -0.026435 0.006809 0.130093
v    -0.026435 0.006809 0.130093
v    -0.031412 0.014042 0.132368
v    -0.065717 -0.022633 0.142339
v    -0.031412 0.014042 0.132368
v    -0.026435 0.006809 0.130093
v     0.001831 0.021242 0.125212
v     0.001831 0.021242 0.125212
v    -0.000275 0.030287 0.126904
v    -0.031412 0.014042 0.132368
v    -0.000275 0.030287 0.126904
v     0.001831 0.021242 0.125212
v     0.028154 0.022623 0.124466
v     0.028154 0.022623 0.124466
v     0.029694 0.030705 0.126041
v    -0.000275 0.030287 0.126904
v     0.029694 0.030705 0.126041
v     0.028154 0.022623 0.124466
v     0.053025 0.011595 0.123577
v     0.053025 0.011595 0.123577
v     0.058353 0.019313 0.125039
v     0.029694 0.030705 0.126041
v     0.065717 -0.030705 -0.142339
v     0.058353 0.019313 0.125039
v     0.053025 0.011595 0.123577
v    -0.050184 -0.018579 0.137008
v    -0.065717 -0.022633 0.142339
v    -0.038717 -0.008004 -0.140284
v    -0.026435 0.006809 0.130093
v    -0.050184 -0.018579 0.137008
v    -0.038717 -0.008004 -0.140284
v    -0.038717 -0.008004 -0.140284
v     0.012197 -0.018747 -0.141027
v    -0.026435 0.006809 0.130093
v     0.012197 -0.018747 -0.141027
v     0.028154 0.022623 0.124466
v     0.001831 0.021242 0.125212
v     0.065717 -0.030705 -0.142339
v     0.053025 0.011595 0.123577
v     0.028154 0.022623 0.124466
v     0.012197 -0.018747 -0.141027
v     0.065717 -0.030705 -0.142339
v     0.028154 0.022623 0.124466
v     0.012197 -0.018747 -0.141027
v     0.001831 0.021242 0.125212
v    -0.026435 0.006809 0.130093
# 66 vertices

vt 0.648166 0.802326
vt 0.880368 0.793183
vt 0.641322 0.759389
vt 0.880368 0.793183
vt 0.648166 0.802326
vt 0.652153 0.832245
vt 0.656717 0.883295
vt 0.887797 0.883442
vt 0.883657 0.837113
vt 0.883657 0.837113
vt 0.653438 0.857425
vt 0.656717 0.883295
vt 0.652153 0.832245
vt 0.653438 0.857425
vt 0.883657 0.837113
vt 0.883657 0.837113
vt 0.880341 0.793187
vt 0.652153 0.832245
vt 0.926123 0.164175
vt 0.929382 0.178722
vt 0.951311 0.200968
vt 0.951311 0.200968
vt 0.957803 0.196304
vt 0.926123 0.164175
vt 0.957803 0.196304
vt 0.951311 0.200968
vt 0.963863 0.226331
vt 0.963863 0.226331
vt 0.971922 0.224266
vt 0.957803 0.196304
vt 0.971922 0.224266
vt 0.963863 0.226331
vt 0.965544 0.249510
vt 0.965544 0.249510
vt 0.972834 0.250674
vt 0.971922 0.224266
vt 0.972834 0.250674
vt 0.965544 0.249510
vt 0.956425 0.271627
vt 0.956425 0.271627
vt 0.963468 0.276137
vt 0.972834 0.250674
vt 0.887797 0.883442
vt 0.656717 0.883295
vt 0.659014 0.891021
vt 0.649025 0.747263
vt 0.641322 0.759389
vt 0.880368 0.793183
vt 0.320009 0.285708
vt 0.325371 0.258105
vt 0.105442 0.271432
vt 0.105442 0.271432
vt 0.103477 0.312671
vt 0.320009 0.285708
vt 0.103477 0.312671
vt 0.316148 0.331922
vt 0.317213 0.311029
vt 0.099586 0.356015
vt 0.313418 0.353343
vt 0.316148 0.331922
vt 0.103477 0.312671
vt 0.099586 0.356015
vt 0.316148 0.331922
vt 0.103477 0.312671
vt 0.317213 0.311029
vt 0.320009 0.285708
# 66 texture coordinates

vn -0.619764 0.783396 -0.046739
vn 0.061558 0.986021 -0.154831
vn -0.734599 0.677592 -0.035107
vn 0.061558 0.986021 -0.154831
vn -0.619764 0.783396 -0.046739
vn -0.227924 0.965481 -0.126080
vn 0.339733 0.920990 -0.190682
vn 0.210658 0.961923 -0.174146
vn 0.203754 0.963783 -0.172066
vn 0.203754 0.963783 -0.172066
vn 0.171986 0.966555 -0.190242
vn 0.339733 0.920990 -0.190682
vn -0.227924 0.965481 -0.126080
vn 0.171986 0.966555 -0.190242
vn 0.203754 0.963783 -0.172066
vn 0.203754 0.963783 -0.172066
vn 0.061558 0.986021 -0.154831
vn -0.227924 0.965481 -0.126080
vn 0.338373 -0.060922 0.939038
vn 0.338065 -0.060451 0.939179
vn 0.288521 -0.100783 0.952155
vn 0.288521 -0.100783 0.952155
vn 0.288455 -0.099482 0.952311
vn 0.338373 -0.060922 0.939038
vn 0.288455 -0.099482 0.952311
vn 0.288521 -0.100783 0.952155
vn 0.137647 -0.152133 0.978728
vn 0.137647 -0.152133 0.978728
vn 0.135993 -0.153611 0.978729
vn 0.288455 -0.099482 0.952311
vn 0.135993 -0.153611 0.978729
vn 0.137647 -0.152133 0.978728
vn -0.006919 -0.187987 0.982147
vn -0.006919 -0.187987 0.982147
vn -0.005804 -0.187915 0.982168
vn 0.135993 -0.153611 0.978729
vn -0.005804 -0.187915 0.982168
vn -0.006919 -0.187987 0.982147
vn -0.033517 -0.167955 0.985225
vn -0.033517 -0.167955 0.985225
vn -0.031234 -0.165237 0.985759
vn -0.005804 -0.187915 0.982168
vn 0.804152 -0.579892 0.130630
vn 0.804152 -0.579892 0.130630
vn 0.804152 -0.579892 0.130630
vn 0.243804 -0.969452 -0.026888
vn 0.243804 -0.969452 -0.026888
vn 0.243804 -0.969452 -0.026888
vn 0.730834 -0.682542 0.004194
vn 0.730834 -0.682542 0.004194
vn 0.730834 -0.682542 0.004194
vn -0.205166 -0.976708 0.062830
vn -0.205166 -0.976708 0.062830
vn -0.205166 -0.976708 0.062830
vn 0.056028 -0.987031 0.150435
vn 0.056028 -0.987031 0.150435
vn 0.056028 -0.987031 0.150435
vn -0.398376 -0.908593 0.125521
vn -0.398376 -0.908593 0.125521
vn -0.398376 -0.908593 0.125521
vn -0.211342 -0.963746 0.162877
vn -0.211342 -0.963746 0.162877
vn -0.211342 -0.963746 0.162877
vn 0.469995 -0.870006 0.148975
vn 0.469995 -0.870006 0.148975
vn 0.469995 -0.870006 0.148975
# 66 normals

g object0
usemtl Material_0
f 1/1/1  2/2/2  3/3/3
f 4/4/4  5/5/5  6/6/6
f 7/7/7  8/8/8  9/9/9
f 10/10/10  11/11/11  12/12/12
f 13/13/13  14/14/14  15/15/15
f 16/16/16  17/17/17  18/18/18
f 19/19/19  20/20/20  21/21/21
f 22/22/22  23/23/23  24/24/24
f 25/25/25  26/26/26  27/27/27
f 28/28/28  29/29/29  30/30/30
f 31/31/31  32/32/32  33/33/33
f 34/34/34  35/35/35  36/36/36
f 37/37/37  38/38/38  39/39/39
f 40/40/40  41/41/41  42/42/42
f 43/43/43  44/44/44  45/45/45
f 46/46/46  47/47/47  48/48/48
f 49/49/49  50/50/50  51/51/51
f 52/52/52  53/53/53  54/54/54
f 55/55/55  56/56/56  57/57/57
f 58/58/58  59/59/59  60/60/60
f 61/61/61  62/62/62  63/63/63
f 64/64/64  65/65/65  66/66/66
# 22 polygons in group

# 22 polygons total
