# Wavefront OBJ exported by IMDeditor

mtllib garbage02.mtl

v    -0.081705 0.047372 0.107613
v    -0.047172 0.081905 0.107613
v    -0.047172 0.081905 -0.080842
v     0.000000 0.094545 0.107613
v     0.000000 0.094545 -0.080842
v    -0.047172 0.081905 -0.080842
v    -0.047172 0.081905 -0.080842
v    -0.047172 0.081905 0.107613
v     0.000000 0.094545 0.107613
v     0.000000 0.094545 0.107613
v     0.047172 0.065745 0.008862
v     0.000000 0.094545 -0.080842
v     0.047172 0.065745 0.008862
v     0.047172 0.081905 0.107613
v     0.081705 0.047372 0.107613
v     0.094345 0.000200 0.107613
v     0.094345 0.000200 -0.080842
v     0.081705 0.047372 -0.080842
v     0.081705 0.047372 -0.080842
v     0.081705 0.047372 0.107613
v     0.094345 0.000200 0.107613
v     0.081705 0.047372 -0.080842
v     0.047172 0.074201 -0.080842
v     0.047172 0.065745 0.008862
v     0.081705 0.047372 0.107613
v     0.081705 0.047372 -0.080842
v     0.047172 0.065745 0.008862
v     0.000000 0.094545 0.107613
v     0.047172 0.081905 0.107613
v     0.047172 0.065745 0.008862
v     0.047172 0.065745 0.008862
v     0.047172 0.074201 -0.080842
v     0.000000 0.094545 -0.080842
v    -0.047172 0.081905 -0.080842
v    -0.095279 0.061394 -0.068151
v    -0.081705 0.047372 0.107613
v    -0.081705 0.047372 0.107613
v    -0.047172 0.081905 0.107613
v    -0.047172 0.081905 -0.080842
v     0.000000 0.094545 0.107613
v     0.000000 0.094545 -0.080842
v    -0.047172 0.081905 -0.080842
v    -0.047172 0.081905 -0.080842
v    -0.047172 0.081905 0.107613
v     0.000000 0.094545 0.107613
v     0.000000 0.094545 0.107613
v     0.047172 0.065745 0.008862
v     0.000000 0.094545 -0.080842
v     0.047172 0.065745 0.008862
v     0.047172 0.081905 0.107613
v     0.081705 0.047372 0.107613
v     0.094345 0.000200 0.107613
v     0.094345 0.000200 -0.080842
v     0.081705 0.047372 -0.080842
v     0.081705 0.047372 -0.080842
v     0.081705 0.047372 0.107613
v     0.094345 0.000200 0.107613
v     0.081705 0.047372 -0.080842
v     0.047172 0.074201 -0.080842
v     0.047172 0.065745 0.008862
v     0.081705 0.047372 0.107613
v     0.081705 0.047372 -0.080842
v     0.047172 0.065745 0.008862
v     0.000000 0.094545 0.107613
v     0.047172 0.081905 0.107613
v     0.047172 0.065745 0.008862
v     0.047172 0.065745 0.008862
v     0.047172 0.074201 -0.080842
v     0.000000 0.094545 -0.080842
v    -0.047172 0.081905 -0.080842
v    -0.095279 0.061394 -0.068151
v    -0.081705 0.047372 0.107613
# 72 vertices

vt 0.867621 0.110412
vt 0.891808 0.110412
vt 0.891808 0.017078
vt 0.915994 0.110412
vt 0.915994 0.017078
vt 0.891808 0.017078
vt 0.891808 0.017078
vt 0.891808 0.110412
vt 0.915994 0.110412
vt 0.915994 0.110412
vt 0.943366 0.061505
vt 0.915994 0.017078
vt 0.943366 0.061505
vt 0.938164 0.110788
vt 0.962349 0.110564
vt 0.986534 0.110756
vt 0.987276 0.017426
vt 0.963091 0.017234
vt 0.963091 0.017234
vt 0.962349 0.110564
vt 0.986534 0.110756
vt 0.963091 0.017234
vt 0.941436 0.016923
vt 0.943366 0.061505
vt 0.962349 0.110564
vt 0.963091 0.017234
vt 0.943366 0.061505
vt 0.915994 0.110412
vt 0.940174 0.110959
vt 0.943366 0.061505
vt 0.943366 0.061505
vt 0.941436 0.016923
vt 0.915994 0.017078
vt 0.891808 0.017078
vt 0.865788 0.022848
vt 0.867621 0.110412
vt 0.867621 0.110412
vt 0.891808 0.110412
vt 0.891808 0.017078
vt 0.915994 0.110412
vt 0.915994 0.017078
vt 0.891808 0.017078
vt 0.891808 0.017078
vt 0.891808 0.110412
vt 0.915994 0.110412
vt 0.915994 0.110412
vt 0.943366 0.061505
vt 0.915994 0.017078
vt 0.943366 0.061505
vt 0.938164 0.110788
vt 0.962349 0.110564
vt 0.986534 0.110756
vt 0.987276 0.017426
vt 0.963091 0.017234
vt 0.963091 0.017234
vt 0.962349 0.110564
vt 0.986534 0.110756
vt 0.963091 0.017234
vt 0.941436 0.016923
vt 0.943366 0.061505
vt 0.962349 0.110564
vt 0.963091 0.017234
vt 0.943366 0.061505
vt 0.915994 0.110412
vt 0.940174 0.110959
vt 0.943366 0.061505
vt 0.943366 0.061505
vt 0.941436 0.016923
vt 0.915994 0.017078
vt 0.891808 0.017078
vt 0.865788 0.022848
vt 0.867621 0.110412
# 72 texture coordinates

vn -0.656661 0.753975 0.017832
vn -0.500000 0.866025 0.000000
vn -0.342414 0.938746 0.038838
vn 0.045502 0.997366 -0.056482
vn 0.097053 0.994826 0.030045
vn -0.342414 0.938746 0.038838
vn -0.342414 0.938746 0.038838
vn -0.500000 0.866025 0.000000
vn 0.045502 0.997366 -0.056482
vn 0.045502 0.997366 -0.056482
vn 0.497429 0.867474 -0.007320
vn 0.097053 0.994826 0.030045
vn 0.497429 0.867474 -0.007320
vn 0.483898 0.863638 -0.141324
vn 0.847171 0.529297 -0.046331
vn 0.965926 0.258819 0.000000
vn 0.965926 0.258819 0.000000
vn 0.820289 0.571199 0.029294
vn 0.820289 0.571199 0.029294
vn 0.847171 0.529297 -0.046331
vn 0.965926 0.258819 0.000000
vn 0.820289 0.571199 0.029294
vn 0.503893 0.859954 0.081065
vn 0.497429 0.867474 -0.007320
vn 0.847171 0.529297 -0.046331
vn 0.820289 0.571199 0.029294
vn 0.497429 0.867474 -0.007320
vn 0.045502 0.997366 -0.056482
vn 0.483898 0.863638 -0.141324
vn 0.497429 0.867474 -0.007320
vn 0.497429 0.867474 -0.007320
vn 0.503893 0.859954 0.081065
vn 0.097053 0.994826 0.030045
vn -0.342414 0.938746 0.038838
vn -0.367235 0.924506 0.102114
vn -0.656661 0.753975 0.017832
vn 0.656661 -0.753975 -0.017832
vn 0.500000 -0.866025 -0.000000
vn 0.342414 -0.938746 -0.038838
vn -0.045502 -0.997366 0.056482
vn -0.097053 -0.994826 -0.030045
vn 0.342414 -0.938746 -0.038838
vn 0.342414 -0.938746 -0.038838
vn 0.500000 -0.866025 -0.000000
vn -0.045502 -0.997366 0.056482
vn -0.045502 -0.997366 0.056482
vn -0.497429 -0.867474 0.007320
vn -0.097053 -0.994826 -0.030045
vn -0.497429 -0.867474 0.007320
vn -0.483898 -0.863638 0.141324
vn -0.847171 -0.529297 0.046331
vn -0.965926 -0.258819 -0.000000
vn -0.965926 -0.258819 -0.000000
vn -0.820289 -0.571199 -0.029294
vn -0.820289 -0.571199 -0.029294
vn -0.847171 -0.529297 0.046331
vn -0.965926 -0.258819 -0.000000
vn -0.820289 -0.571199 -0.029294
vn -0.503893 -0.859954 -0.081065
vn -0.497429 -0.867474 0.007320
vn -0.847171 -0.529297 0.046331
vn -0.820289 -0.571199 -0.029294
vn -0.497429 -0.867474 0.007320
vn -0.045502 -0.997366 0.056482
vn -0.483898 -0.863638 0.141324
vn -0.497429 -0.867474 0.007320
vn -0.497429 -0.867474 0.007320
vn -0.503893 -0.859954 -0.081065
vn -0.097053 -0.994826 -0.030045
vn 0.342414 -0.938746 -0.038838
vn 0.367235 -0.924506 -0.102114
vn 0.656661 -0.753975 -0.017832
# 72 normals

g object0
usemtl Material_0
f 1/1/1  2/2/2  3/3/3
f 4/4/4  5/5/5  6/6/6
f 7/7/7  8/8/8  9/9/9
f 10/10/10  11/11/11  12/12/12
f 13/13/13  14/14/14  15/15/15
f 16/16/16  17/17/17  18/18/18
f 19/19/19  20/20/20  21/21/21
f 22/22/22  23/23/23  24/24/24
f 25/25/25  26/26/26  27/27/27
f 28/28/28  29/29/29  30/30/30
f 31/31/31  32/32/32  33/33/33
f 34/34/34  35/35/35  36/36/36
f 37/37/37  39/39/39  38/38/38
f 40/40/40  42/42/42  41/41/41
f 43/43/43  45/45/45  44/44/44
f 46/46/46  48/48/48  47/47/47
f 49/49/49  51/51/51  50/50/50
f 52/52/52  54/54/54  53/53/53
f 55/55/55  57/57/57  56/56/56
f 58/58/58  60/60/60  59/59/59
f 61/61/61  63/63/63  62/62/62
f 64/64/64  66/66/66  65/65/65
f 67/67/67  69/69/69  68/68/68
f 70/70/70  72/72/72  71/71/71
# 24 polygons in group

# 24 polygons total
