# Wavefront OBJ exported by IMDeditor

mtllib h_rocket.mtl

v    -0.009350 0.016905 0.212479
v    -0.018961 0.000259 0.212479
v    -0.011378 0.000259 0.223666
v     0.009871 0.016905 0.212479
v    -0.009350 0.016905 0.212479
v    -0.005559 0.010338 0.223666
v     0.019481 0.000259 0.212479
v     0.009871 0.016905 0.212479
v     0.006079 0.010338 0.223666
v     0.009871 -0.016387 0.212479
v     0.019481 0.000259 0.212479
v     0.011898 0.000259 0.223666
v    -0.009350 -0.016387 0.212479
v     0.009871 -0.016387 0.212479
v     0.006079 -0.009820 0.223666
v    -0.018961 0.000259 0.212479
v    -0.009350 -0.016387 0.212479
v    -0.005559 -0.009820 0.223666
v    -0.009350 0.016905 0.155707
v    -0.018961 0.000259 0.155707
v    -0.018961 0.000259 0.212479
v    -0.009350 0.016905 0.212479
v    -0.009350 0.016905 0.155707
v    -0.018961 0.000259 0.212479
v     0.009871 0.016905 0.155707
v    -0.009350 0.016905 0.155707
v    -0.009350 0.016905 0.212479
v     0.009871 0.016905 0.212479
v     0.009871 0.016905 0.155707
v    -0.009350 0.016905 0.212479
v     0.019481 0.000259 0.155707
v     0.009871 0.016905 0.155707
v     0.009871 0.016905 0.212479
v     0.019481 0.000259 0.212479
v     0.019481 0.000259 0.155707
v     0.009871 0.016905 0.212479
v     0.009871 -0.016387 0.155707
v     0.019481 0.000259 0.155707
v     0.019481 0.000259 0.212479
v     0.009871 -0.016387 0.212479
v     0.009871 -0.016387 0.155707
v     0.019481 0.000259 0.212479
v    -0.009350 -0.016387 0.155707
v     0.009871 -0.016387 0.155707
v     0.009871 -0.016387 0.212479
v    -0.009350 -0.016387 0.212479
v    -0.009350 -0.016387 0.155707
v     0.009871 -0.016387 0.212479
v    -0.018961 0.000259 0.155707
v    -0.009350 -0.016387 0.155707
v    -0.009350 -0.016387 0.212479
v    -0.018961 0.000259 0.212479
v    -0.018961 0.000259 0.155707
v    -0.009350 -0.016387 0.212479
v    -0.005506 0.010247 0.124954
v    -0.011273 0.000259 0.124954
v    -0.018961 0.000259 0.155707
v    -0.009350 0.016905 0.155707
v    -0.005506 0.010247 0.124954
v    -0.018961 0.000259 0.155707
v     0.011793 0.000259 0.124954
v     0.006026 0.010247 0.124954
v     0.009871 0.016905 0.155707
v     0.019481 0.000259 0.155707
v     0.011793 0.000259 0.124954
v     0.009871 0.016905 0.155707
v    -0.005506 -0.009728 0.124954
v     0.006026 -0.009728 0.124954
v     0.009871 -0.016387 0.155707
v    -0.009350 -0.016387 0.155707
v    -0.005506 -0.009728 0.124954
v     0.009871 -0.016387 0.155707
v    -0.005506 0.010247 -0.012657
v    -0.011273 0.000259 -0.012657
v    -0.011273 0.000259 0.124954
v    -0.005506 0.010247 0.124954
v    -0.005506 0.010247 -0.012657
v    -0.011273 0.000259 0.124954
v     0.006026 0.010247 -0.012657
v    -0.005506 0.010247 -0.012657
v    -0.005506 0.010247 0.124954
v     0.006026 0.010247 0.124954
v     0.006026 0.010247 -0.012657
v    -0.005506 0.010247 0.124954
v     0.011793 0.000259 -0.012657
v     0.006026 0.010247 -0.012657
v     0.006026 0.010247 0.124954
v     0.011793 0.000259 0.124954
v     0.011793 0.000259 -0.012657
v     0.006026 0.010247 0.124954
v     0.006026 -0.009728 -0.012657
v     0.011793 0.000259 -0.012657
v     0.011793 0.000259 0.124954
v     0.006026 -0.009728 0.124954
v     0.011793 0.000259 0.124954
v    -0.005506 -0.009728 -0.012657
v     0.006026 -0.009728 -0.012657
v     0.006026 -0.009728 0.124954
v    -0.005506 -0.009728 0.124954
v    -0.005506 -0.009728 -0.012657
v     0.006026 -0.009728 0.124954
v    -0.011273 0.000259 -0.012657
v    -0.005506 -0.009728 -0.012657
v    -0.005506 -0.009728 0.124954
v    -0.011273 0.000259 0.124954
v    -0.005506 -0.009728 0.124954
v     0.002402 0.003969 0.227313
v    -0.001882 0.003969 0.227313
v    -0.004024 0.000259 0.227313
v     0.004544 0.000259 0.227313
v     0.002402 0.003969 0.227313
v    -0.004024 0.000259 0.227313
v     0.002402 -0.003451 0.227313
v     0.004544 0.000259 0.227313
v    -0.004024 0.000259 0.227313
v    -0.001882 -0.003451 0.227313
v     0.002402 -0.003451 0.227313
v    -0.004024 0.000259 0.227313
v    -0.009350 0.016905 0.212479
v    -0.011378 0.000259 0.223666
v    -0.005559 0.010338 0.223666
v     0.009871 0.016905 0.212479
v    -0.005559 0.010338 0.223666
v     0.006079 0.010338 0.223666
v     0.019481 0.000259 0.212479
v     0.006079 0.010338 0.223666
v     0.011898 0.000259 0.223666
v     0.009871 -0.016387 0.212479
v     0.011898 0.000259 0.223666
v     0.006079 -0.009820 0.223666
v    -0.009350 -0.016387 0.212479
v     0.006079 -0.009820 0.223666
v    -0.005559 -0.009820 0.223666
v    -0.018961 0.000259 0.212479
v    -0.005559 -0.009820 0.223666
v    -0.011378 0.000259 0.223666
v    -0.001882 0.003969 0.227313
v    -0.011378 0.000259 0.223666
v    -0.004024 0.000259 0.227313
v    -0.005559 0.010338 0.223666
v     0.002402 0.003969 0.227313
v     0.006079 0.010338 0.223666
v     0.004544 0.000259 0.227313
v     0.011898 0.000259 0.223666
v     0.002402 -0.003451 0.227313
v     0.006079 -0.009820 0.223666
v    -0.001882 -0.003451 0.227313
v    -0.005559 -0.009820 0.223666
# 148 vertices

v     0.006026 0.010247 0.124954
v    -0.005506 0.010247 0.124954
v    -0.009350 0.016905 0.155707
v     0.009871 0.016905 0.155707
v     0.006026 0.010247 0.124954
v    -0.009350 0.016905 0.155707
v     0.006026 -0.009728 0.124954
v     0.011793 0.000259 0.124954
v     0.019481 0.000259 0.155707
v     0.009871 -0.016387 0.155707
v     0.006026 -0.009728 0.124954
v     0.019481 0.000259 0.155707
v    -0.011273 0.000259 0.124954
v    -0.005506 -0.009728 0.124954
v    -0.009350 -0.016387 0.155707
v    -0.018961 0.000259 0.155707
v    -0.011273 0.000259 0.124954
v    -0.009350 -0.016387 0.155707
v    -0.005506 0.010247 -0.012657
v     0.000260 0.000259 -0.009507
v    -0.011273 0.000259 -0.012657
v     0.006026 0.010247 -0.012657
v     0.000260 0.000259 -0.009507
v    -0.005506 0.010247 -0.012657
v     0.011793 0.000259 -0.012657
v     0.000260 0.000259 -0.009507
v     0.006026 0.010247 -0.012657
v     0.006026 -0.009728 -0.012657
v     0.000260 0.000259 -0.009507
v     0.011793 0.000259 -0.012657
v    -0.005506 -0.009728 -0.012657
v     0.000260 0.000259 -0.009507
v     0.006026 -0.009728 -0.012657
v    -0.011273 0.000259 -0.012657
v     0.000260 0.000259 -0.009507
v    -0.005506 -0.009728 -0.012657
# 36 vertices

vt 0.120397 0.006453
vt 0.005488 0.202734
vt 0.126713 0.197703
vt 0.359692 0.007403
vt 0.120397 0.006453
vt 0.181514 0.104095
vt 0.472000 0.213691
vt 0.359692 0.007403
vt 0.295635 0.104548
vt 0.363130 0.408463
vt 0.472000 0.213691
vt 0.349196 0.202928
vt 0.122325 0.409023
vt 0.363130 0.408463
vt 0.297274 0.295816
vt 0.005488 0.202734
vt 0.122325 0.409023
vt 0.182433 0.296083
vt 0.475113 0.665774
vt 0.475025 0.505199
vt -0.000475 0.505199
vt -0.000388 0.665774
vt 0.475113 0.665774
vt -0.000475 0.505199
vt 0.475113 0.829917
vt 0.475113 0.665774
vt -0.000388 0.665774
vt -0.000388 0.829917
vt 0.475113 0.829917
vt -0.000388 0.665774
vt 0.475025 0.994416
vt 0.475113 0.829917
vt -0.000388 0.829917
vt -0.000475 0.994416
vt 0.475025 0.994416
vt -0.000388 0.829917
vt 0.473753 0.831746
vt 0.473753 0.665304
vt -0.000204 0.665304
vt -0.000204 0.831746
vt 0.473753 0.831746
vt -0.000204 0.665304
vt 0.474954 0.664358
vt 0.474954 0.501811
vt 0.002067 0.501811
vt 0.002067 0.664358
vt 0.474954 0.664358
vt 0.002067 0.501811
vt 0.472843 0.830735
vt 0.472843 0.668844
vt 0.001684 0.668844
vt 0.001684 0.830735
vt 0.472843 0.830735
vt 0.001684 0.668844
vt 0.722426 0.631875
vt 0.722374 0.535531
vt 0.475025 0.505199
vt 0.475113 0.665774
vt 0.722426 0.631875
vt 0.475025 0.505199
vt 0.720411 0.960160
vt 0.720464 0.855965
vt 0.475113 0.829917
vt 0.475025 0.994416
vt 0.720411 0.960160
vt 0.475113 0.829917
vt 0.721314 0.633546
vt 0.721314 0.536017
vt 0.474954 0.501811
vt 0.474954 0.664358
vt 0.721314 0.633546
vt 0.474954 0.501811
vt 0.820087 0.003530
vt 0.729032 0.003530
vt 0.729032 1.003530
vt 0.820087 1.003530
vt 0.820087 0.003530
vt 0.729032 1.003530
vt 0.907152 0.003530
vt 0.820087 0.003530
vt 0.820087 1.003530
vt 0.907152 1.003530
vt 0.907152 0.003530
vt 0.820087 1.003530
vt 0.990060 0.003530
vt 0.907152 0.003530
vt 0.907152 1.003530
vt 0.990060 1.003530
vt 0.990060 0.003530
vt 0.907152 1.003530
vt 0.908212 0.000000
vt 0.807729 0.000000
vt 0.807730 1.000000
vt 0.908213 1.000000
vt 0.807730 1.000000
vt 0.825604 0.013768
vt 0.725121 0.013768
vt 0.725121 1.000000
vt 0.825604 1.000000
vt 0.825604 0.013768
vt 0.725121 1.000000
vt 0.908213 0.000000
vt 0.807729 0.000000
vt 0.807729 1.000000
vt 0.908212 1.000000
vt 0.807729 1.000000
vt 0.194676 0.199197
vt 0.214785 0.234026
vt 0.255001 0.234026
vt 0.214785 0.164369
vt 0.194676 0.199197
vt 0.255001 0.234026
vt 0.255001 0.164369
vt 0.214785 0.164369
vt 0.255001 0.234026
vt 0.275109 0.199197
vt 0.255001 0.164369
vt 0.255001 0.234026
vt 0.120397 0.006453
vt 0.126713 0.197703
vt 0.181514 0.104095
vt 0.359692 0.007403
vt 0.181514 0.104095
vt 0.295635 0.104548
vt 0.472000 0.213691
vt 0.295635 0.104548
vt 0.349196 0.202928
vt 0.363130 0.408463
vt 0.349196 0.202928
vt 0.297275 0.295816
vt 0.122325 0.409023
vt 0.297274 0.295816
vt 0.182433 0.296083
vt 0.005488 0.202734
vt 0.182433 0.296083
vt 0.126713 0.197703
vt 0.000000 0.000000
vt 0.000000 0.000000
vt 0.000000 0.000000
vt 0.000000 0.000000
vt 0.000000 0.000000
vt 0.000000 0.000000
vt 0.000000 0.000000
vt 0.000000 0.000000
vt 0.000000 0.000000
vt 0.000000 0.000000
vt 0.000000 0.000000
vt 0.000000 0.000000
# 148 texture coordinates

vt 0.722426 0.799051
vt 0.722426 0.694677
vt 0.475113 0.665774
vt 0.475113 0.829917
vt 0.722426 0.799051
vt 0.475113 0.665774
vt 0.726332 0.795847
vt 0.726332 0.695981
vt 0.473753 0.665304
vt 0.473753 0.831746
vt 0.726332 0.795847
vt 0.473753 0.665304
vt 0.722905 0.794431
vt 0.722905 0.697297
vt 0.472843 0.668844
vt 0.472843 0.830735
vt 0.722905 0.794431
vt 0.472843 0.668844
vt 0.722133 0.124903
vt 0.578378 0.122962
vt 0.649882 0.250545
vt 0.651864 0.005972
vt 0.578378 0.122962
vt 0.722133 0.124903
vt 0.505637 0.005268
vt 0.578378 0.122962
vt 0.651864 0.005972
vt 0.439567 0.122257
vt 0.578378 0.122962
vt 0.505637 0.005268
vt 0.503655 0.249840
vt 0.578378 0.122962
vt 0.439567 0.122257
vt 0.649882 0.250545
vt 0.578378 0.122962
vt 0.503655 0.249840
# 36 texture coordinates

vn -0.413886 0.716871 0.561065
vn -0.827772 0.000000 0.561065
vn -0.700000 0.000000 0.714143
vn 0.413886 0.716871 0.561065
vn -0.413886 0.716871 0.561065
vn -0.350000 0.606218 0.714142
vn 0.827772 -0.000000 0.561065
vn 0.413886 0.716871 0.561065
vn 0.350000 0.606218 0.714142
vn 0.413886 -0.716871 0.561065
vn 0.827772 -0.000000 0.561065
vn 0.700000 -0.000000 0.714142
vn -0.413886 -0.716871 0.561065
vn 0.413886 -0.716871 0.561065
vn 0.350000 -0.606218 0.714142
vn -0.827772 0.000000 0.561065
vn -0.413886 -0.716871 0.561065
vn -0.350000 -0.606218 0.714143
vn -0.500000 0.866026 0.000000
vn -1.000000 0.000000 0.000000
vn -1.000000 0.000000 0.000000
vn -0.500000 0.866026 0.000000
vn -0.500000 0.866026 0.000000
vn -1.000000 0.000000 0.000000
vn 0.500000 0.866025 0.000000
vn -0.500000 0.866026 0.000000
vn -0.500000 0.866026 0.000000
vn 0.500000 0.866025 0.000000
vn 0.500000 0.866025 0.000000
vn -0.500000 0.866026 0.000000
vn 1.000000 -0.000000 -0.000000
vn 0.500000 0.866025 0.000000
vn 0.500000 0.866025 0.000000
vn 1.000000 -0.000000 -0.000000
vn 1.000000 -0.000000 -0.000000
vn 0.500000 0.866025 0.000000
vn 0.500000 -0.866026 -0.000000
vn 1.000000 -0.000000 -0.000000
vn 1.000000 -0.000000 -0.000000
vn 0.500000 -0.866026 -0.000000
vn 0.500000 -0.866026 -0.000000
vn 1.000000 -0.000000 -0.000000
vn -0.500000 -0.866025 -0.000000
vn 0.500000 -0.866026 -0.000000
vn 0.500000 -0.866026 -0.000000
vn -0.500000 -0.866025 0.000000
vn -0.500000 -0.866025 -0.000000
vn 0.500000 -0.866026 -0.000000
vn -1.000000 0.000000 0.000000
vn -0.500000 -0.866025 -0.000000
vn -0.500000 -0.866025 0.000000
vn -1.000000 0.000000 0.000000
vn -1.000000 0.000000 0.000000
vn -0.500000 -0.866025 0.000000
vn -0.485071 0.840168 -0.242536
vn -0.970142 0.000000 -0.242536
vn -0.970142 0.000000 -0.242536
vn -0.485071 0.840168 -0.242536
vn -0.485071 0.840168 -0.242536
vn -0.970142 0.000000 -0.242536
vn 0.970142 -0.000000 -0.242536
vn 0.485071 0.840168 -0.242536
vn 0.485071 0.840168 -0.242536
vn 0.970142 -0.000000 -0.242536
vn 0.970142 -0.000000 -0.242536
vn 0.485071 0.840168 -0.242536
vn -0.485071 -0.840168 -0.242536
vn 0.485071 -0.840168 -0.242536
vn 0.485071 -0.840168 -0.242536
vn -0.485071 -0.840168 -0.242536
vn -0.485071 -0.840168 -0.242536
vn 0.485071 -0.840168 -0.242536
vn -0.500000 0.866026 0.000000
vn -1.000000 0.000000 0.000000
vn -1.000000 0.000000 0.000000
vn -0.500000 0.866025 0.000000
vn -0.500000 0.866026 0.000000
vn -1.000000 0.000000 0.000000
vn 0.500000 0.866025 0.000000
vn -0.500000 0.866026 0.000000
vn -0.500000 0.866025 0.000000
vn 0.500000 0.866025 0.000000
vn 0.500000 0.866025 0.000000
vn -0.500000 0.866025 0.000000
vn 1.000000 -0.000000 -0.000000
vn 0.500000 0.866025 0.000000
vn 0.500000 0.866025 0.000000
vn 1.000000 -0.000000 -0.000000
vn 1.000000 -0.000000 -0.000000
vn 0.500000 0.866025 0.000000
vn 0.500000 -0.866026 -0.000000
vn 1.000000 -0.000000 -0.000000
vn 1.000000 -0.000000 -0.000000
vn 0.500000 -0.866026 -0.000000
vn 1.000000 -0.000000 -0.000000
vn -0.500000 -0.866025 -0.000000
vn 0.500000 -0.866026 -0.000000
vn 0.500000 -0.866026 -0.000000
vn -0.500000 -0.866025 -0.000000
vn -0.500000 -0.866025 -0.000000
vn 0.500000 -0.866026 -0.000000
vn -1.000000 0.000000 0.000000
vn -0.500000 -0.866025 -0.000000
vn -0.500000 -0.866025 -0.000000
vn -1.000000 0.000000 0.000000
vn -0.500000 -0.866025 -0.000000
vn 0.148611 0.257402 0.954808
vn -0.148611 0.257402 0.954808
vn -0.297222 0.000000 0.954808
vn 0.297222 -0.000000 0.954808
vn 0.148611 0.257402 0.954808
vn -0.297222 0.000000 0.954808
vn 0.148611 -0.257402 0.954808
vn 0.297222 -0.000000 0.954808
vn -0.297222 0.000000 0.954808
vn -0.148611 -0.257402 0.954808
vn 0.148611 -0.257402 0.954808
vn -0.297222 0.000000 0.954808
vn -0.413886 0.716871 0.561065
vn -0.700000 0.000000 0.714143
vn -0.350000 0.606218 0.714142
vn 0.413886 0.716871 0.561065
vn -0.350000 0.606218 0.714142
vn 0.350000 0.606218 0.714142
vn 0.827772 -0.000000 0.561065
vn 0.350000 0.606218 0.714142
vn 0.700000 -0.000000 0.714142
vn 0.413886 -0.716871 0.561065
vn 0.700000 -0.000000 0.714142
vn 0.350000 -0.606218 0.714142
vn -0.413886 -0.716871 0.561065
vn 0.350000 -0.606218 0.714142
vn -0.350000 -0.606218 0.714143
vn -0.827772 0.000000 0.561065
vn -0.350000 -0.606218 0.714143
vn -0.700000 0.000000 0.714143
vn -0.148611 0.257402 0.954808
vn -0.700000 0.000000 0.714143
vn -0.297222 0.000000 0.954808
vn -0.350000 0.606218 0.714142
vn 0.148611 0.257402 0.954808
vn 0.350000 0.606218 0.714142
vn 0.297222 -0.000000 0.954808
vn 0.700000 -0.000000 0.714142
vn 0.148611 -0.257402 0.954808
vn 0.350000 -0.606218 0.714142
vn -0.148611 -0.257402 0.954808
vn -0.350000 -0.606218 0.714143
# 148 normals

vn 0.485071 0.840168 -0.242536
vn -0.485071 0.840168 -0.242536
vn -0.485071 0.840168 -0.242536
vn 0.485071 0.840168 -0.242536
vn 0.485071 0.840168 -0.242536
vn -0.485071 0.840168 -0.242536
vn 0.485071 -0.840168 -0.242536
vn 0.970142 -0.000000 -0.242536
vn 0.970142 -0.000000 -0.242536
vn 0.485071 -0.840168 -0.242536
vn 0.485071 -0.840168 -0.242536
vn 0.970142 -0.000000 -0.242536
vn -0.970142 0.000000 -0.242536
vn -0.485071 -0.840168 -0.242536
vn -0.485071 -0.840168 -0.242536
vn -0.970142 0.000000 -0.242536
vn -0.970142 0.000000 -0.242536
vn -0.485071 -0.840168 -0.242536
vn 0.131716 -0.228139 -0.964678
vn -0.000000 -0.000000 -1.000000
vn 0.263432 -0.000000 -0.964678
vn -0.131716 -0.228139 -0.964678
vn -0.000000 -0.000000 -1.000000
vn 0.131716 -0.228139 -0.964678
vn -0.263432 0.000000 -0.964678
vn -0.000000 -0.000000 -1.000000
vn -0.131716 -0.228139 -0.964678
vn -0.131716 0.228139 -0.964678
vn -0.000000 -0.000000 -1.000000
vn -0.263432 0.000000 -0.964678
vn 0.131716 0.228139 -0.964678
vn -0.000000 -0.000000 -1.000000
vn -0.131716 0.228139 -0.964678
vn 0.263432 -0.000000 -0.964678
vn -0.000000 -0.000000 -1.000000
vn 0.131716 0.228139 -0.964678
# 36 normals

g object0
usemtl Material_0
f 7/7/7  8/8/8  9/9/9
f 142/142/142  143/143/143  144/144/144
f 145/145/145  144/144/144  143/143/143
f 144/144/144  145/145/145  146/146/146
f 147/147/147  146/146/146  145/145/145
f 146/146/146  147/147/147  148/148/148
f 139/139/139  148/148/148  147/147/147
f 148/148/148  139/139/139  138/138/138
f 137/137/137  138/138/138  139/139/139
f 138/138/138  137/137/137  140/140/140
f 141/141/141  140/140/140  137/137/137
f 140/140/140  141/141/141  142/142/142
f 143/143/143  142/142/142  141/141/141
f 10/10/10  11/11/11  12/12/12
f 13/13/13  14/14/14  15/15/15
f 16/16/16  17/17/17  18/18/18
f 19/19/19  20/20/20  21/21/21
f 22/22/22  23/23/23  24/24/24
f 25/25/25  26/26/26  27/27/27
f 28/28/28  29/29/29  30/30/30
f 31/31/31  32/32/32  33/33/33
f 34/34/34  35/35/35  36/36/36
f 37/37/37  38/38/38  39/39/39
f 40/40/40  41/41/41  42/42/42
f 43/43/43  44/44/44  45/45/45
f 46/46/46  47/47/47  48/48/48
f 49/49/49  50/50/50  51/51/51
f 52/52/52  53/53/53  54/54/54
f 55/55/55  56/56/56  57/57/57
f 58/58/58  59/59/59  60/60/60
f 61/61/61  62/62/62  63/63/63
f 64/64/64  65/65/65  66/66/66
f 67/67/67  68/68/68  69/69/69
f 70/70/70  71/71/71  72/72/72
f 73/73/73  74/74/74  75/75/75
f 76/76/76  77/77/77  78/78/78
f 79/79/79  80/80/80  81/81/81
f 82/82/82  83/83/83  84/84/84
f 85/85/85  86/86/86  87/87/87
f 88/88/88  89/89/89  90/90/90
f 91/91/91  92/92/92  93/93/93
f 94/94/94  91/91/91  95/95/95
f 96/96/96  97/97/97  98/98/98
f 99/99/99  100/100/100  101/101/101
f 102/102/102  103/103/103  104/104/104
f 105/105/105  102/102/102  106/106/106
f 107/107/107  108/108/108  109/109/109
f 110/110/110  111/111/111  112/112/112
f 113/113/113  114/114/114  115/115/115
f 116/116/116  117/117/117  118/118/118
f 119/119/119  120/120/120  121/121/121
f 122/122/122  123/123/123  124/124/124
f 125/125/125  126/126/126  127/127/127
f 128/128/128  129/129/129  130/130/130
f 131/131/131  132/132/132  133/133/133
f 134/134/134  135/135/135  136/136/136
f 1/1/1  2/2/2  3/3/3
f 4/4/4  5/5/5  6/6/6
# 58 polygons in group

g object1
usemtl Material_1
f 149/149/149  150/150/150  151/151/151
f 152/152/152  153/153/153  154/154/154
f 155/155/155  156/156/156  157/157/157
f 158/158/158  159/159/159  160/160/160
f 161/161/161  162/162/162  163/163/163
f 164/164/164  165/165/165  166/166/166
f 167/167/167  168/168/168  169/169/169
f 170/170/170  171/171/171  172/172/172
f 173/173/173  174/174/174  175/175/175
f 176/176/176  177/177/177  178/178/178
f 179/179/179  180/180/180  181/181/181
f 182/182/182  183/183/183  184/184/184
# 12 polygons in group

# 70 polygons total
