# Wavefront OBJ exported by IMDeditor

mtllib linkor_destroyed.mtl

v    -0.052783 1.335160 -4.847258
v     0.047217 1.335160 -4.847258
v     0.047217 1.335160 -4.747258
v    -0.052783 1.335160 -4.747258
v    -0.052783 1.335160 -4.847258
v    -0.052783 1.435160 -4.847258
v    -0.052783 1.435160 -4.747258
v     0.047217 1.435160 -4.747258
v     0.047217 1.435160 -4.847258
v    -0.052783 1.435160 -4.847258
v    -0.052783 1.435160 -4.747258
v    -0.052783 1.335160 -4.747258
v     0.047217 1.335160 -4.747258
v     0.047217 1.435160 -4.747258
v    -0.052783 1.435160 -4.747258
v    -0.052783 1.435160 -4.847258
v    -0.052783 1.335160 -4.847258
v    -0.052783 1.335160 -4.747258
v    -0.052783 1.435160 -4.747258
v    -0.052783 1.435160 -4.847258
v     0.047217 1.435160 -4.847258
v     0.047217 1.335160 -4.847258
v    -0.052783 1.335160 -4.847258
v    -0.052783 1.435160 -4.847258
v     0.047217 1.435160 -4.847258
v     0.047217 1.435160 -4.747258
v     0.047217 1.335160 -4.747258
v     0.047217 1.335160 -4.847258
v     0.047217 1.435160 -4.847258
v     0.047217 1.435160 -4.747258
# 30 vertices

vt 0.000000 1.000000
vt 1.000000 1.000000
vt 1.000000 0.000000
vt 0.000000 0.000000
vt 0.000000 1.000000
vt 1.000000 1.000000
vt 1.000000 0.000000
vt 0.000000 0.000000
vt 0.000000 1.000000
vt 1.000000 1.000000
vt 1.000000 1.000000
vt 1.000000 0.000000
vt 0.000000 0.000000
vt 0.000000 1.000000
vt 1.000000 1.000000
vt 1.000000 1.000000
vt 1.000000 0.000000
vt 0.000000 0.000000
vt 0.000000 1.000000
vt 1.000000 1.000000
vt 1.000000 1.000000
vt 1.000000 0.000000
vt 0.000000 0.000000
vt 0.000000 1.000000
vt 1.000000 1.000000
vt 1.000000 1.000000
vt 1.000000 0.000000
vt 0.000000 0.000000
vt 0.000000 1.000000
vt 1.000000 1.000000
# 30 texture coordinates

vn 0.000000 -1.000000 0.000000
vn 0.000000 -1.000000 0.000000
vn 0.000000 -1.000000 0.000000
vn 0.000000 -1.000000 0.000000
vn 0.000000 -1.000000 0.000000
vn 0.000000 1.000000 0.000000
vn 0.000000 1.000000 0.000000
vn 0.000000 1.000000 0.000000
vn 0.000000 1.000000 0.000000
vn 0.000000 1.000000 0.000000
vn 0.000000 0.000000 1.000000
vn 0.000000 0.000000 1.000000
vn 0.000000 0.000000 1.000000
vn 0.000000 0.000000 1.000000
vn 0.000000 0.000000 1.000000
vn -1.000000 0.000000 0.000000
vn -1.000000 0.000000 0.000000
vn -1.000000 0.000000 0.000000
vn -1.000000 0.000000 0.000000
vn -1.000000 0.000000 0.000000
vn 0.000000 0.000000 -1.000000
vn 0.000000 0.000000 -1.000000
vn 0.000000 0.000000 -1.000000
vn 0.000000 0.000000 -1.000000
vn 0.000000 0.000000 -1.000000
vn 1.000000 0.000000 0.000000
vn 1.000000 0.000000 0.000000
vn 1.000000 0.000000 0.000000
vn 1.000000 0.000000 0.000000
vn 1.000000 0.000000 0.000000
# 30 normals

g object0
usemtl Material_0
f 1/1/1  2/2/2  3/3/3
f 3/3/3  4/4/4  5/5/5
f 6/6/6  7/7/7  8/8/8
f 8/8/8  9/9/9  10/10/10
f 11/11/11  12/12/12  13/13/13
f 13/13/13  14/14/14  15/15/15
f 16/16/16  17/17/17  18/18/18
f 18/18/18  19/19/19  20/20/20
f 21/21/21  22/22/22  23/23/23
f 23/23/23  24/24/24  25/25/25
f 26/26/26  27/27/27  28/28/28
f 28/28/28  29/29/29  30/30/30
# 12 polygons in group

# 12 polygons total
