# Wavefront OBJ exported by IMDeditor

mtllib ModuleStation-variant05_destroyed.mtl

v  -112.142754 -0.848016 -4.457367
v  -112.142754 -0.848016 -4.257368
v  -111.142754 -0.848016 -4.257368
v  -111.142754 -0.848016 -4.457367
v  -112.142754 -0.848016 -4.457367
# 5 vertices

v    38.173100 -5.433404 -2.655095
v    39.173100 -5.433404 -2.455096
v    39.173100 -5.433404 -2.655095
v    38.173100 -5.433404 -2.655095
v    38.173100 -5.433404 -2.455096
# 5 vertices

vt 1.000000 1.000000
vt 1.000000 0.000000
vt 0.000000 0.000000
vt 0.000000 1.000000
vt 1.000000 1.000000
# 5 texture coordinates

vt 1.000000 1.000000
vt 0.000000 0.000000
vt 0.000000 1.000000
vt 1.000000 1.000000
vt 1.000000 0.000000
# 5 texture coordinates

vn 0.000000 1.000000 0.000000
vn 0.000000 1.000000 0.000000
vn 0.000000 1.000000 0.000000
vn 0.000000 1.000000 0.000000
vn 0.000000 1.000000 0.000000
# 5 normals

vn 0.000000 1.000000 0.000000
vn 0.000000 1.000000 0.000000
vn 0.000000 1.000000 0.000000
vn 0.000000 1.000000 0.000000
vn 0.000000 1.000000 0.000000
# 5 normals

g object0
usemtl Material_0
f 1/1/1  2/2/2  3/3/3
f 3/3/3  4/4/4  5/5/5
# 2 polygons in group

g object1
usemtl Material_0
f 6/6/6  7/7/7  8/8/8
f 7/7/7  9/9/9  10/10/10
# 2 polygons in group

# 4 polygons total
