# Wavefront OBJ exported by IMDeditor

mtllib ModuleStation-variant02-3cargo_.mtl

v   -19.451189 -0.848016 -5.255579
v   -18.451189 -0.848016 -5.055579
v   -18.451189 -0.848016 -5.255579
v   -19.451189 -0.848016 -5.255579
v   -19.451189 -0.848016 -5.055579
# 5 vertices

vt 1.000000 1.000000
vt 0.000000 0.000000
vt 0.000000 1.000000
vt 1.000000 1.000000
vt 1.000000 0.000000
# 5 texture coordinates

vn 0.000000 1.000000 0.000000
vn 0.000000 1.000000 0.000000
vn 0.000000 1.000000 0.000000
vn 0.000000 1.000000 0.000000
vn 0.000000 1.000000 0.000000
# 5 normals

g object0
usemtl Material_0
f 1/1/1  2/2/2  3/3/3
f 2/2/2  4/4/4  5/5/5
# 2 polygons in group

# 2 polygons total
