# Wavefront OBJ exported by IMDeditor

mtllib ModuleStation_Lift.mtl

v    -0.759757 10.222713 0.569819
v    -0.759757 0.222713 0.569819
v     0.759757 0.222713 0.569819
v     0.759757 0.222713 0.569819
v     0.759756 10.222713 0.569819
v    -0.759757 10.222713 0.569819
v    -0.759757 10.222713 -0.569818
v    -0.759757 0.222713 -0.569818
v    -0.759757 0.222713 0.569819
v    -0.759757 0.222713 0.569819
v    -0.759757 10.222713 0.569819
v    -0.759757 10.222713 -0.569818
v     0.759756 10.222713 -0.569818
v     0.759757 0.222713 -0.569818
v    -0.759757 0.222713 -0.569818
v    -0.759757 0.222713 -0.569818
v    -0.759757 10.222713 -0.569818
v     0.759756 10.222713 -0.569818
v     0.759756 10.222713 0.569819
v     0.759757 0.222713 0.569819
v     0.759757 0.222713 -0.569818
v     0.759757 0.222713 -0.569818
v     0.759756 10.222713 -0.569818
v     0.759756 10.222713 0.569819
# 24 vertices

vt 0.702126 0.170795
vt 0.702126 0.041203
vt 0.687242 0.041203
vt 0.687242 0.041203
vt 0.687242 0.170795
vt 0.702126 0.170795
vt 0.702126 0.170795
vt 0.702126 0.041203
vt 0.687242 0.041203
vt 0.687242 0.041203
vt 0.687242 0.170795
vt 0.702126 0.170795
vt 0.702126 0.170795
vt 0.702126 0.041203
vt 0.687242 0.041203
vt 0.687242 0.041203
vt 0.687242 0.170795
vt 0.702126 0.170795
vt 0.702126 0.170795
vt 0.702126 0.041203
vt 0.687242 0.041203
vt 0.687242 0.041203
vt 0.687242 0.170795
vt 0.702126 0.170795
# 24 texture coordinates

vn -0.000000 -0.000000 1.000000
vn 0.000000 -0.000000 1.000000
vn -0.000000 -0.000000 1.000000
vn -0.000000 -0.000000 1.000000
vn -0.000000 -0.000000 1.000000
vn -0.000000 -0.000000 1.000000
vn -1.000000 -0.000000 0.000000
vn -1.000000 -0.000000 0.000000
vn -1.000000 -0.000000 0.000000
vn -1.000000 -0.000000 0.000000
vn -1.000000 -0.000000 0.000000
vn -1.000000 -0.000000 0.000000
vn 0.000000 0.000000 -1.000000
vn 0.000000 0.000000 -1.000000
vn 0.000000 0.000000 -1.000000
vn 0.000000 0.000000 -1.000000
vn 0.000000 0.000000 -1.000000
vn 0.000000 0.000000 -1.000000
vn 1.000000 0.000000 0.000000
vn 1.000000 0.000000 0.000000
vn 1.000000 0.000000 0.000000
vn 1.000000 0.000000 0.000000
vn 1.000000 0.000000 0.000000
vn 1.000000 0.000000 0.000000
# 24 normals

g object0
usemtl Material_0
f 1/1/1  2/2/2  3/3/3
f 4/4/4  5/5/5  6/6/6
f 7/7/7  8/8/8  9/9/9
f 10/10/10  11/11/11  12/12/12
f 13/13/13  14/14/14  15/15/15
f 16/16/16  17/17/17  18/18/18
f 19/19/19  20/20/20  21/21/21
f 22/22/22  23/23/23  24/24/24
# 8 polygons in group

# 8 polygons total
