# Wavefront OBJ exported by IMDeditor

mtllib ModuleStation-variant07_destroyed.mtl

v    65.402885 -18.250435 -10.959372
v    66.402885 -18.250435 -10.759371
v    66.402885 -18.250435 -10.959372
v    65.402885 -18.250435 -10.959372
v    65.402885 -18.250435 -10.759371
# 5 vertices

vt 1.000000 1.000000
vt 0.000000 0.000000
vt 0.000000 1.000000
vt 1.000000 1.000000
vt 1.000000 0.000000
# 5 texture coordinates

vn 0.000000 1.000000 0.000000
vn 0.000000 1.000000 0.000000
vn 0.000000 1.000000 0.000000
vn 0.000000 1.000000 0.000000
vn 0.000000 1.000000 0.000000
# 5 normals

g object0
usemtl Material_0
f 1/1/1  2/2/2  3/3/3
f 2/2/2  4/4/4  5/5/5
# 2 polygons in group

# 2 polygons total
