# Wavefront OBJ exported by IMDeditor

mtllib ModuleStation_Neon.mtl

v    -5.499997 11.040586 -0.000001
v    -5.499997 0.040586 -0.000001
v     5.500004 0.040586 -0.000001
v     5.500004 0.040586 -0.000001
v     5.500004 11.040586 -0.000001
v    -5.499997 11.040586 -0.000001
v    -5.499997 11.040586 -0.000001
v    -5.499997 0.040586 -0.000001
v     5.500004 0.040586 -0.000001
v     5.500004 0.040586 -0.000001
v     5.500004 11.040586 -0.000001
v    -5.499997 11.040586 -0.000001
# 12 vertices

vt 0.999501 0.999500
vt 0.999500 0.000500
vt 0.000500 0.000500
vt 0.000500 0.000500
vt 0.000500 0.999501
vt 0.999501 0.999500
vt 0.999501 0.999500
vt 0.999500 0.000500
vt 0.000500 0.000500
vt 0.000500 0.000500
vt 0.000500 0.999501
vt 0.999501 0.999500
# 12 texture coordinates

vn 0.000000 -0.000000 1.000000
vn 0.000000 -0.000000 1.000000
vn 0.000000 -0.000000 1.000000
vn 0.000000 -0.000000 1.000000
vn 0.000000 -0.000000 1.000000
vn 0.000000 -0.000000 1.000000
vn -0.000000 0.000000 -1.000000
vn -0.000000 0.000000 -1.000000
vn -0.000000 0.000000 -1.000000
vn -0.000000 0.000000 -1.000000
vn -0.000000 0.000000 -1.000000
vn -0.000000 0.000000 -1.000000
# 12 normals

g object0
usemtl Material_0
f 1/1/1  2/2/2  3/3/3
f 4/4/4  5/5/5  6/6/6
f 7/7/7  9/9/9  8/8/8
f 10/10/10  12/12/12  11/11/11
# 4 polygons in group

# 4 polygons total
