# Wavefront OBJ exported by IMDeditor

mtllib ModuleStation-variant01-2cargo.mtl

v   -39.748482 -0.848016 -7.751050
v   -38.748482 -0.848016 -7.551051
v   -38.748482 -0.848016 -7.751050
v   -39.748482 -0.848016 -7.751050
v   -39.748482 -0.848016 -7.551051
# 5 vertices

vt 1.000000 1.000000
vt 0.000000 0.000000
vt 0.000000 1.000000
vt 1.000000 1.000000
vt 1.000000 0.000000
# 5 texture coordinates

vn 0.000000 1.000000 0.000000
vn 0.000000 1.000000 0.000000
vn 0.000000 1.000000 0.000000
vn 0.000000 1.000000 0.000000
vn 0.000000 1.000000 0.000000
# 5 normals

g object0
usemtl Material_0
f 1/1/1  2/2/2  3/3/3
f 2/2/2  4/4/4  5/5/5
# 2 polygons in group

# 2 polygons total
