# Wavefront OBJ exported by IMDeditor

mtllib p_station_destroyed_obj1.mtl

v     0.157223 -9.829421 12.378290
v     0.157220 -6.999243 12.378290
v    -0.157085 -6.999243 12.378290
v    -0.157085 -6.999243 12.378290
v    -0.157083 -9.829421 12.378290
v     0.157223 -9.829421 12.378290
v    -0.157085 -10.206693 6.108279
v     0.157221 -10.213485 5.995382
v     0.157223 -9.829421 12.378290
v     0.157223 -9.829421 12.378290
v    -0.157083 -9.829421 12.378290
v    -0.157085 -10.206693 6.108279
v    -0.157085 -7.451508 6.447433
v    -0.157083 -9.829421 12.378290
v    -0.157085 -6.999243 12.378290
v    -0.157085 -9.815454 5.677141
v    -0.157083 -9.829421 12.378290
v    -0.157085 -7.451508 6.447433
v    -0.157085 -7.451508 6.447433
v    -0.157085 -6.999243 12.378290
v    -0.157085 -6.567304 5.199711
v    -0.157085 -6.567304 5.199711
v    -0.157085 -7.069892 5.087299
v    -0.157085 -7.451508 6.447433
v    -0.157085 -10.206693 6.108279
v    -0.157083 -9.829421 12.378290
v    -0.157085 -9.815454 5.677141
v    -0.157085 -6.999243 12.378290
v     0.157220 -6.999243 12.378290
v     0.157220 -6.580619 5.421026
v     0.157220 -6.580619 5.421026
v    -0.157085 -6.567304 5.199711
v    -0.157085 -6.999243 12.378290
v     0.157222 -8.600088 7.319984
v     0.157220 -6.999243 12.378290
v     0.157223 -9.829421 12.378290
v     0.157222 -8.600088 7.319984
v     0.157220 -6.580619 5.421026
v     0.157220 -6.999243 12.378290
v     0.157222 -8.600088 7.319984
v     0.157223 -9.829421 12.378290
v     0.157221 -10.213485 5.995382
v     0.157220 -6.580619 5.421026
v     0.157222 -8.600088 7.319984
v    -0.157085 -7.451508 6.447433
# 45 vertices

v     0.157220 -6.580619 5.421026
v    -0.157085 -7.069892 5.087299
v    -0.157085 -6.567304 5.199711
v     0.157220 -6.580619 5.421026
v    -0.157085 -7.451508 6.447433
v    -0.157085 -7.069892 5.087299
v     0.157221 -10.213485 5.995382
v    -0.157085 -10.206693 6.108279
v    -0.157085 -9.815454 5.677141
v    -0.157085 -9.815454 5.677141
v    -0.157085 -7.451508 6.447433
v     0.157221 -10.213485 5.995382
v     0.157222 -8.600088 7.319984
v     0.157221 -10.213485 5.995382
v    -0.157085 -7.451508 6.447433
# 15 vertices

vt 0.431846 0.101974
vt 0.431847 0.210084
vt 0.442431 0.210084
vt 0.442431 0.210084
vt 0.442431 0.101974
vt 0.431846 0.101974
vt 0.320041 0.184192
vt 0.313746 0.180606
vt 0.313557 0.404886
vt 0.313557 0.404886
vt 0.320006 0.404320
vt 0.320041 0.184192
vt 0.393722 0.720855
vt 0.288772 0.456973
vt 0.413593 0.456973
vt 0.289183 0.755127
vt 0.288772 0.456973
vt 0.393722 0.720855
vt 0.393722 0.720855
vt 0.413593 0.456973
vt 0.432911 0.776370
vt 0.432911 0.776370
vt 0.410657 0.781371
vt 0.393722 0.720855
vt 0.271899 0.735945
vt 0.288772 0.456973
vt 0.289183 0.755127
vt 0.320058 0.067211
vt 0.313839 0.067493
vt 0.313636 0.311955
vt 0.313636 0.311955
vt 0.320021 0.319237
vt 0.320058 0.067211
vt 0.342884 0.682487
vt 0.412896 0.457851
vt 0.288334 0.457851
vt 0.342884 0.682487
vt 0.432158 0.766818
vt 0.412896 0.457851
vt 0.342884 0.682487
vt 0.288334 0.457851
vt 0.271430 0.741311
vt 0.085965 0.739931
vt 0.159650 0.695753
vt 0.115961 0.709344
# 45 texture coordinates

vt -0.164101 1.365904
vt -0.197284 1.329208
vt -0.192465 1.366903
vt 0.085965 0.739931
vt 0.115961 0.709344
vt 0.074281 0.722747
vt 0.154672 0.631706
vt 0.150986 0.630761
vt 0.136553 0.635716
vt 0.136553 0.635716
vt 0.115961 0.709344
vt 0.154672 0.631706
vt 0.159650 0.695753
vt 0.154909 0.631230
vt 0.115961 0.709344
# 15 texture coordinates

vn 0.000000 0.000000 1.000000
vn 0.000000 0.000000 1.000000
vn 0.000000 0.000000 1.000000
vn 0.000000 0.000000 1.000000
vn 0.000000 0.000000 1.000000
vn 0.000000 0.000000 1.000000
vn 0.000004 -0.998195 0.060062
vn 0.000004 -0.998195 0.060062
vn 0.000004 -0.998195 0.060062
vn 0.000000 -0.998195 0.060062
vn 0.000000 -0.998195 0.060062
vn 0.000000 -0.998195 0.060062
vn -1.000000 -0.000001 0.000000
vn -1.000000 -0.000001 0.000000
vn -1.000000 -0.000001 0.000000
vn -1.000000 -0.000000 0.000000
vn -1.000000 -0.000000 0.000000
vn -1.000000 -0.000000 0.000000
vn -1.000000 -0.000000 0.000000
vn -1.000000 -0.000000 0.000000
vn -1.000000 -0.000000 0.000000
vn -1.000000 -0.000000 0.000000
vn -1.000000 -0.000000 0.000000
vn -1.000000 -0.000000 0.000000
vn -1.000000 0.000001 0.000000
vn -1.000000 0.000001 0.000000
vn -1.000000 0.000001 0.000000
vn 0.000000 0.998195 0.060062
vn 0.000000 0.998195 0.060062
vn 0.000000 0.998195 0.060062
vn -0.000003 0.998195 0.060062
vn -0.000003 0.998195 0.060062
vn -0.000003 0.998195 0.060062
vn 1.000000 0.000001 -0.000000
vn 1.000000 0.000001 -0.000000
vn 1.000000 0.000001 -0.000000
vn 1.000000 0.000001 0.000000
vn 1.000000 0.000001 0.000000
vn 1.000000 0.000001 0.000000
vn 1.000000 -0.000000 -0.000000
vn 1.000000 -0.000000 -0.000000
vn 1.000000 -0.000000 -0.000000
vn -0.433407 -0.617353 -0.656531
vn -0.433407 -0.617353 -0.656531
vn -0.433407 -0.617353 -0.656531
# 45 normals

vn 0.571482 0.179118 -0.800828
vn 0.571482 0.179118 -0.800828
vn 0.571482 0.179118 -0.800828
vn 0.872497 -0.470453 -0.131996
vn 0.872497 -0.470453 -0.131996
vn 0.872497 -0.470453 -0.131996
vn -0.249259 -0.717169 -0.650799
vn -0.249259 -0.717169 -0.650799
vn -0.249259 -0.717169 -0.650799
vn 0.804618 0.183967 -0.564576
vn 0.804618 0.183967 -0.564576
vn 0.804618 0.183967 -0.564576
vn 0.975820 0.138695 -0.168935
vn 0.975820 0.138695 -0.168935
vn 0.975820 0.138695 -0.168935
# 15 normals

g object0
usemtl Material_0
f 1/1/1  2/2/2  3/3/3
f 4/4/4  5/5/5  6/6/6
f 7/7/7  8/8/8  9/9/9
f 10/10/10  11/11/11  12/12/12
f 13/13/13  14/14/14  15/15/15
f 16/16/16  17/17/17  18/18/18
f 19/19/19  20/20/20  21/21/21
f 22/22/22  23/23/23  24/24/24
f 25/25/25  26/26/26  27/27/27
f 28/28/28  29/29/29  30/30/30
f 31/31/31  32/32/32  33/33/33
f 34/34/34  35/35/35  36/36/36
f 37/37/37  38/38/38  39/39/39
f 40/40/40  41/41/41  42/42/42
f 43/43/43  44/44/44  45/45/45
# 15 polygons in group

g object1
usemtl Material_1
f 46/46/46  47/47/47  48/48/48
f 49/49/49  50/50/50  51/51/51
f 52/52/52  53/53/53  54/54/54
f 55/55/55  56/56/56  57/57/57
f 58/58/58  59/59/59  60/60/60
# 5 polygons in group

# 20 polygons total
