# Wavefront OBJ exported by IMDeditor

mtllib p_station_destroyed_obj2.mtl

v   -10.585912 2.776577 -0.353714
v    -9.530537 4.528555 -0.142223
v   -15.350129 4.524960 -1.299811
v   -15.350129 4.524960 -1.299811
v   -15.348789 2.773635 -1.301107
v   -10.585912 2.776577 -0.353714
v   -15.606620 2.733546 -4.864444
v   -14.677665 2.773636 -4.675083
v   -15.348789 2.773635 -1.301107
v   -15.348789 2.773635 -1.301107
v   -16.277508 2.715695 -1.490468
v   -15.606620 2.733546 -4.864444
v   -15.654539 4.484215 -4.863146
v   -14.679005 4.524960 -4.673786
v   -14.677665 2.773636 -4.675083
v   -14.677665 2.773636 -4.675083
v   -15.606620 2.733546 -4.864444
v   -15.654539 4.484215 -4.863146
v   -16.325426 4.466364 -1.489172
v   -15.350129 4.524960 -1.299811
v   -14.679005 4.524960 -4.673786
v   -14.679005 4.524960 -4.673786
v   -15.654539 4.484215 -4.863146
v   -16.325426 4.466364 -1.489172
v   -16.277508 2.715695 -1.490468
v   -15.348789 2.773635 -1.301107
v   -15.350129 4.524960 -1.299811
v   -15.350129 4.524960 -1.299811
v   -16.325426 4.466364 -1.489172
v   -16.277508 2.715695 -1.490468
v   -15.606620 2.733546 -4.864444
v   -16.277508 2.715695 -1.490468
v   -16.901920 3.205540 -2.554088
v   -16.704216 3.291379 -3.676791
v   -16.653278 3.236065 -3.954895
v   -15.606620 2.733546 -4.864444
v   -16.704216 3.291379 -3.676791
v   -15.606620 2.733546 -4.864444
v   -16.901920 3.205540 -2.554088
v   -16.854639 3.272912 -2.829340
v   -16.704216 3.291379 -3.676791
v   -16.901920 3.205540 -2.554088
v   -15.654539 4.484215 -4.863146
v   -15.606620 2.733546 -4.864444
v   -16.653278 3.236065 -3.954895
v   -16.686632 3.718159 -3.837088
v   -16.671013 3.938944 -3.956642
v   -15.654539 4.484215 -4.863146
v   -16.686632 3.718159 -3.837088
v   -15.654539 4.484215 -4.863146
v   -16.653278 3.236065 -3.954895
v   -16.680031 3.456570 -3.836438
v   -16.686632 3.718159 -3.837088
v   -16.653278 3.236065 -3.954895
v   -16.325426 4.466364 -1.489172
v   -15.654539 4.484215 -4.863146
v   -16.671013 3.938944 -3.956642
v   -16.870939 3.891842 -2.827036
v   -16.921669 3.955581 -2.551317
v   -16.325426 4.466364 -1.489172
v   -16.870939 3.891842 -2.827036
v   -16.325426 4.466364 -1.489172
v   -16.671013 3.938944 -3.956642
v   -16.719116 3.881765 -3.678243
v   -16.870939 3.891842 -2.827036
v   -16.671013 3.938944 -3.956642
v   -16.277508 2.715695 -1.490468
v   -16.325426 4.466364 -1.489172
v   -16.921669 3.955581 -2.551317
v   -16.887163 3.431158 -2.669497
v   -16.901920 3.205540 -2.554088
v   -16.277508 2.715695 -1.490468
v   -16.887163 3.431158 -2.669497
v   -16.277508 2.715695 -1.490468
v   -16.921669 3.955581 -2.551317
v   -16.895084 3.732012 -2.668386
v   -16.887163 3.431158 -2.669497
v   -16.921669 3.955581 -2.551317
v   -16.680031 3.456570 -3.836438
v   -16.704216 3.291379 -3.676791
v   -16.854639 3.272912 -2.829340
v   -16.719116 3.881765 -3.678243
v   -16.686632 3.718159 -3.837088
v   -16.680031 3.456570 -3.836438
v   -16.719116 3.881765 -3.678243
v   -16.680031 3.456570 -3.836438
v   -16.854639 3.272912 -2.829340
v   -16.895084 3.732012 -2.668386
v   -16.870939 3.891842 -2.827036
v   -16.719116 3.881765 -3.678243
v   -16.895084 3.732012 -2.668386
v   -16.719116 3.881765 -3.678243
v   -16.854639 3.272912 -2.829340
v   -16.887163 3.431158 -2.669497
v   -16.895084 3.732012 -2.668386
v   -16.854639 3.272912 -2.829340
v   -17.989325 3.258389 -3.905616
v   -17.965139 3.423580 -4.065262
v   -17.938387 3.203075 -4.183719
v   -19.333979 3.641224 -4.599319
v   -19.366463 3.804831 -4.440475
v   -19.318359 3.862009 -4.718874
v   -18.888813 3.817094 -4.355424
v   -16.719116 3.881765 -3.678243
v   -16.671013 3.938944 -3.956642
v   -16.671013 3.938944 -3.956642
v   -18.840708 3.874272 -4.633822
v   -18.888813 3.817094 -4.355424
v   -18.856327 3.653487 -4.514267
v   -16.686632 3.718159 -3.837088
v   -16.719116 3.881765 -3.678243
v   -16.719116 3.881765 -3.678243
v   -18.888813 3.817094 -4.355424
v   -18.856327 3.653487 -4.514267
v   -18.840708 3.874272 -4.633822
v   -16.671013 3.938944 -3.956642
v   -16.686632 3.718159 -3.837088
v   -16.686632 3.718159 -3.837088
v   -18.856327 3.653487 -4.514267
v   -18.840708 3.874272 -4.633822
v   -19.414124 3.667335 -3.116917
v   -16.895084 3.732012 -2.668386
v   -16.921669 3.955581 -2.551317
v   -16.921669 3.955581 -2.551317
v   -19.440708 3.890903 -2.999849
v   -19.414124 3.667335 -3.116917
v   -19.389980 3.827165 -3.275568
v   -16.870939 3.891842 -2.827036
v   -16.895084 3.732012 -2.668386
v   -16.895084 3.732012 -2.668386
v   -19.414124 3.667335 -3.116917
v   -19.389980 3.827165 -3.275568
v   -19.440708 3.890903 -2.999849
v   -16.921669 3.955581 -2.551317
v   -16.870939 3.891842 -2.827036
v   -16.870939 3.891842 -2.827036
v   -19.389980 3.827165 -3.275568
v   -19.440708 3.890903 -2.999849
v   -19.366463 3.804831 -4.440475
v   -18.888813 3.817094 -4.355424
v   -18.840708 3.874272 -4.633822
v   -18.840708 3.874272 -4.633822
v   -19.318359 3.862009 -4.718874
v   -19.366463 3.804831 -4.440475
v   -19.333979 3.641224 -4.599319
v   -18.856327 3.653487 -4.514267
v   -18.888813 3.817094 -4.355424
v   -18.888813 3.817094 -4.355424
v   -19.366463 3.804831 -4.440475
v   -19.333979 3.641224 -4.599319
v   -19.318359 3.862009 -4.718874
v   -18.840708 3.874272 -4.633822
v   -18.856327 3.653487 -4.514267
v   -18.856327 3.653487 -4.514267
v   -19.333979 3.641224 -4.599319
v   -19.318359 3.862009 -4.718874
v   -17.965139 3.423580 -4.065262
v   -16.680031 3.456570 -3.836438
v   -16.653278 3.236065 -3.954895
v   -16.653278 3.236065 -3.954895
v   -17.938387 3.203075 -4.183719
v   -17.965139 3.423580 -4.065262
v   -17.989325 3.258389 -3.905616
v   -16.704216 3.291379 -3.676791
v   -16.680031 3.456570 -3.836438
v   -16.680031 3.456570 -3.836438
v   -17.965139 3.423580 -4.065262
v   -17.989325 3.258389 -3.905616
v   -17.938387 3.203075 -4.183719
v   -16.653278 3.236065 -3.954895
v   -16.704216 3.291379 -3.676791
v   -16.704216 3.291379 -3.676791
v   -17.989325 3.258389 -3.905616
v   -17.938387 3.203075 -4.183719
v   -10.932567 4.527521 -1.846155
v   -14.679005 4.524960 -4.673786
v   -15.350129 4.524960 -1.299811
v   -10.196202 4.527778 -3.369136
v   -14.679005 4.524960 -4.673786
v   -10.932567 4.527521 -1.846155
v   -10.017903 4.527839 -3.746637
v   -14.679005 4.524960 -4.673786
v   -10.196202 4.527778 -3.369136
v    -9.470004 4.528540 -0.570256
v   -10.932567 4.527521 -1.846155
v   -15.350129 4.524960 -1.299811
v   -15.350129 4.524960 -1.299811
v    -9.530537 4.528555 -0.142223
v    -9.470004 4.528540 -0.570256
v   -10.196802 2.776403 -3.783785
v   -14.677665 2.773636 -4.675083
v   -14.679005 4.524960 -4.673786
v   -14.679005 4.524960 -4.673786
v   -10.017903 4.527839 -3.746637
v   -10.196802 2.776403 -3.783785
v   -11.369743 2.775887 -2.255490
v   -15.348789 2.773635 -1.301107
v   -14.677665 2.773636 -4.675083
v   -10.370752 2.776585 -1.374030
v   -10.585912 2.776577 -0.353714
v   -15.348789 2.773635 -1.301107
v   -15.348789 2.773635 -1.301107
v   -11.369743 2.775887 -2.255490
v   -10.370752 2.776585 -1.374030
v   -11.369743 2.775887 -2.255490
v   -14.677665 2.773636 -4.675083
v   -10.196802 2.776403 -3.783785
v   -16.901920 3.205540 -2.554088
v   -16.887163 3.431158 -2.669497
v   -16.854639 3.272912 -2.829340
v   -19.440708 3.890903 -2.999849
v   -19.389980 3.827165 -3.275568
v   -19.414124 3.667335 -3.116917
# 213 vertices

v   -10.932567 4.527521 -1.846155
v   -11.369743 2.775887 -2.255490
v   -10.196202 4.527778 -3.369136
v   -10.196202 4.527778 -3.369136
v   -11.369743 2.775887 -2.255490
v   -10.196802 2.776403 -3.783785
v   -10.196802 2.776403 -3.783785
v   -10.017903 4.527839 -3.746637
v   -10.196202 4.527778 -3.369136
v   -10.370752 2.776585 -1.374030
v   -11.369743 2.775887 -2.255490
v   -10.932567 4.527521 -1.846155
v   -10.932567 4.527521 -1.846155
v    -9.470004 4.528540 -0.570256
v   -10.370752 2.776585 -1.374030
v   -10.585912 2.776577 -0.353714
v   -10.370752 2.776585 -1.374030
v    -9.470004 4.528540 -0.570256
v    -9.470004 4.528540 -0.570256
v    -9.530537 4.528555 -0.142223
v   -10.585912 2.776577 -0.353714
# 21 vertices

vt 0.330202 0.002137
vt 0.290962 0.065060
vt 0.507338 0.065255
vt 0.507338 0.065255
vt 0.507365 0.001857
vt 0.330202 0.002137
vt 0.404379 0.243390
vt 0.404361 0.269114
vt 0.311032 0.269085
vt 0.311032 0.269085
vt 0.311051 0.243360
vt 0.404379 0.243390
vt 0.538229 0.064803
vt 0.503093 0.064700
vt 0.503157 0.002016
vt 0.503157 0.002016
vt 0.538324 0.001909
vt 0.538229 0.064803
vt 0.312989 0.242794
vt 0.312980 0.268309
vt 0.403746 0.268323
vt 0.403746 0.268323
vt 0.403755 0.242809
vt 0.312989 0.242794
vt 0.536657 0.001985
vt 0.507365 0.001857
vt 0.507338 0.065255
vt 0.507338 0.065255
vt 0.536556 0.065132
vt 0.536657 0.001985
vt 0.404556 0.243833
vt 0.315087 0.243833
vt 0.338478 0.224757
vt 0.371861 0.224819
vt 0.380654 0.224830
vt 0.404556 0.243833
vt 0.371861 0.224819
vt 0.404556 0.243833
vt 0.338478 0.224757
vt 0.346887 0.224778
vt 0.371861 0.224819
vt 0.338478 0.224757
vt 0.538229 0.064803
vt 0.538324 0.001909
vt 0.566810 0.020717
vt 0.567487 0.037096
vt 0.566732 0.045902
vt 0.538229 0.064803
vt 0.567487 0.037096
vt 0.538229 0.064803
vt 0.566810 0.020717
vt 0.567306 0.027724
vt 0.567487 0.037096
vt 0.566810 0.020717
vt 0.316814 0.242416
vt 0.404222 0.242416
vt 0.380802 0.223845
vt 0.347693 0.223802
vt 0.339465 0.223775
vt 0.316814 0.242416
vt 0.347693 0.223802
vt 0.316814 0.242416
vt 0.380802 0.223845
vt 0.372202 0.223840
vt 0.347693 0.223802
vt 0.380802 0.223845
vt 0.536657 0.001985
vt 0.536556 0.065132
vt 0.567993 0.046259
vt 0.567980 0.026993
vt 0.567941 0.019197
vt 0.536657 0.001985
vt 0.567980 0.026993
vt 0.536657 0.001985
vt 0.567993 0.046259
vt 0.567931 0.037356
vt 0.567980 0.026993
vt 0.567993 0.046259
vt 0.964076 0.088226
vt 0.970663 0.081160
vt 0.970932 0.045056
vt 0.945976 0.081228
vt 0.953503 0.088141
vt 0.964076 0.088226
vt 0.945976 0.081228
vt 0.964076 0.088226
vt 0.970932 0.045056
vt 0.952285 0.038365
vt 0.945914 0.045180
vt 0.945976 0.081228
vt 0.952285 0.038365
vt 0.945976 0.081228
vt 0.970932 0.045056
vt 0.964446 0.038304
vt 0.952285 0.038365
vt 0.970932 0.045056
vt 0.376647 0.181221
vt 0.380163 0.185776
vt 0.382770 0.179652
vt 0.369261 0.181235
vt 0.366635 0.184671
vt 0.371238 0.185839
vt 0.406043 0.300002
vt 0.406044 0.452210
vt 0.414576 0.452293
vt 0.414576 0.452293
vt 0.414575 0.300085
vt 0.406043 0.300002
vt 0.406198 0.300375
vt 0.406273 0.451882
vt 0.414026 0.451898
vt 0.414026 0.451898
vt 0.413951 0.300391
vt 0.406198 0.300375
vt 0.406630 0.299751
vt 0.406618 0.451549
vt 0.414220 0.451541
vt 0.414220 0.451541
vt 0.414208 0.299743
vt 0.406630 0.299751
vt 0.406745 0.300040
vt 0.406648 0.452012
vt 0.414288 0.452022
vt 0.414288 0.452022
vt 0.414384 0.300314
vt 0.406745 0.300040
vt 0.406295 0.300030
vt 0.405896 0.451828
vt 0.413872 0.451814
vt 0.413872 0.451814
vt 0.414271 0.300016
vt 0.406295 0.300030
vt 0.406356 0.300065
vt 0.406278 0.451828
vt 0.413872 0.451772
vt 0.413872 0.451772
vt 0.413950 0.300009
vt 0.406356 0.300065
vt 0.406049 0.274655
vt 0.406043 0.300002
vt 0.414575 0.300085
vt 0.414575 0.300085
vt 0.414581 0.274738
vt 0.406049 0.274655
vt 0.406082 0.274748
vt 0.406198 0.300375
vt 0.413951 0.300391
vt 0.413951 0.300391
vt 0.413835 0.274764
vt 0.406082 0.274748
vt 0.406638 0.274915
vt 0.406630 0.299751
vt 0.414208 0.299743
vt 0.414208 0.299743
vt 0.414193 0.274907
vt 0.406638 0.274915
vt 0.406604 0.312552
vt 0.406977 0.373730
vt 0.413236 0.373722
vt 0.413236 0.373722
vt 0.412863 0.312544
vt 0.406604 0.312552
vt 0.412971 0.373730
vt 0.413062 0.312553
vt 0.406870 0.312544
vt 0.406870 0.312544
vt 0.406779 0.373721
vt 0.412971 0.373730
vt 0.412475 0.373730
vt 0.413061 0.312582
vt 0.407366 0.312544
vt 0.407366 0.312544
vt 0.406779 0.373692
vt 0.412475 0.373730
vt 0.349818 0.379403
vt 0.403746 0.268323
vt 0.312980 0.268309
vt 0.393016 0.390584
vt 0.403746 0.268323
vt 0.349818 0.379403
vt 0.403702 0.393247
vt 0.403746 0.268323
vt 0.393016 0.390584
vt 0.324313 0.423649
vt 0.349818 0.379403
vt 0.312980 0.268309
vt 0.312980 0.268309
vt 0.312925 0.424281
vt 0.324313 0.423649
vt 0.339045 0.001943
vt 0.503157 0.002016
vt 0.503093 0.064700
vt 0.503093 0.064700
vt 0.332379 0.065051
vt 0.339045 0.001943
vt 0.357651 0.368575
vt 0.311032 0.269085
vt 0.404361 0.269114
vt 0.339553 0.399416
vt 0.311280 0.399102
vt 0.311032 0.269085
vt 0.311032 0.269085
vt 0.357651 0.368575
vt 0.339553 0.399416
vt 0.357651 0.368575
vt 0.404361 0.269114
vt 0.404274 0.391113
vt 0.567941 0.019197
vt 0.964446 0.038304
vt 0.346887 0.224778
vt 0.406356 0.300065
vt 0.406295 0.300030
vt 0.406745 0.300040
# 213 texture coordinates

vt 0.374116 0.836163
vt 0.370198 0.795664
vt 0.336935 0.836169
vt 0.336935 0.836169
vt 0.370183 0.795683
vt 0.327916 0.797653
vt 0.327916 0.797653
vt 0.327899 0.836324
vt 0.336935 0.836169
vt 0.398687 0.802436
vt 0.370198 0.795664
vt 0.374116 0.836163
vt 0.374116 0.836163
vt 0.415619 0.846026
vt 0.398687 0.802436
vt 0.421521 0.800504
vt 0.398687 0.802436
vt 0.415618 0.846025
vt 0.415618 0.846025
vt 0.425100 0.845554
vt 0.421521 0.800504
# 21 texture coordinates

vn -0.195090 -0.000876 0.980785
vn -0.195090 -0.000876 0.980785
vn -0.195090 -0.000876 0.980785
vn -0.195089 -0.000875 0.980785
vn -0.195089 -0.000875 0.980785
vn -0.195089 -0.000875 0.980785
vn 0.041438 -0.999107 0.008242
vn 0.041438 -0.999107 0.008242
vn 0.041438 -0.999107 0.008242
vn 0.060878 -0.998122 0.006824
vn 0.060878 -0.998122 0.006824
vn 0.060878 -0.998122 0.006824
vn 0.190517 0.000873 -0.981683
vn 0.190517 0.000873 -0.981683
vn 0.190517 0.000873 -0.981683
vn 0.199475 0.006186 -0.979883
vn 0.199475 0.006186 -0.979883
vn 0.199475 0.006186 -0.979883
vn -0.057745 0.998265 -0.011486
vn -0.057745 0.998265 -0.011486
vn -0.057745 0.998265 -0.011486
vn -0.041169 0.999148 -0.002900
vn -0.041169 0.999148 -0.002900
vn -0.041169 0.999148 -0.002900
vn -0.199732 -0.000878 0.979850
vn -0.199732 -0.000878 0.979850
vn -0.199732 -0.000878 0.979850
vn -0.190251 -0.005934 0.981718
vn -0.190251 -0.005934 0.981718
vn -0.190251 -0.005934 0.981718
vn -0.498546 -0.860640 -0.103685
vn -0.498546 -0.860640 -0.103685
vn -0.498546 -0.860640 -0.103685
vn -0.340635 -0.932115 0.123003
vn -0.340635 -0.932115 0.123003
vn -0.340635 -0.932115 0.123003
vn -0.581729 -0.796809 -0.163362
vn -0.581729 -0.796809 -0.163362
vn -0.581729 -0.796809 -0.163362
vn -0.984201 -0.025264 -0.175245
vn -0.984201 -0.025264 -0.175245
vn -0.984201 -0.025264 -0.175245
vn -0.660617 -0.017526 -0.750518
vn -0.660617 -0.017526 -0.750518
vn -0.660617 -0.017526 -0.750518
vn -0.488388 -0.388548 -0.781350
vn -0.488388 -0.388548 -0.781350
vn -0.488388 -0.388548 -0.781350
vn -0.740802 0.110651 -0.662547
vn -0.740802 0.110651 -0.662547
vn -0.740802 0.110651 -0.662547
vn -0.984202 -0.025271 -0.175236
vn -0.984202 -0.025271 -0.175236
vn -0.984202 -0.025271 -0.175236
vn -0.539936 0.835388 -0.102942
vn -0.539936 0.835388 -0.102942
vn -0.539936 0.835388 -0.102942
vn -0.306109 0.913633 -0.267528
vn -0.306109 0.913633 -0.267528
vn -0.306109 0.913633 -0.267528
vn -0.625475 0.776302 -0.078332
vn -0.625475 0.776302 -0.078332
vn -0.625475 0.776302 -0.078332
vn -0.984201 -0.025262 -0.175245
vn -0.984201 -0.025262 -0.175245
vn -0.984201 -0.025262 -0.175245
vn -0.866757 -0.024093 0.498148
vn -0.866757 -0.024093 0.498148
vn -0.866757 -0.024093 0.498148
vn -0.729177 0.348847 0.588733
vn -0.729177 0.348847 0.588733
vn -0.729177 0.348847 0.588733
vn -0.912142 -0.146300 0.382875
vn -0.912142 -0.146300 0.382875
vn -0.912142 -0.146300 0.382875
vn -0.984199 -0.025266 -0.175252
vn -0.984199 -0.025266 -0.175252
vn -0.984199 -0.025266 -0.175252
vn -0.984201 -0.025265 -0.175245
vn -0.984201 -0.025265 -0.175245
vn -0.984201 -0.025265 -0.175245
vn -0.984201 -0.025271 -0.175244
vn -0.984201 -0.025271 -0.175244
vn -0.984201 -0.025271 -0.175244
vn -0.984200 -0.025270 -0.175246
vn -0.984200 -0.025270 -0.175246
vn -0.984200 -0.025270 -0.175246
vn -0.984200 -0.025273 -0.175245
vn -0.984200 -0.025273 -0.175245
vn -0.984200 -0.025273 -0.175245
vn -0.984201 -0.025267 -0.175244
vn -0.984201 -0.025267 -0.175244
vn -0.984201 -0.025267 -0.175244
vn -0.984200 -0.025266 -0.175249
vn -0.984200 -0.025266 -0.175249
vn -0.984200 -0.025266 -0.175249
vn -0.984200 -0.025265 -0.175246
vn -0.984200 -0.025265 -0.175246
vn -0.984200 -0.025265 -0.175246
vn -0.984200 -0.025269 -0.175248
vn -0.984200 -0.025269 -0.175248
vn -0.984200 -0.025269 -0.175248
vn -0.087204 0.978684 0.185937
vn -0.087204 0.978684 0.185937
vn -0.087204 0.978684 0.185937
vn -0.087204 0.978684 0.185938
vn -0.087204 0.978684 0.185938
vn -0.087204 0.978684 0.185938
vn -0.192723 -0.702960 0.684620
vn -0.192723 -0.702960 0.684620
vn -0.192723 -0.702960 0.684620
vn -0.192724 -0.702957 0.684624
vn -0.192724 -0.702957 0.684624
vn -0.192724 -0.702957 0.684624
vn 0.275348 -0.472752 -0.837072
vn 0.275348 -0.472752 -0.837072
vn 0.275348 -0.472752 -0.837072
vn 0.275348 -0.472751 -0.837072
vn 0.275348 -0.472751 -0.837072
vn 0.275348 -0.472751 -0.837072
vn -0.142735 -0.472404 0.869748
vn -0.142735 -0.472404 0.869748
vn -0.142735 -0.472404 0.869748
vn -0.142735 -0.472403 0.869748
vn -0.142735 -0.472403 0.869748
vn -0.142735 -0.472403 0.869748
vn 0.141366 -0.708082 -0.691835
vn 0.141366 -0.708082 -0.691835
vn 0.141366 -0.708082 -0.691835
vn 0.141365 -0.708084 -0.691833
vn 0.141365 -0.708084 -0.691833
vn 0.141365 -0.708084 -0.691833
vn 0.014617 0.974788 -0.222655
vn 0.014617 0.974788 -0.222655
vn 0.014617 0.974788 -0.222655
vn 0.014617 0.974788 -0.222653
vn 0.014617 0.974788 -0.222653
vn 0.014617 0.974788 -0.222653
vn -0.059168 0.979803 0.191012
vn -0.059168 0.979803 0.191012
vn -0.059168 0.979803 0.191012
vn -0.059167 0.979803 0.191014
vn -0.059167 0.979803 0.191014
vn -0.059167 0.979803 0.191014
vn -0.107054 -0.703442 0.702644
vn -0.107054 -0.703442 0.702644
vn -0.107054 -0.703442 0.702644
vn -0.107053 -0.703443 0.702643
vn -0.107053 -0.703443 0.702643
vn -0.107053 -0.703443 0.702643
vn 0.165817 -0.478621 -0.862222
vn 0.165817 -0.478621 -0.862222
vn 0.165817 -0.478621 -0.862222
vn 0.165817 -0.478621 -0.862222
vn 0.165817 -0.478621 -0.862222
vn 0.165817 -0.478621 -0.862222
vn 0.141616 0.481752 -0.864789
vn 0.141616 0.481752 -0.864789
vn 0.141616 0.481752 -0.864789
vn 0.141616 0.481752 -0.864789
vn 0.141616 0.481752 -0.864789
vn 0.141616 0.481752 -0.864789
vn -0.142783 0.698545 0.701176
vn -0.142783 0.698545 0.701176
vn -0.142783 0.698545 0.701176
vn -0.142783 0.698545 0.701176
vn -0.142783 0.698545 0.701176
vn -0.142783 0.698545 0.701176
vn -0.009258 -0.981069 0.193437
vn -0.009258 -0.981069 0.193437
vn -0.009258 -0.981069 0.193437
vn -0.009258 -0.981069 0.193437
vn -0.009258 -0.981069 0.193437
vn -0.009258 -0.981069 0.193437
vn -0.000594 1.000000 -0.000118
vn -0.000594 1.000000 -0.000118
vn -0.000594 1.000000 -0.000118
vn -0.000594 1.000000 -0.000118
vn -0.000594 1.000000 -0.000118
vn -0.000594 1.000000 -0.000118
vn -0.000594 1.000000 -0.000118
vn -0.000594 1.000000 -0.000118
vn -0.000594 1.000000 -0.000118
vn -0.000594 1.000000 -0.000118
vn -0.000594 1.000000 -0.000118
vn -0.000594 1.000000 -0.000118
vn -0.000594 1.000000 -0.000118
vn -0.000594 1.000000 -0.000118
vn -0.000594 1.000000 -0.000118
vn 0.195090 0.000876 -0.980785
vn 0.195090 0.000876 -0.980785
vn 0.195090 0.000876 -0.980785
vn 0.195089 0.000875 -0.980785
vn 0.195089 0.000875 -0.980785
vn 0.195089 0.000875 -0.980785
vn 0.000594 -1.000000 0.000118
vn 0.000594 -1.000000 0.000118
vn 0.000594 -1.000000 0.000118
vn 0.000594 -1.000000 0.000118
vn 0.000594 -1.000000 0.000118
vn 0.000594 -1.000000 0.000118
vn 0.000594 -1.000000 0.000118
vn 0.000594 -1.000000 0.000118
vn 0.000594 -1.000000 0.000118
vn 0.000594 -1.000000 0.000118
vn 0.000594 -1.000000 0.000118
vn 0.000594 -1.000000 0.000118
vn -0.984200 -0.025268 -0.175246
vn -0.984200 -0.025268 -0.175246
vn -0.984200 -0.025268 -0.175246
vn -0.984201 -0.025276 -0.175239
vn -0.984201 -0.025276 -0.175239
vn -0.984201 -0.025276 -0.175239
# 213 normals

vn 0.855870 -0.310301 0.413763
vn 0.855870 -0.310301 0.413763
vn 0.855870 -0.310301 0.413763
vn 0.785172 -0.142929 0.602558
vn 0.785172 -0.142929 0.602558
vn 0.785172 -0.142929 0.602558
vn 0.899608 -0.100902 0.424881
vn 0.899608 -0.100902 0.424881
vn 0.899608 -0.100902 0.424881
vn 0.661583 0.010100 -0.749804
vn 0.661583 0.010100 -0.749804
vn 0.661583 0.010100 -0.749804
vn 0.657360 0.007739 -0.753537
vn 0.657360 0.007739 -0.753537
vn 0.657360 0.007739 -0.753537
vn 0.839878 -0.513068 0.177106
vn 0.839878 -0.513068 0.177106
vn 0.839878 -0.513068 0.177106
vn 0.844027 -0.522845 0.119381
vn 0.844027 -0.522845 0.119381
vn 0.844027 -0.522845 0.119381
# 21 normals

g object0
usemtl Material_0
f 1/1/1  2/2/2  3/3/3
f 10/10/10  11/11/11  12/12/12
f 13/13/13  14/14/14  15/15/15
f 16/16/16  17/17/17  18/18/18
f 19/19/19  20/20/20  21/21/21
f 22/22/22  23/23/23  24/24/24
f 25/25/25  26/26/26  27/27/27
f 28/28/28  29/29/29  30/30/30
f 31/31/31  32/32/32  33/33/33
f 34/34/34  35/35/35  36/36/36
f 37/37/37  38/38/38  39/39/39
f 40/40/40  41/41/41  42/42/42
f 43/43/43  44/44/44  45/45/45
f 46/46/46  47/47/47  48/48/48
f 49/49/49  50/50/50  51/51/51
f 52/52/52  53/53/53  54/54/54
f 55/55/55  56/56/56  57/57/57
f 58/58/58  59/59/59  60/60/60
f 61/61/61  62/62/62  63/63/63
f 64/64/64  65/65/65  66/66/66
f 67/67/67  68/68/68  69/69/69
f 70/70/70  71/71/71  72/72/72
f 73/73/73  74/74/74  75/75/75
f 76/76/76  77/77/77  78/78/78
f 79/79/79  80/80/80  81/81/81
f 82/82/82  83/83/83  84/84/84
f 85/85/85  86/86/86  87/87/87
f 88/88/88  89/89/89  90/90/90
f 91/91/91  92/92/92  93/93/93
f 94/94/94  95/95/95  96/96/96
f 97/97/97  98/98/98  99/99/99
f 100/100/100  101/101/101  102/102/102
f 103/103/103  104/104/104  105/105/105
f 106/106/106  107/107/107  108/108/108
f 109/109/109  110/110/110  111/111/111
f 112/112/112  113/113/113  114/114/114
f 115/115/115  116/116/116  117/117/117
f 118/118/118  119/119/119  120/120/120
f 121/121/121  122/122/122  123/123/123
f 124/124/124  125/125/125  126/126/126
f 127/127/127  128/128/128  129/129/129
f 130/130/130  131/131/131  132/132/132
f 133/133/133  134/134/134  135/135/135
f 136/136/136  137/137/137  138/138/138
f 139/139/139  140/140/140  141/141/141
f 142/142/142  143/143/143  144/144/144
f 145/145/145  146/146/146  147/147/147
f 148/148/148  149/149/149  150/150/150
f 151/151/151  152/152/152  153/153/153
f 154/154/154  155/155/155  156/156/156
f 157/157/157  158/158/158  159/159/159
f 160/160/160  161/161/161  162/162/162
f 163/163/163  164/164/164  165/165/165
f 166/166/166  167/167/167  168/168/168
f 169/169/169  170/170/170  171/171/171
f 172/172/172  173/173/173  174/174/174
f 175/175/175  176/176/176  177/177/177
f 178/178/178  179/179/179  180/180/180
f 181/181/181  182/182/182  183/183/183
f 184/184/184  185/185/185  186/186/186
f 187/187/187  188/188/188  189/189/189
f 190/190/190  191/191/191  192/192/192
f 193/193/193  194/194/194  195/195/195
f 196/196/196  197/197/197  198/198/198
f 199/199/199  200/200/200  201/201/201
f 202/202/202  203/203/203  204/204/204
f 205/205/205  206/206/206  207/207/207
f 208/208/208  209/209/209  210/210/210
f 211/211/211  212/212/212  213/213/213
f 4/4/4  5/5/5  6/6/6
f 7/7/7  8/8/8  9/9/9
# 71 polygons in group

g object1
usemtl Material_1
f 214/214/214  215/215/215  216/216/216
f 217/217/217  218/218/218  219/219/219
f 220/220/220  221/221/221  222/222/222
f 223/223/223  224/224/224  225/225/225
f 226/226/226  227/227/227  228/228/228
f 229/229/229  230/230/230  231/231/231
f 232/232/232  233/233/233  234/234/234
# 7 polygons in group

# 78 polygons total
