# Wavefront OBJ exported by IMDeditor

mtllib p_station_destroyed_obj3.mtl

v    -8.423433 7.426577 -6.639076
v    -9.900110 6.233029 -5.667669
v    -9.565839 7.548035 -5.582088
v   -10.490958 7.803216 -4.350788
v    -9.565839 7.548035 -5.582088
v    -9.900110 6.233029 -5.667669
v    -9.229466 8.707123 -5.468947
v    -9.565839 7.548035 -5.582088
v   -10.490958 7.803216 -4.350788
v   -10.490958 7.803216 -4.350788
v   -10.061430 8.936608 -4.361636
v    -9.229466 8.707123 -5.468947
v    -8.421377 8.349175 -6.313231
v    -9.565839 7.548035 -5.582088
v    -9.229466 8.707123 -5.468947
v    -8.421377 8.349175 -6.313231
v    -8.423433 7.426577 -6.639076
v    -9.565839 7.548035 -5.582088
# 18 vertices

v    -8.423433 7.426577 -6.639076
v    -7.371683 7.256754 -6.180828
v    -8.848360 6.063207 -5.209421
v    -8.848360 6.063207 -5.209421
v    -9.900110 6.233029 -5.667669
v    -8.423433 7.426577 -6.639076
v    -8.421377 8.349175 -6.313231
v    -7.371683 7.256754 -6.180828
v    -8.423433 7.426577 -6.639076
v   -10.490958 7.803216 -4.350788
v    -9.439208 7.633394 -3.892541
v   -10.061430 8.936608 -4.361636
v    -9.900110 6.233029 -5.667669
v    -8.848360 6.063207 -5.209421
v    -9.439208 7.633394 -3.892541
v    -9.900110 6.233029 -5.667669
v    -9.439208 7.633394 -3.892541
v   -10.490958 7.803216 -4.350788
v   -10.061430 8.936608 -4.361636
v    -9.439208 7.633394 -3.892541
v    -9.229466 8.707123 -5.468947
v    -9.229466 8.707123 -5.468947
v    -8.848360 6.063207 -5.209421
v    -7.371683 7.256754 -6.180828
v    -7.371683 7.256754 -6.180828
v    -8.421377 8.349175 -6.313231
v    -9.229466 8.707123 -5.468947
v    -9.439208 7.633394 -3.892541
v    -8.848360 6.063207 -5.209421
v    -9.229466 8.707123 -5.468947
# 30 vertices

vt 0.651174 0.532076
vt 0.584035 0.591448
vt 0.587172 0.532076
vt 0.513331 0.531488
vt 0.577295 0.531488
vt 0.582435 0.590478
vt 0.572155 0.472498
vt 0.577295 0.531488
vt 0.513331 0.531488
vt 0.513331 0.531488
vt 0.513180 0.472498
vt 0.572155 0.472498
vt 0.640654 0.486221
vt 0.587172 0.532076
vt 0.590309 0.472704
vt 0.640654 0.486221
vt 0.651174 0.532076
vt 0.587172 0.532076
# 18 texture coordinates

vt -0.178863 1.422987
vt -0.095324 1.404423
vt -0.183322 1.273948
vt -0.183322 1.273948
vt -0.266860 1.292513
vt -0.178863 1.422987
vt -0.209894 1.391564
vt -0.136092 1.307030
vt -0.220654 1.320171
vt -0.138776 1.313467
vt -0.223409 1.300791
vt -0.167807 1.398064
vt -0.132536 1.278539
vt -0.216415 1.261578
vt -0.229649 1.418397
vt -0.132536 1.278539
vt -0.229649 1.418397
vt -0.145770 1.435357
vt 0.293308 0.795656
vt 0.297456 0.715100
vt 0.220091 0.781470
vt 0.220091 0.781470
vt 0.213528 0.640259
vt 0.118495 0.699102
vt 0.118495 0.699102
vt 0.159808 0.766012
vt 0.220091 0.781470
vt 0.297456 0.715100
vt 0.213472 0.639053
vt 0.220091 0.781470
# 30 texture coordinates

vn -0.645102 0.241374 -0.724970
vn -0.704772 0.222982 -0.673480
vn -0.699272 0.243915 -0.671956
vn -0.744930 0.261294 -0.613845
vn -0.699272 0.243915 -0.671956
vn -0.704772 0.222982 -0.673480
vn -0.696627 0.267157 -0.665836
vn -0.699272 0.243915 -0.671956
vn -0.744930 0.261294 -0.613845
vn -0.744930 0.261294 -0.613845
vn -0.740507 0.274764 -0.613314
vn -0.696627 0.267157 -0.665836
vn -0.641523 0.256733 -0.722867
vn -0.699272 0.243915 -0.671956
vn -0.696627 0.267157 -0.665836
vn -0.641523 0.256733 -0.722867
vn -0.645102 0.241374 -0.724970
vn -0.699272 0.243915 -0.671956
# 18 normals

vn 0.165940 -0.737816 -0.654287
vn 0.165940 -0.737816 -0.654287
vn 0.165940 -0.737816 -0.654287
vn 0.165940 -0.737816 -0.654287
vn 0.165940 -0.737816 -0.654287
vn 0.165940 -0.737816 -0.654287
vn 0.421342 0.301183 -0.855430
vn 0.421342 0.301183 -0.855430
vn 0.421342 0.301183 -0.855430
vn -0.374336 0.150622 0.914979
vn -0.374336 0.150622 0.914979
vn -0.374336 0.150622 0.914979
vn -0.383862 -0.673890 0.631286
vn -0.383862 -0.673890 0.631286
vn -0.383862 -0.673890 0.631286
vn -0.383862 -0.673890 0.631287
vn -0.383862 -0.673890 0.631287
vn -0.383862 -0.673890 0.631287
vn 0.734628 0.511285 0.445991
vn 0.734628 0.511285 0.445991
vn 0.734628 0.511285 0.445991
vn 0.454720 0.151693 0.877621
vn 0.454720 0.151693 0.877621
vn 0.454720 0.151693 0.877621
vn 0.656177 0.672096 0.343102
vn 0.656177 0.672096 0.343102
vn 0.656177 0.672096 0.343102
vn 0.957921 0.161379 0.237371
vn 0.957921 0.161379 0.237371
vn 0.957921 0.161379 0.237371
# 30 normals

g object0
usemtl Material_0
f 1/1/1  2/2/2  3/3/3
f 4/4/4  5/5/5  6/6/6
f 7/7/7  8/8/8  9/9/9
f 10/10/10  11/11/11  12/12/12
f 13/13/13  14/14/14  15/15/15
f 16/16/16  17/17/17  18/18/18
# 6 polygons in group

g object1
usemtl Material_1
f 19/19/19  20/20/20  21/21/21
f 22/22/22  23/23/23  24/24/24
f 25/25/25  26/26/26  27/27/27
f 28/28/28  29/29/29  30/30/30
f 31/31/31  32/32/32  33/33/33
f 34/34/34  35/35/35  36/36/36
f 37/37/37  38/38/38  39/39/39
f 40/40/40  41/41/41  42/42/42
f 43/43/43  44/44/44  45/45/45
f 46/46/46  47/47/47  48/48/48
# 10 polygons in group

# 16 polygons total
