# Wavefront OBJ exported by IMDeditor

mtllib pirate_arba_locator2.mtl

v    -0.043560 0.029229 -0.036095
v     0.028983 0.029229 0.033603
v     0.028983 0.029229 -0.036095
v    -0.043560 0.029229 -0.036095
v    -0.043560 0.029229 0.033603
# 5 vertices

vt 1.000000 1.000000
vt 0.000000 0.000000
vt 0.000000 1.000000
vt 1.000000 1.000000
vt 1.000000 0.000000
# 5 texture coordinates

vn 0.000000 1.000000 0.000000
vn 0.000000 1.000000 0.000000
vn 0.000000 1.000000 0.000000
vn 0.000000 1.000000 0.000000
vn 0.000000 1.000000 0.000000
# 5 normals

g object0
usemtl Material_0
f 1/1/1  2/2/2  3/3/3
f 2/2/2  4/4/4  5/5/5
# 2 polygons in group

# 2 polygons total
