# Wavefront OBJ exported by IMDeditor

mtllib portalglow3.mtl

v    14.426015 -3.425118 0.000004
v    14.821196 -0.000001 0.000005
v    14.426015 3.425115 0.000005
v    14.426015 -3.425118 0.000004
v    14.426015 3.425115 0.000005
v    13.300550 6.570537 0.000005
v    13.300550 -6.570540 0.000004
v    14.426015 -3.425118 0.000004
v    13.300550 6.570537 0.000005
v    11.534916 -9.346148 0.000004
v    13.300550 -6.570540 0.000004
v    13.300550 6.570537 0.000005
v    11.534916 -9.346148 0.000004
v    13.300550 6.570537 0.000005
v    11.534919 9.346147 0.000005
v    11.534916 -9.346148 0.000004
v    11.534919 9.346147 0.000005
v     9.219238 11.661824 0.000005
v     9.219237 -11.661828 0.000004
v    11.534916 -9.346148 0.000004
v     9.219238 11.661824 0.000005
v     6.443627 -13.427458 0.000004
v     9.219237 -11.661828 0.000004
v     9.219238 11.661824 0.000005
v     3.298205 -14.552923 0.000004
v     6.443627 -13.427458 0.000004
v     9.219238 11.661824 0.000005
v    -0.126911 -14.948104 0.000004
v     3.298205 -14.552923 0.000004
v     9.219238 11.661824 0.000005
v    -3.552028 -14.552925 0.000004
v    -0.126911 -14.948104 0.000004
v     9.219238 11.661824 0.000005
v    -6.697450 -13.427458 0.000004
v    -3.552028 -14.552925 0.000004
v     9.219238 11.661824 0.000005
v    -9.473057 -11.661825 0.000004
v    -6.697450 -13.427458 0.000004
v     9.219238 11.661824 0.000005
v   -11.788737 -9.346148 0.000004
v    -9.473057 -11.661825 0.000004
v     9.219238 11.661824 0.000005
v   -13.554367 -6.570538 0.000004
v   -11.788737 -9.346148 0.000004
v     9.219238 11.661824 0.000005
v   -14.679832 -3.425116 0.000004
v   -13.554367 -6.570538 0.000004
v     9.219238 11.661824 0.000005
v   -15.075013 0.000000 0.000005
v   -14.679832 -3.425116 0.000004
v     9.219238 11.661824 0.000005
v   -14.679832 3.425117 0.000005
v   -15.075013 0.000000 0.000005
v     9.219238 11.661824 0.000005
v   -13.554369 6.570539 0.000005
v   -14.679832 3.425117 0.000005
v     9.219238 11.661824 0.000005
v   -11.788734 9.346148 0.000005
v   -13.554369 6.570539 0.000005
v     9.219238 11.661824 0.000005
v    -9.473056 11.661828 0.000005
v   -11.788734 9.346148 0.000005
v     9.219238 11.661824 0.000005
v    -6.697447 13.427459 0.000005
v    -9.473056 11.661828 0.000005
v     9.219238 11.661824 0.000005
v    -3.552024 14.552923 0.000005
v    -6.697447 13.427459 0.000005
v     9.219238 11.661824 0.000005
v    -0.126908 14.948105 0.000005
v    -3.552024 14.552923 0.000005
v     9.219238 11.661824 0.000005
v     3.298209 14.552923 0.000005
v    -0.126908 14.948105 0.000005
v     9.219238 11.661824 0.000005
v     6.443631 13.427460 0.000005
v     3.298209 14.552923 0.000005
v     9.219238 11.661824 0.000005
v    14.426015 -3.425118 0.000004
v    14.821196 -0.000001 0.000005
v    14.426015 3.425115 0.000005
v    14.426015 -3.425118 0.000004
v    14.426015 3.425115 0.000005
v    13.300550 6.570537 0.000005
v    13.300550 -6.570540 0.000004
v    14.426015 -3.425118 0.000004
v    13.300550 6.570537 0.000005
v    11.534916 -9.346148 0.000004
v    13.300550 -6.570540 0.000004
v    13.300550 6.570537 0.000005
v    11.534916 -9.346148 0.000004
v    13.300550 6.570537 0.000005
v    11.534919 9.346147 0.000005
v    11.534916 -9.346148 0.000004
v    11.534919 9.346147 0.000005
v     9.219238 11.661824 0.000005
v     9.219237 -11.661828 0.000004
v    11.534916 -9.346148 0.000004
v     9.219238 11.661824 0.000005
v     6.443627 -13.427458 0.000004
v     9.219237 -11.661828 0.000004
v     9.219238 11.661824 0.000005
v     3.298205 -14.552923 0.000004
v     6.443627 -13.427458 0.000004
v     9.219238 11.661824 0.000005
v    -0.126911 -14.948104 0.000004
v     3.298205 -14.552923 0.000004
v     9.219238 11.661824 0.000005
v    -3.552028 -14.552925 0.000004
v    -0.126911 -14.948104 0.000004
v     9.219238 11.661824 0.000005
v    -6.697450 -13.427458 0.000004
v    -3.552028 -14.552925 0.000004
v     9.219238 11.661824 0.000005
v    -9.473057 -11.661825 0.000004
v    -6.697450 -13.427458 0.000004
v     9.219238 11.661824 0.000005
v   -11.788737 -9.346148 0.000004
v    -9.473057 -11.661825 0.000004
v     9.219238 11.661824 0.000005
v   -13.554367 -6.570538 0.000004
v   -11.788737 -9.346148 0.000004
v     9.219238 11.661824 0.000005
v   -14.679832 -3.425116 0.000004
v   -13.554367 -6.570538 0.000004
v     9.219238 11.661824 0.000005
v   -15.075013 0.000000 0.000005
v   -14.679832 -3.425116 0.000004
v     9.219238 11.661824 0.000005
v   -14.679832 3.425117 0.000005
v   -15.075013 0.000000 0.000005
v     9.219238 11.661824 0.000005
v   -13.554369 6.570539 0.000005
v   -14.679832 3.425117 0.000005
v     9.219238 11.661824 0.000005
v   -11.788734 9.346148 0.000005
v   -13.554369 6.570539 0.000005
v     9.219238 11.661824 0.000005
v    -9.473056 11.661828 0.000005
v   -11.788734 9.346148 0.000005
v     9.219238 11.661824 0.000005
v    -6.697447 13.427459 0.000005
v    -9.473056 11.661828 0.000005
v     9.219238 11.661824 0.000005
v    -3.552024 14.552923 0.000005
v    -6.697447 13.427459 0.000005
v     9.219238 11.661824 0.000005
v    -0.126908 14.948105 0.000005
v    -3.552024 14.552923 0.000005
v     9.219238 11.661824 0.000005
v     3.298209 14.552923 0.000005
v    -0.126908 14.948105 0.000005
v     9.219238 11.661824 0.000005
v     6.443631 13.427460 0.000005
v     3.298209 14.552923 0.000005
v     9.219238 11.661824 0.000005
# 156 vertices

vt 0.012359 0.385231
vt -0.000883 0.500000
vt 0.012359 0.614769
vt 0.012359 0.385231
vt 0.012359 0.614769
vt 0.050071 0.720166
vt 0.050071 0.279834
vt 0.012359 0.385231
vt 0.050071 0.720166
vt 0.109234 0.186828
vt 0.050071 0.279834
vt 0.050071 0.720166
vt 0.109234 0.186828
vt 0.050071 0.720166
vt 0.109234 0.813172
vt 0.109234 0.186828
vt 0.109234 0.813172
vt 0.186828 0.890766
vt 0.186828 0.109234
vt 0.109234 0.186828
vt 0.186828 0.890766
vt 0.279834 0.050071
vt 0.186828 0.109234
vt 0.186828 0.890766
vt 0.385231 0.012359
vt 0.279834 0.050071
vt 0.186828 0.890766
vt 0.500000 -0.000883
vt 0.385231 0.012359
vt 0.186828 0.890766
vt 0.614769 0.012359
vt 0.500000 -0.000883
vt 0.186828 0.890766
vt 0.720166 0.050071
vt 0.614769 0.012359
vt 0.186828 0.890766
vt 0.813172 0.109234
vt 0.720166 0.050071
vt 0.186828 0.890766
vt 0.890766 0.186828
vt 0.813172 0.109234
vt 0.186828 0.890766
vt 0.949929 0.279833
vt 0.890766 0.186828
vt 0.186828 0.890766
vt 0.987641 0.385231
vt 0.949929 0.279833
vt 0.186828 0.890766
vt 1.000883 0.500000
vt 0.987641 0.385231
vt 0.186828 0.890766
vt 0.987641 0.614769
vt 1.000883 0.500000
vt 0.186828 0.890766
vt 0.949929 0.720166
vt 0.987641 0.614769
vt 0.186828 0.890766
vt 0.890766 0.813172
vt 0.949929 0.720166
vt 0.186828 0.890766
vt 0.813172 0.890766
vt 0.890766 0.813172
vt 0.186828 0.890766
vt 0.720167 0.949929
vt 0.813172 0.890766
vt 0.186828 0.890766
vt 0.614769 0.987641
vt 0.720167 0.949929
vt 0.186828 0.890766
vt 0.500000 1.000883
vt 0.614769 0.987641
vt 0.186828 0.890766
vt 0.385231 0.987641
vt 0.500000 1.000883
vt 0.186828 0.890766
vt 0.279834 0.949929
vt 0.385231 0.987641
vt 0.186828 0.890766
vt 0.012359 0.385231
vt -0.000883 0.500000
vt 0.012359 0.614769
vt 0.012359 0.385231
vt 0.012359 0.614769
vt 0.050071 0.720166
vt 0.050071 0.279834
vt 0.012359 0.385231
vt 0.050071 0.720166
vt 0.109234 0.186828
vt 0.050071 0.279834
vt 0.050071 0.720166
vt 0.109234 0.186828
vt 0.050071 0.720166
vt 0.109234 0.813172
vt 0.109234 0.186828
vt 0.109234 0.813172
vt 0.186828 0.890766
vt 0.186828 0.109234
vt 0.109234 0.186828
vt 0.186828 0.890766
vt 0.279834 0.050071
vt 0.186828 0.109234
vt 0.186828 0.890766
vt 0.385231 0.012359
vt 0.279834 0.050071
vt 0.186828 0.890766
vt 0.500000 -0.000883
vt 0.385231 0.012359
vt 0.186828 0.890766
vt 0.614769 0.012359
vt 0.500000 -0.000883
vt 0.186828 0.890766
vt 0.720166 0.050071
vt 0.614769 0.012359
vt 0.186828 0.890766
vt 0.813172 0.109234
vt 0.720166 0.050071
vt 0.186828 0.890766
vt 0.890766 0.186828
vt 0.813172 0.109234
vt 0.186828 0.890766
vt 0.949929 0.279833
vt 0.890766 0.186828
vt 0.186828 0.890766
vt 0.987641 0.385231
vt 0.949929 0.279833
vt 0.186828 0.890766
vt 1.000883 0.500000
vt 0.987641 0.385231
vt 0.186828 0.890766
vt 0.987641 0.614769
vt 1.000883 0.500000
vt 0.186828 0.890766
vt 0.949929 0.720166
vt 0.987641 0.614769
vt 0.186828 0.890766
vt 0.890766 0.813172
vt 0.949929 0.720166
vt 0.186828 0.890766
vt 0.813172 0.890766
vt 0.890766 0.813172
vt 0.186828 0.890766
vt 0.720167 0.949929
vt 0.813172 0.890766
vt 0.186828 0.890766
vt 0.614769 0.987641
vt 0.720167 0.949929
vt 0.186828 0.890766
vt 0.500000 1.000883
vt 0.614769 0.987641
vt 0.186828 0.890766
vt 0.385231 0.987641
vt 0.500000 1.000883
vt 0.186828 0.890766
vt 0.279834 0.949929
vt 0.385231 0.987641
vt 0.186828 0.890766
# 156 texture coordinates

vn 0.000000 -0.000000 1.000000
vn 0.000000 -0.000000 1.000000
vn 0.000000 -0.000000 1.000000
vn 0.000000 -0.000000 1.000000
vn 0.000000 -0.000000 1.000000
vn 0.000000 -0.000000 1.000000
vn 0.000000 -0.000000 1.000000
vn 0.000000 -0.000000 1.000000
vn 0.000000 -0.000000 1.000000
vn 0.000000 -0.000000 1.000000
vn 0.000000 -0.000000 1.000000
vn 0.000000 -0.000000 1.000000
vn 0.000000 -0.000000 1.000000
vn 0.000000 -0.000000 1.000000
vn 0.000000 -0.000000 1.000000
vn 0.000000 -0.000000 1.000000
vn 0.000000 -0.000000 1.000000
vn 0.000000 -0.000000 1.000000
vn 0.000000 -0.000000 1.000000
vn 0.000000 -0.000000 1.000000
vn 0.000000 -0.000000 1.000000
vn 0.000000 -0.000000 1.000000
vn 0.000000 -0.000000 1.000000
vn 0.000000 -0.000000 1.000000
vn 0.000000 -0.000000 1.000000
vn 0.000000 -0.000000 1.000000
vn 0.000000 -0.000000 1.000000
vn 0.000000 -0.000000 1.000000
vn 0.000000 -0.000000 1.000000
vn 0.000000 -0.000000 1.000000
vn 0.000000 -0.000000 1.000000
vn 0.000000 -0.000000 1.000000
vn 0.000000 -0.000000 1.000000
vn 0.000000 -0.000000 1.000000
vn 0.000000 -0.000000 1.000000
vn 0.000000 -0.000000 1.000000
vn 0.000000 -0.000000 1.000000
vn 0.000000 -0.000000 1.000000
vn 0.000000 -0.000000 1.000000
vn 0.000000 -0.000000 1.000000
vn 0.000000 -0.000000 1.000000
vn 0.000000 -0.000000 1.000000
vn 0.000000 -0.000000 1.000000
vn 0.000000 -0.000000 1.000000
vn 0.000000 -0.000000 1.000000
vn 0.000000 -0.000000 1.000000
vn 0.000000 -0.000000 1.000000
vn 0.000000 -0.000000 1.000000
vn 0.000000 -0.000000 1.000000
vn 0.000000 -0.000000 1.000000
vn 0.000000 -0.000000 1.000000
vn 0.000000 -0.000000 1.000000
vn 0.000000 -0.000000 1.000000
vn 0.000000 -0.000000 1.000000
vn 0.000000 -0.000000 1.000000
vn 0.000000 -0.000000 1.000000
vn 0.000000 -0.000000 1.000000
vn 0.000000 -0.000000 1.000000
vn 0.000000 -0.000000 1.000000
vn 0.000000 -0.000000 1.000000
vn 0.000000 -0.000000 1.000000
vn 0.000000 -0.000000 1.000000
vn 0.000000 -0.000000 1.000000
vn 0.000000 -0.000000 1.000000
vn 0.000000 -0.000000 1.000000
vn 0.000000 -0.000000 1.000000
vn 0.000000 -0.000000 1.000000
vn 0.000000 -0.000000 1.000000
vn 0.000000 -0.000000 1.000000
vn 0.000000 -0.000000 1.000000
vn 0.000000 -0.000000 1.000000
vn 0.000000 -0.000000 1.000000
vn 0.000000 -0.000000 1.000000
vn 0.000000 -0.000000 1.000000
vn 0.000000 -0.000000 1.000000
vn 0.000000 -0.000000 1.000000
vn 0.000000 -0.000000 1.000000
vn 0.000000 -0.000000 1.000000
vn -0.000000 0.000000 -1.000000
vn -0.000000 0.000000 -1.000000
vn -0.000000 0.000000 -1.000000
vn -0.000000 0.000000 -1.000000
vn -0.000000 0.000000 -1.000000
vn -0.000000 0.000000 -1.000000
vn -0.000000 0.000000 -1.000000
vn -0.000000 0.000000 -1.000000
vn -0.000000 0.000000 -1.000000
vn -0.000000 0.000000 -1.000000
vn -0.000000 0.000000 -1.000000
vn -0.000000 0.000000 -1.000000
vn -0.000000 0.000000 -1.000000
vn -0.000000 0.000000 -1.000000
vn -0.000000 0.000000 -1.000000
vn -0.000000 0.000000 -1.000000
vn -0.000000 0.000000 -1.000000
vn -0.000000 0.000000 -1.000000
vn -0.000000 0.000000 -1.000000
vn -0.000000 0.000000 -1.000000
vn -0.000000 0.000000 -1.000000
vn -0.000000 0.000000 -1.000000
vn -0.000000 0.000000 -1.000000
vn -0.000000 0.000000 -1.000000
vn -0.000000 0.000000 -1.000000
vn -0.000000 0.000000 -1.000000
vn -0.000000 0.000000 -1.000000
vn -0.000000 0.000000 -1.000000
vn -0.000000 0.000000 -1.000000
vn -0.000000 0.000000 -1.000000
vn -0.000000 0.000000 -1.000000
vn -0.000000 0.000000 -1.000000
vn -0.000000 0.000000 -1.000000
vn -0.000000 0.000000 -1.000000
vn -0.000000 0.000000 -1.000000
vn -0.000000 0.000000 -1.000000
vn -0.000000 0.000000 -1.000000
vn -0.000000 0.000000 -1.000000
vn -0.000000 0.000000 -1.000000
vn -0.000000 0.000000 -1.000000
vn -0.000000 0.000000 -1.000000
vn -0.000000 0.000000 -1.000000
vn -0.000000 0.000000 -1.000000
vn -0.000000 0.000000 -1.000000
vn -0.000000 0.000000 -1.000000
vn -0.000000 0.000000 -1.000000
vn -0.000000 0.000000 -1.000000
vn -0.000000 0.000000 -1.000000
vn -0.000000 0.000000 -1.000000
vn -0.000000 0.000000 -1.000000
vn -0.000000 0.000000 -1.000000
vn -0.000000 0.000000 -1.000000
vn -0.000000 0.000000 -1.000000
vn -0.000000 0.000000 -1.000000
vn -0.000000 0.000000 -1.000000
vn -0.000000 0.000000 -1.000000
vn -0.000000 0.000000 -1.000000
vn -0.000000 0.000000 -1.000000
vn -0.000000 0.000000 -1.000000
vn -0.000000 0.000000 -1.000000
vn -0.000000 0.000000 -1.000000
vn -0.000000 0.000000 -1.000000
vn -0.000000 0.000000 -1.000000
vn -0.000000 0.000000 -1.000000
vn -0.000000 0.000000 -1.000000
vn -0.000000 0.000000 -1.000000
vn -0.000000 0.000000 -1.000000
vn -0.000000 0.000000 -1.000000
vn -0.000000 0.000000 -1.000000
vn -0.000000 0.000000 -1.000000
vn -0.000000 0.000000 -1.000000
vn -0.000000 0.000000 -1.000000
vn -0.000000 0.000000 -1.000000
vn -0.000000 0.000000 -1.000000
vn -0.000000 0.000000 -1.000000
vn -0.000000 0.000000 -1.000000
vn -0.000000 0.000000 -1.000000
vn -0.000000 0.000000 -1.000000
# 156 normals

g object0
usemtl Material_0
f 1/1/1  2/2/2  3/3/3
f 7/7/7  8/8/8  9/9/9
f 10/10/10  11/11/11  12/12/12
f 13/13/13  14/14/14  15/15/15
f 16/16/16  17/17/17  18/18/18
f 19/19/19  20/20/20  21/21/21
f 22/22/22  23/23/23  24/24/24
f 25/25/25  26/26/26  27/27/27
f 28/28/28  29/29/29  30/30/30
f 31/31/31  32/32/32  33/33/33
f 34/34/34  35/35/35  36/36/36
f 37/37/37  38/38/38  39/39/39
f 40/40/40  41/41/41  42/42/42
f 43/43/43  44/44/44  45/45/45
f 46/46/46  47/47/47  48/48/48
f 49/49/49  50/50/50  51/51/51
f 52/52/52  53/53/53  54/54/54
f 55/55/55  56/56/56  57/57/57
f 58/58/58  59/59/59  60/60/60
f 61/61/61  62/62/62  63/63/63
f 64/64/64  65/65/65  66/66/66
f 67/67/67  68/68/68  69/69/69
f 70/70/70  71/71/71  72/72/72
f 73/73/73  74/74/74  75/75/75
f 76/76/76  77/77/77  78/78/78
f 79/79/79  81/81/81  80/80/80
f 82/82/82  84/84/84  83/83/83
f 85/85/85  87/87/87  86/86/86
f 88/88/88  90/90/90  89/89/89
f 91/91/91  93/93/93  92/92/92
f 94/94/94  96/96/96  95/95/95
f 97/97/97  99/99/99  98/98/98
f 100/100/100  102/102/102  101/101/101
f 103/103/103  105/105/105  104/104/104
f 106/106/106  108/108/108  107/107/107
f 109/109/109  111/111/111  110/110/110
f 112/112/112  114/114/114  113/113/113
f 115/115/115  117/117/117  116/116/116
f 118/118/118  120/120/120  119/119/119
f 121/121/121  123/123/123  122/122/122
f 124/124/124  126/126/126  125/125/125
f 127/127/127  129/129/129  128/128/128
f 130/130/130  132/132/132  131/131/131
f 133/133/133  135/135/135  134/134/134
f 136/136/136  138/138/138  137/137/137
f 139/139/139  141/141/141  140/140/140
f 142/142/142  144/144/144  143/143/143
f 145/145/145  147/147/147  146/146/146
f 148/148/148  150/150/150  149/149/149
f 151/151/151  153/153/153  152/152/152
f 154/154/154  156/156/156  155/155/155
f 4/4/4  5/5/5  6/6/6
# 52 polygons in group

# 52 polygons total
