# Wavefront OBJ exported by IMDeditor

mtllib prec_portal_effect4.mtl

v   -11.001695 5.146337 0.000000
v    11.049584 5.146337 0.000000
v    11.049584 -4.487362 -0.000000
v    11.049584 -4.487362 -0.000000
v   -11.001695 -4.487362 -0.000000
v   -11.001695 5.146337 0.000000
v   -11.001695 5.146337 0.000000
v    11.049584 5.146337 0.000000
v    11.049584 -4.487362 -0.000000
v    11.049584 -4.487362 -0.000000
v   -11.001695 -4.487362 -0.000000
v   -11.001695 5.146337 0.000000
# 12 vertices

vt 0.999501 1.034472
vt 0.000500 1.034473
vt 0.000500 0.035473
vt 0.000500 0.035473
vt 0.999500 0.035472
vt 0.999501 1.034472
vt 0.999501 1.034472
vt 0.000500 1.034473
vt 0.000500 0.035473
vt 0.000500 0.035473
vt 0.999500 0.035472
vt 0.999501 1.034472
# 12 texture coordinates

vn 0.000000 0.000000 -1.000000
vn 0.000000 0.000000 -1.000000
vn 0.000000 0.000000 -1.000000
vn 0.000000 0.000000 -1.000000
vn 0.000000 0.000000 -1.000000
vn 0.000000 0.000000 -1.000000
vn -0.000000 -0.000000 1.000000
vn -0.000000 -0.000000 1.000000
vn -0.000000 -0.000000 1.000000
vn -0.000000 -0.000000 1.000000
vn -0.000000 -0.000000 1.000000
vn -0.000000 -0.000000 1.000000
# 12 normals

g object0
usemtl Material_0
f 1/1/1  2/2/2  3/3/3
f 4/4/4  5/5/5  6/6/6
f 7/7/7  9/9/9  8/8/8
f 10/10/10  12/12/12  11/11/11
# 4 polygons in group

# 4 polygons total
