# Wavefront OBJ exported by IMDeditor

mtllib RP_Level4.mtl

v    -0.068069 0.549843 0.956459
v     0.171140 0.576600 0.927278
v    -0.013166 0.761724 0.800653
v    -0.263806 0.698018 0.815330
v    -0.068069 0.549843 0.956459
v    -0.013166 0.761724 0.800653
v    -0.305510 0.494326 0.940264
v    -0.068069 0.549843 0.956459
v    -0.263806 0.698018 0.815330
v    -0.506308 0.548152 0.815333
v    -0.305510 0.494326 0.940264
v    -0.263806 0.698018 0.815330
v    -0.460078 0.307807 0.956694
v    -0.191172 0.307514 1.044254
v    -0.305510 0.494326 0.940264
v    -0.460078 0.307807 0.956694
v    -0.339807 0.110222 1.045819
v    -0.191172 0.307514 1.044254
v     0.206274 0.112752 1.079907
v     0.070778 0.334800 1.051001
v    -0.061649 0.105402 1.098374
v     0.322145 0.344480 0.999513
v     0.070778 0.334800 1.051001
v     0.206274 0.112752 1.079907
v    -0.068069 0.549843 0.956459
v    -0.305510 0.494326 0.940264
v    -0.191172 0.307514 1.044254
v     0.171140 0.576600 0.927278
v    -0.068069 0.549843 0.956459
v     0.070778 0.334800 1.051001
v     0.322145 0.344480 0.999513
v     0.171140 0.576600 0.927278
v     0.070778 0.334800 1.051001
v    -0.460078 0.307807 0.956694
v    -0.506308 0.548152 0.815333
v    -0.671627 0.336140 0.810710
v    -0.305510 0.494326 0.940264
v    -0.506308 0.548152 0.815333
v    -0.460078 0.307807 0.956694
v    -0.012197 0.749062 0.783789
v     0.169330 0.566527 0.908814
v    -0.066804 0.538862 0.938473
v    -0.012197 0.749062 0.783789
v    -0.066804 0.538862 0.938473
v    -0.259451 0.686032 0.798507
v    -0.259451 0.686032 0.798507
v    -0.066804 0.538862 0.938473
v    -0.299676 0.484885 0.922306
v    -0.259451 0.686032 0.798507
v    -0.299676 0.484885 0.922306
v    -0.497576 0.538862 0.798507
v    -0.299676 0.484885 0.922306
v    -0.185866 0.300737 1.024977
v    -0.452098 0.300737 0.938473
v    -0.185866 0.300737 1.024977
v    -0.333464 0.105300 1.026295
v    -0.452098 0.300737 0.938473
v    -0.062981 0.101905 1.077598
v     0.068148 0.328368 1.031066
v     0.203665 0.108501 1.059394
v     0.203665 0.108501 1.059394
v     0.068148 0.328368 1.031066
v     0.318376 0.337752 0.979861
v    -0.185866 0.300737 1.024977
v    -0.299676 0.484885 0.922306
v    -0.066804 0.538862 0.938473
v     0.068148 0.328368 1.031066
v    -0.066804 0.538862 0.938473
v     0.169330 0.566527 0.908814
v     0.068148 0.328368 1.031066
v     0.169330 0.566527 0.908814
v     0.318376 0.337752 0.979861
v    -0.661179 0.328368 0.794093
v    -0.497576 0.538862 0.798507
v    -0.452098 0.300737 0.938473
v    -0.452098 0.300737 0.938473
v    -0.497576 0.538862 0.798507
v    -0.299676 0.484885 0.922306
v     0.171140 0.576600 0.927278
v     0.169330 0.566527 0.908814
v    -0.012197 0.749062 0.783789
v    -0.012197 0.749062 0.783789
v    -0.013166 0.761724 0.800653
v     0.171140 0.576600 0.927278
v    -0.013166 0.761724 0.800653
v    -0.012197 0.749062 0.783789
v    -0.259451 0.686032 0.798507
v    -0.259451 0.686032 0.798507
v    -0.263806 0.698018 0.815330
v    -0.013166 0.761724 0.800653
v    -0.263806 0.698018 0.815330
v    -0.259451 0.686032 0.798507
v    -0.497576 0.538862 0.798507
v    -0.497576 0.538862 0.798507
v    -0.506308 0.548152 0.815333
v    -0.263806 0.698018 0.815330
v    -0.339807 0.110222 1.045819
v    -0.333464 0.105300 1.026295
v    -0.185866 0.300737 1.024977
v    -0.185866 0.300737 1.024977
v    -0.191172 0.307514 1.044254
v    -0.339807 0.110222 1.045819
v    -0.460078 0.307807 0.956694
v    -0.452098 0.300737 0.938473
v    -0.333464 0.105300 1.026295
v    -0.333464 0.105300 1.026295
v    -0.339807 0.110222 1.045819
v    -0.460078 0.307807 0.956694
v     0.070778 0.334800 1.051001
v     0.068148 0.328368 1.031066
v    -0.062981 0.101905 1.077598
v    -0.062981 0.101905 1.077598
v    -0.061649 0.105402 1.098374
v     0.070778 0.334800 1.051001
v    -0.061649 0.105402 1.098374
v    -0.062981 0.101905 1.077598
v     0.203665 0.108501 1.059394
v     0.203665 0.108501 1.059394
v     0.206274 0.112752 1.079907
v    -0.061649 0.105402 1.098374
v     0.206274 0.112752 1.079907
v     0.203665 0.108501 1.059394
v     0.318376 0.337752 0.979861
v     0.318376 0.337752 0.979861
v     0.322145 0.344480 0.999513
v     0.206274 0.112752 1.079907
v    -0.191172 0.307514 1.044254
v    -0.185866 0.300737 1.024977
v    -0.066804 0.538862 0.938473
v    -0.066804 0.538862 0.938473
v    -0.068069 0.549843 0.956459
v    -0.191172 0.307514 1.044254
v    -0.068069 0.549843 0.956459
v    -0.066804 0.538862 0.938473
v     0.068148 0.328368 1.031066
v     0.068148 0.328368 1.031066
v     0.070778 0.334800 1.051001
v    -0.068069 0.549843 0.956459
v     0.322145 0.344480 0.999513
v     0.318376 0.337752 0.979861
v     0.169330 0.566527 0.908814
v     0.169330 0.566527 0.908814
v     0.171140 0.576600 0.927278
v     0.322145 0.344480 0.999513
v    -0.506308 0.548152 0.815333
v    -0.497576 0.538862 0.798507
v    -0.661179 0.328368 0.794093
v    -0.661179 0.328368 0.794093
v    -0.671627 0.336140 0.810710
v    -0.506308 0.548152 0.815333
v    -0.671627 0.336140 0.810710
v    -0.661179 0.328368 0.794093
v    -0.452098 0.300737 0.938473
v    -0.452098 0.300737 0.938473
v    -0.460078 0.307807 0.956694
v    -0.671627 0.336140 0.810710
# 156 vertices

vt 0.008487 0.168651
vt 0.496983 0.982070
vt 0.985657 0.168669
vt 0.496983 0.982070
vt 0.985657 0.168669
vt 0.008487 0.168651
vt 0.985657 0.168669
vt 0.008487 0.168651
vt 0.496983 0.982070
vt 0.496983 0.982070
vt 0.985657 0.168669
vt 0.008487 0.168651
vt 0.985657 0.168669
vt 0.008487 0.168651
vt 0.496983 0.982070
vt 0.008487 0.168651
vt 0.496983 0.982070
vt 0.985657 0.168669
vt 0.496983 0.982070
vt 0.985657 0.168669
vt 0.008487 0.168651
vt 0.985657 0.168669
vt 0.008487 0.168651
vt 0.496983 0.982070
vt 0.008487 0.168651
vt 0.496983 0.982070
vt 0.985657 0.168669
vt 0.008487 0.168651
vt 0.496983 0.982070
vt 0.985657 0.168669
vt 0.008487 0.168651
vt 0.496983 0.982070
vt 0.985657 0.168669
vt 0.008487 0.168651
vt 0.496983 0.982070
vt 0.985657 0.168669
vt 0.985657 0.168669
vt 0.008487 0.168651
vt 0.496983 0.982070
vt 0.496983 0.982070
vt 0.985657 0.168669
vt 0.008487 0.168651
vt 0.496983 0.982070
vt 0.985657 0.168669
vt 0.008487 0.168651
vt 0.008487 0.168651
vt 0.496983 0.982070
vt 0.985657 0.168669
vt 0.496983 0.982070
vt 0.985657 0.168669
vt 0.008487 0.168651
vt 0.496983 0.982070
vt 0.985657 0.168669
vt 0.008487 0.168651
vt 0.008487 0.168651
vt 0.496983 0.982070
vt 0.985657 0.168669
vt 0.496983 0.982070
vt 0.985657 0.168669
vt 0.008487 0.168651
vt 0.496983 0.982070
vt 0.985657 0.168669
vt 0.008487 0.168651
vt 0.985657 0.168669
vt 0.008487 0.168651
vt 0.496983 0.982070
vt 0.496983 0.982070
vt 0.985657 0.168669
vt 0.008487 0.168651
vt 0.008487 0.168651
vt 0.496983 0.982070
vt 0.985657 0.168669
vt 0.008487 0.168651
vt 0.496983 0.982070
vt 0.985657 0.168669
vt 0.008487 0.168651
vt 0.496983 0.982070
vt 0.985657 0.168669
vt 0.007466 0.012251
vt 0.007427 0.139651
vt 0.992482 0.139637
vt 0.992482 0.139637
vt 0.992468 0.012152
vt 0.007466 0.012251
vt 0.992482 0.139637
vt 0.992468 0.012152
vt 0.007466 0.012251
vt 0.007466 0.012251
vt 0.007427 0.139651
vt 0.992482 0.139637
vt 0.992482 0.139637
vt 0.992468 0.012152
vt 0.007466 0.012251
vt 0.007466 0.012251
vt 0.007427 0.139651
vt 0.992482 0.139637
vt 0.007466 0.012251
vt 0.007427 0.139651
vt 0.992482 0.139637
vt 0.992482 0.139637
vt 0.992468 0.012152
vt 0.007466 0.012251
vt 0.992482 0.139637
vt 0.992468 0.012152
vt 0.007466 0.012251
vt 0.007466 0.012251
vt 0.007427 0.139651
vt 0.992482 0.139637
vt 0.992482 0.139637
vt 0.992468 0.012152
vt 0.007466 0.012251
vt 0.007466 0.012251
vt 0.007427 0.139651
vt 0.992482 0.139637
vt 0.992482 0.139637
vt 0.992468 0.012152
vt 0.007466 0.012251
vt 0.007466 0.012251
vt 0.007427 0.139651
vt 0.992482 0.139637
vt 0.007466 0.012251
vt 0.007427 0.139651
vt 0.992482 0.139637
vt 0.992482 0.139637
vt 0.992468 0.012152
vt 0.007466 0.012251
vt 0.992482 0.139637
vt 0.992468 0.012152
vt 0.007466 0.012251
vt 0.007466 0.012251
vt 0.007427 0.139651
vt 0.992482 0.139637
vt 0.992482 0.139637
vt 0.992468 0.012152
vt 0.007466 0.012251
vt 0.007466 0.012251
vt 0.007427 0.139651
vt 0.992482 0.139637
vt 0.992482 0.139637
vt 0.992468 0.012152
vt 0.007466 0.012251
vt 0.007466 0.012251
vt 0.007427 0.139651
vt 0.992482 0.139637
vt 0.007466 0.012251
vt 0.007427 0.139651
vt 0.992482 0.139637
vt 0.992482 0.139637
vt 0.992468 0.012152
vt 0.007466 0.012251
vt 0.007466 0.012251
vt 0.007427 0.139651
vt 0.992482 0.139637
vt 0.992482 0.139637
vt 0.992468 0.012152
vt 0.007466 0.012251
# 156 texture coordinates

vn -0.060025 0.520307 0.851867
vn 0.085204 0.476757 0.874896
vn -0.045946 0.599493 0.799060
vn -0.206279 0.567335 0.797232
vn -0.060025 0.520307 0.851867
vn -0.045946 0.599493 0.799060
vn -0.276173 0.447347 0.850652
vn -0.060025 0.520307 0.851867
vn -0.206279 0.567335 0.797232
vn -0.413337 0.439788 0.797332
vn -0.276173 0.447347 0.850652
vn -0.206279 0.567335 0.797232
vn -0.377702 0.335298 0.863085
vn -0.251435 0.321567 0.912894
vn -0.276173 0.447347 0.850652
vn -0.377702 0.335298 0.863085
vn -0.300792 0.233946 0.924550
vn -0.251435 0.321567 0.912894
vn 0.123253 0.201702 0.971661
vn 0.124651 0.305020 0.944153
vn 0.063249 0.166691 0.983979
vn 0.178384 0.318925 0.930842
vn 0.124651 0.305020 0.944153
vn 0.123253 0.201702 0.971661
vn -0.060025 0.520307 0.851867
vn -0.276173 0.447347 0.850652
vn -0.251435 0.321567 0.912894
vn 0.085204 0.476757 0.874896
vn -0.060025 0.520307 0.851867
vn 0.124651 0.305020 0.944153
vn 0.178384 0.318925 0.930842
vn 0.085204 0.476757 0.874896
vn 0.124651 0.305020 0.944153
vn -0.377702 0.335298 0.863085
vn -0.413337 0.439788 0.797332
vn -0.494169 0.368160 0.787563
vn -0.276173 0.447347 0.850652
vn -0.413337 0.439788 0.797332
vn -0.377702 0.335298 0.863085
vn 0.045897 -0.599787 -0.798842
vn -0.085722 -0.477168 -0.874621
vn 0.059962 -0.520147 -0.851969
vn 0.045897 -0.599787 -0.798842
vn 0.059962 -0.520147 -0.851969
vn 0.206309 -0.567778 -0.796910
vn 0.206309 -0.567778 -0.796910
vn 0.059962 -0.520147 -0.851969
vn 0.276393 -0.447214 -0.850651
vn 0.206309 -0.567778 -0.796910
vn 0.276393 -0.447214 -0.850651
vn 0.413661 -0.440030 -0.797031
vn 0.276393 -0.447214 -0.850651
vn 0.251344 -0.321011 -0.913115
vn 0.378015 -0.334879 -0.863111
vn 0.251344 -0.321011 -0.913115
vn 0.300499 -0.233177 -0.924840
vn 0.378015 -0.334879 -0.863111
vn -0.063088 -0.165685 -0.984159
vn -0.124572 -0.304662 -0.944279
vn -0.123566 -0.201355 -0.971693
vn -0.123566 -0.201355 -0.971693
vn -0.124572 -0.304662 -0.944279
vn -0.178544 -0.318659 -0.930902
vn 0.251344 -0.321011 -0.913115
vn 0.276393 -0.447214 -0.850651
vn 0.059962 -0.520147 -0.851969
vn -0.124572 -0.304662 -0.944279
vn 0.059962 -0.520147 -0.851969
vn -0.085722 -0.477168 -0.874621
vn -0.124572 -0.304662 -0.944279
vn -0.085722 -0.477168 -0.874621
vn -0.178544 -0.318659 -0.930902
vn 0.494890 -0.368141 -0.787119
vn 0.413661 -0.440030 -0.797031
vn 0.378015 -0.334879 -0.863111
vn 0.378015 -0.334879 -0.863111
vn 0.413661 -0.440030 -0.797031
vn 0.276393 -0.447214 -0.850651
vn 0.805805 0.483219 -0.342313
vn 0.805624 0.483434 -0.342434
vn 0.772611 0.527966 -0.352597
vn 0.772611 0.527966 -0.352597
vn 0.772587 0.528246 -0.352231
vn 0.805805 0.483219 -0.342313
vn -0.231795 0.771018 -0.593129
vn -0.231928 0.771434 -0.592536
vn -0.328167 0.727329 -0.602743
vn -0.328167 0.727329 -0.602743
vn -0.326998 0.727596 -0.603056
vn -0.231795 0.771018 -0.593129
vn -0.326998 0.727596 -0.603056
vn -0.328167 0.727329 -0.602743
vn -0.528381 0.596895 -0.603764
vn -0.528381 0.596895 -0.603764
vn -0.528999 0.595875 -0.604229
vn -0.326998 0.727596 -0.603056
vn 0.739036 -0.555461 0.381168
vn 0.739264 -0.555739 0.380319
vn 0.817107 -0.435621 0.377584
vn 0.817107 -0.435621 0.377584
vn 0.816514 -0.437807 0.376336
vn 0.739036 -0.555461 0.381168
vn -0.595127 -0.802007 0.051074
vn -0.594943 -0.802141 0.051116
vn -0.820793 -0.556893 -0.127162
vn -0.820793 -0.556893 -0.127162
vn -0.821003 -0.556758 -0.126387
vn -0.595127 -0.802007 0.051074
vn -0.868477 0.493793 -0.043774
vn -0.868487 0.493692 -0.044712
vn -0.868210 0.495373 -0.028592
vn -0.868210 0.495373 -0.028592
vn -0.868189 0.495457 -0.027757
vn -0.868477 0.493793 -0.043774
vn 0.035814 -0.985575 0.165406
vn 0.035566 -0.985870 0.163693
vn 0.040265 -0.979744 0.196162
vn 0.040265 -0.979744 0.196162
vn 0.040502 -0.979405 0.197802
vn 0.035814 -0.985575 0.165406
vn 0.891428 -0.452749 -0.019365
vn 0.891396 -0.452804 -0.019524
vn 0.891971 -0.451788 -0.016594
vn 0.891971 -0.451788 -0.016594
vn 0.891999 -0.451737 -0.016448
vn 0.891428 -0.452749 -0.019365
vn 0.816514 -0.437807 0.376336
vn 0.817107 -0.435621 0.377584
vn 0.892927 -0.351270 0.281586
vn 0.892927 -0.351270 0.281586
vn 0.893283 -0.352941 0.278349
vn 0.816514 -0.437807 0.376336
vn -0.862229 -0.456102 0.220300
vn -0.862347 -0.456869 0.218238
vn -0.859652 -0.443024 0.254417
vn -0.859652 -0.443024 0.254417
vn -0.859494 -0.442357 0.256108
vn -0.862229 -0.456102 0.220300
vn 0.837103 0.447689 -0.314378
vn 0.837158 0.447924 -0.313895
vn 0.805624 0.483434 -0.342434
vn 0.805624 0.483434 -0.342434
vn 0.805805 0.483219 -0.342313
vn 0.837103 0.447689 -0.314378
vn -0.528999 0.595875 -0.604229
vn -0.528381 0.596895 -0.603764
vn -0.614859 0.492765 -0.615737
vn -0.614859 0.492765 -0.615737
vn -0.614296 0.492447 -0.616552
vn -0.528999 0.595875 -0.604229
vn -0.292717 -0.923749 0.246993
vn -0.293056 -0.923464 0.247654
vn -0.594943 -0.802141 0.051116
vn -0.594943 -0.802141 0.051116
vn -0.595127 -0.802007 0.051074
vn -0.292717 -0.923749 0.246993
# 156 normals

g object0
usemtl Material_0
f 1/1/1  2/2/2  3/3/3
f 7/7/7  8/8/8  9/9/9
f 10/10/10  11/11/11  12/12/12
f 13/13/13  14/14/14  15/15/15
f 16/16/16  17/17/17  18/18/18
f 19/19/19  20/20/20  21/21/21
f 22/22/22  23/23/23  24/24/24
f 25/25/25  26/26/26  27/27/27
f 28/28/28  29/29/29  30/30/30
f 31/31/31  32/32/32  33/33/33
f 34/34/34  35/35/35  36/36/36
f 37/37/37  38/38/38  39/39/39
f 40/40/40  41/41/41  42/42/42
f 43/43/43  44/44/44  45/45/45
f 46/46/46  47/47/47  48/48/48
f 49/49/49  50/50/50  51/51/51
f 52/52/52  53/53/53  54/54/54
f 55/55/55  56/56/56  57/57/57
f 58/58/58  59/59/59  60/60/60
f 61/61/61  62/62/62  63/63/63
f 64/64/64  65/65/65  66/66/66
f 67/67/67  68/68/68  69/69/69
f 70/70/70  71/71/71  72/72/72
f 73/73/73  74/74/74  75/75/75
f 76/76/76  77/77/77  78/78/78
f 79/79/79  80/80/80  81/81/81
f 82/82/82  83/83/83  84/84/84
f 85/85/85  86/86/86  87/87/87
f 88/88/88  89/89/89  90/90/90
f 91/91/91  92/92/92  93/93/93
f 94/94/94  95/95/95  96/96/96
f 97/97/97  98/98/98  99/99/99
f 100/100/100  101/101/101  102/102/102
f 103/103/103  104/104/104  105/105/105
f 106/106/106  107/107/107  108/108/108
f 109/109/109  110/110/110  111/111/111
f 112/112/112  113/113/113  114/114/114
f 115/115/115  116/116/116  117/117/117
f 118/118/118  119/119/119  120/120/120
f 121/121/121  122/122/122  123/123/123
f 124/124/124  125/125/125  126/126/126
f 127/127/127  128/128/128  129/129/129
f 130/130/130  131/131/131  132/132/132
f 133/133/133  134/134/134  135/135/135
f 136/136/136  137/137/137  138/138/138
f 139/139/139  140/140/140  141/141/141
f 142/142/142  143/143/143  144/144/144
f 145/145/145  146/146/146  147/147/147
f 148/148/148  149/149/149  150/150/150
f 151/151/151  152/152/152  153/153/153
f 154/154/154  155/155/155  156/156/156
f 4/4/4  5/5/5  6/6/6
# 52 polygons in group

# 52 polygons total
