# Wavefront OBJ exported by IMDeditor

mtllib Satan_patch1.mtl

v    -0.014460 0.000000 -0.015775
v     0.014460 0.000000 0.015775
v     0.014460 0.000000 -0.015775
v    -0.014460 0.000000 -0.015775
v    -0.014460 0.000000 0.015775
# 5 vertices

v    -0.189048 -0.056588 0.358510
v    -0.185316 -0.018621 0.380835
v    -0.267422 0.086353 0.199751
v    -0.267422 0.086353 0.199751
v    -0.267423 0.050810 0.179609
v    -0.189048 -0.056588 0.358510
v     0.282301 0.050808 0.177656
v     0.279695 0.086351 0.197817
v     0.200537 -0.018625 0.378084
v     0.200537 -0.018625 0.378084
v     0.204271 -0.056592 0.355706
v     0.282301 0.050808 0.177656
v     0.111831 -0.079329 0.372234
v     0.109852 -0.047136 0.390385
v    -0.094650 -0.047134 0.391929
v    -0.094650 -0.047134 0.391929
v    -0.096629 -0.079326 0.373808
v     0.111831 -0.079329 0.372234
v    -0.096629 -0.079326 0.373808
v    -0.094650 -0.047134 0.391929
v    -0.185316 -0.018621 0.380835
v    -0.185316 -0.018621 0.380835
v    -0.189048 -0.056588 0.358510
v    -0.096629 -0.079326 0.373808
v     0.204271 -0.056592 0.355706
v     0.200537 -0.018625 0.378084
v     0.109852 -0.047136 0.390385
v     0.109852 -0.047136 0.390385
v     0.111831 -0.079329 0.372234
v     0.204271 -0.056592 0.355706
v    -0.267422 0.086353 0.199751
v     0.279695 0.086351 0.197817
v     0.282301 0.050808 0.177656
v     0.282301 0.050808 0.177656
v    -0.267423 0.050810 0.179609
v    -0.267422 0.086353 0.199751
# 36 vertices

vt 1.000000 1.000000
vt 0.000000 0.000000
vt 0.000000 1.000000
vt 1.000000 1.000000
vt 1.000000 0.000000
# 5 texture coordinates

vt 0.056331 0.672455
vt 0.056331 0.672455
vt 0.067439 0.692146
vt 0.067439 0.692146
vt 0.067439 0.692146
vt 0.056331 0.672455
vt 0.069546 0.692847
vt 0.069546 0.692847
vt 0.056956 0.673482
vt 0.056956 0.673482
vt 0.056956 0.673482
vt 0.069546 0.692847
vt 0.053869 0.664347
vt 0.053869 0.664347
vt 0.053736 0.644629
vt 0.053736 0.644629
vt 0.053736 0.644629
vt 0.053869 0.664347
vt 0.053736 0.663391
vt 0.053736 0.663391
vt 0.056331 0.672455
vt 0.056331 0.672455
vt 0.056331 0.672455
vt 0.053736 0.663391
vt 0.056956 0.673482
vt 0.056956 0.673482
vt 0.053869 0.664347
vt 0.053869 0.664347
vt 0.053869 0.664347
vt 0.056956 0.673482
vt 0.069546 0.692847
vt 0.069546 0.692847
vt 0.069546 0.692847
vt 0.069546 0.692847
vt 0.069546 0.692847
vt 0.069546 0.692847
# 36 texture coordinates

vn 0.000000 1.000000 0.000000
vn 0.000000 1.000000 0.000000
vn 0.000000 1.000000 0.000000
vn 0.000000 1.000000 0.000000
vn 0.000000 1.000000 0.000000
# 5 normals

vn -0.662277 -0.334519 0.670437
vn -0.673399 -0.323184 0.664895
vn -0.935403 -0.166321 0.312023
vn -0.935403 -0.166321 0.312023
vn -0.936106 -0.173383 0.306012
vn -0.662277 -0.334519 0.670437
vn 0.933069 -0.121621 0.338512
vn 0.933061 -0.123255 0.337943
vn 0.680772 -0.321941 0.657954
vn 0.680772 -0.321941 0.657954
vn 0.669825 -0.325831 0.667209
vn 0.933069 -0.121621 0.338512
vn 0.136344 -0.480166 0.866516
vn 0.139972 -0.480979 0.865486
vn -0.126574 -0.480648 0.867730
vn -0.126574 -0.480648 0.867730
vn -0.122325 -0.482379 0.867379
vn 0.136344 -0.480166 0.866516
vn -0.122325 -0.482379 0.867379
vn -0.126574 -0.480648 0.867730
vn -0.673399 -0.323184 0.664895
vn -0.673399 -0.323184 0.664895
vn -0.662277 -0.334519 0.670437
vn -0.122325 -0.482379 0.867379
vn 0.669825 -0.325831 0.667209
vn 0.680772 -0.321941 0.657954
vn 0.139972 -0.480979 0.865486
vn 0.139972 -0.480979 0.865486
vn 0.136344 -0.480166 0.866516
vn 0.669825 -0.325831 0.667209
vn -0.003087 0.493036 -0.870003
vn -0.003073 0.493200 -0.869910
vn -0.003074 0.493192 -0.869915
vn -0.003074 0.493192 -0.869915
vn -0.003088 0.493028 -0.870008
vn -0.003087 0.493036 -0.870003
# 36 normals

g object0
usemtl Material_0
f 1/1/1  2/2/2  3/3/3
f 2/2/2  4/4/4  5/5/5
# 2 polygons in group

g object1
usemtl Material_1
f 6/6/6  7/7/7  8/8/8
f 9/9/9  10/10/10  11/11/11
f 12/12/12  13/13/13  14/14/14
f 15/15/15  16/16/16  17/17/17
f 18/18/18  19/19/19  20/20/20
f 21/21/21  22/22/22  23/23/23
f 24/24/24  25/25/25  26/26/26
f 27/27/27  28/28/28  29/29/29
f 30/30/30  31/31/31  32/32/32
f 33/33/33  34/34/34  35/35/35
f 36/36/36  37/37/37  38/38/38
f 39/39/39  40/40/40  41/41/41
# 12 polygons in group

# 14 polygons total
