# Wavefront OBJ exported by IMDeditor

mtllib Satelit.mtl

v    -0.606967 0.000099 0.052643
v    -0.604693 0.000099 0.054633
v    -0.604693 0.000099 0.052643
v    -0.606967 0.000099 0.052643
v    -0.606967 0.000099 0.054633
# 5 vertices

vt 1.000000 1.000000
vt 0.000000 0.000000
vt 0.000000 1.000000
vt 1.000000 1.000000
vt 1.000000 0.000000
# 5 texture coordinates

vn 0.000000 1.000000 0.000000
vn 0.000000 1.000000 0.000000
vn 0.000000 1.000000 0.000000
vn 0.000000 1.000000 0.000000
vn 0.000000 1.000000 0.000000
# 5 normals

g object0
usemtl Material_0
f 1/1/1  2/2/2  3/3/3
f 2/2/2  4/4/4  5/5/5
# 2 polygons in group

# 2 polygons total
