# Wavefront OBJ exported by IMDeditor

mtllib SST_Logo.mtl

v     6.000708 12.173248 0.000266
v     6.000708 0.173248 0.000266
v    -5.999293 0.173248 0.000266
v    -5.999293 0.173248 0.000266
v    -5.999293 12.173248 0.000266
v     6.000708 12.173248 0.000266
v     6.000708 12.173248 0.000266
v     6.000708 0.173248 0.000266
v    -5.999293 0.173248 0.000266
v    -5.999293 0.173248 0.000266
v    -5.999293 12.173248 0.000266
v     6.000708 12.173248 0.000266
# 12 vertices

vt 0.999500 0.999501
vt 0.999500 0.000499
vt 0.000500 0.000499
vt 0.000500 0.000499
vt 0.000500 0.999501
vt 0.999500 0.999501
vt 0.999500 0.999501
vt 0.999500 0.000499
vt 0.000500 0.000499
vt 0.000500 0.000499
vt 0.000500 0.999501
vt 0.999500 0.999501
# 12 texture coordinates

vn 0.000000 0.000000 -1.000000
vn 0.000000 0.000000 -1.000000
vn 0.000000 0.000000 -1.000000
vn 0.000000 0.000000 -1.000000
vn 0.000000 0.000000 -1.000000
vn 0.000000 0.000000 -1.000000
vn -0.000000 -0.000000 1.000000
vn -0.000000 -0.000000 1.000000
vn -0.000000 -0.000000 1.000000
vn -0.000000 -0.000000 1.000000
vn -0.000000 -0.000000 1.000000
vn -0.000000 -0.000000 1.000000
# 12 normals

g object0
usemtl Material_0
f 1/1/1  2/2/2  3/3/3
f 4/4/4  5/5/5  6/6/6
f 7/7/7  9/9/9  8/8/8
f 10/10/10  12/12/12  11/11/11
# 4 polygons in group

# 4 polygons total
