# Wavefront OBJ exported by IMDeditor

mtllib Station_triada_destroyed.mtl

v   -19.451189 -0.848016 -5.255579
v   -18.451189 -0.848016 -5.055579
v   -18.451189 -0.848016 -5.255579
v   -19.451189 -0.848016 -5.055579
# 4 vertices

vt 0.000000 0.000000
vt 0.000000 0.000000
vt 0.000000 0.000000
vt 0.000000 0.000000
# 4 texture coordinates

vn 0.000000 1.000000 0.000000
vn 0.000000 1.000000 0.000000
vn 0.000000 1.000000 0.000000
vn 0.000000 1.000000 0.000000
# 4 normals

g object0
usemtl Material_0
f 2/2/2  1/1/1  4/4/4
f 1/1/1  2/2/2  3/3/3
# 2 polygons in group

# 2 polygons total
