# Wavefront OBJ exported by IMDeditor

mtllib Stone_Arrow_destroyed5.mtl

v    -0.657072 -0.079169 0.819742
v    -0.290092 -0.079169 0.819742
v    -0.290092 0.417039 0.819743
v    -1.232093 0.290687 -0.091396
v    -0.992819 0.241081 0.369887
v    -0.888300 0.200857 -0.476993
v     0.627377 -0.079169 0.819742
v     0.713765 -0.025638 0.819743
v     0.711866 0.151184 0.819742
v    -0.290092 -0.079169 0.819742
v     0.627377 -0.079169 0.819742
v     0.711866 0.151184 0.819742
v    -0.290092 0.417039 0.819743
v    -0.290092 -0.079169 0.819742
v     0.711866 0.151184 0.819742
v     0.376837 0.417039 0.819742
v    -0.290092 0.417039 0.819743
v     0.711866 0.151184 0.819742
v     0.553647 -0.469928 -0.955079
v     0.711866 0.151184 0.819742
v     0.713765 -0.025638 0.819743
v     0.713765 -0.025638 0.819743
v     0.578736 -0.602623 -0.812211
v     0.553647 -0.469928 -0.955079
v     0.541560 -0.617559 -0.785412
v     0.627377 -0.079169 0.819742
v     0.435510 -0.740976 -0.766450
v     0.627377 -0.079169 0.819742
v     0.541560 -0.617559 -0.785412
v     0.578736 -0.602623 -0.812211
v     0.578736 -0.602623 -0.812211
v     0.713765 -0.025638 0.819743
v     0.627377 -0.079169 0.819742
v     0.465895 0.130056 -1.316832
v     0.711866 0.151184 0.819742
v     0.977451 -0.315208 -1.082771
v     0.372878 0.206961 -1.286270
v     0.376837 0.417039 0.819742
v     0.711866 0.151184 0.819742
v     0.711866 0.151184 0.819742
v     0.465895 0.130056 -1.316832
v     0.372878 0.206961 -1.286270
v     0.977451 -0.315208 -1.082771
v     0.711866 0.151184 0.819742
v     0.971822 -0.499655 -1.033618
v     0.971822 -0.499655 -1.033618
v     0.711866 0.151184 0.819742
v     0.553647 -0.469928 -0.955079
v     0.019046 -0.761052 -0.814567
v    -0.290092 -0.079169 0.819742
v    -0.449134 -0.506135 -0.119743
v    -0.290092 -0.079169 0.819742
v     0.019046 -0.761052 -0.814567
v     0.435510 -0.740976 -0.766450
v     0.435510 -0.740976 -0.766450
v     0.627377 -0.079169 0.819742
v    -0.290092 -0.079169 0.819742
v     0.376837 0.417039 0.819742
v    -0.284996 0.232788 -1.027413
v    -0.523083 0.242133 -0.933732
v    -0.523083 0.242133 -0.933732
v    -0.290092 0.417039 0.819743
v     0.376837 0.417039 0.819742
v    -0.284996 0.232788 -1.027413
v     0.376837 0.417039 0.819742
v     0.372878 0.206961 -1.286270
v    -0.878693 0.417039 0.819741
v    -0.992819 0.241081 0.369887
v    -0.790017 -0.036117 0.290743
v    -0.992819 0.241081 0.369887
v    -1.232093 0.290687 -0.091396
v    -0.734421 -0.123357 -0.037174
v    -0.734421 -0.123357 -0.037174
v    -0.790017 -0.036117 0.290743
v    -0.992819 0.241081 0.369887
v    -0.734421 -0.123357 -0.037174
v    -0.449134 -0.506135 -0.119743
v    -0.491414 -0.390743 0.420715
v    -0.491414 -0.390743 0.420715
v    -0.790017 -0.036117 0.290743
v    -0.734421 -0.123357 -0.037174
v    -0.790017 -0.036117 0.290743
v    -0.657072 -0.079169 0.819742
v    -0.878693 0.417039 0.819741
v    -0.790017 -0.036117 0.290743
v    -0.491414 -0.390743 0.420715
v    -0.657072 -0.079169 0.819742
v    -0.491414 -0.390743 0.420715
v    -0.449134 -0.506135 -0.119743
v    -0.290092 -0.079169 0.819742
v    -0.888300 0.200857 -0.476993
v    -0.992819 0.241081 0.369887
v    -0.878693 0.417039 0.819741
v    -0.878693 0.417039 0.819741
v    -0.782944 0.272496 -0.629336
v    -0.888300 0.200857 -0.476993
v    -0.782944 0.272496 -0.629336
v    -0.878693 0.417039 0.819741
v    -0.290092 0.417039 0.819743
v    -0.290092 0.417039 0.819743
v    -0.523083 0.242133 -0.933732
v    -0.782944 0.272496 -0.629336
v    -0.290092 0.417039 0.819743
v    -0.878693 0.417039 0.819741
v    -0.657072 -0.079169 0.819742
v    -0.290092 -0.079169 0.819742
v    -0.657072 -0.079169 0.819742
v    -0.491414 -0.390743 0.420715
v     0.541560 -0.617559 -0.785412
v     0.435510 -0.740976 -0.766450
v     0.019046 -0.761052 -0.814567
v     0.578736 -0.602623 -0.812211
v     0.541560 -0.617559 -0.785412
v     0.019046 -0.761052 -0.814567
v     0.553647 -0.469928 -0.955079
v     0.578736 -0.602623 -0.812211
v     0.019046 -0.761052 -0.814567
v    -0.284996 0.232788 -1.027413
v     0.372878 0.206961 -1.286270
v     0.465895 0.130056 -1.316832
v    -0.523083 0.242133 -0.933732
v    -0.284996 0.232788 -1.027413
v     0.465895 0.130056 -1.316832
v     0.019046 -0.761052 -0.814567
v    -0.523083 0.242133 -0.933732
v     0.465895 0.130056 -1.316832
v     0.977451 -0.315208 -1.082771
v     0.971822 -0.499655 -1.033618
v     0.553647 -0.469928 -0.955079
v     0.553647 -0.469928 -0.955079
v     0.465895 0.130056 -1.316832
v     0.977451 -0.315208 -1.082771
v     0.553647 -0.469928 -0.955079
v     0.019046 -0.761052 -0.814567
v     0.465895 0.130056 -1.316832
v    -0.888300 0.200857 -0.476993
v    -0.782944 0.272496 -0.629336
v    -0.523083 0.242133 -0.933732
v    -0.523083 0.242133 -0.933732
v    -0.449134 -0.506135 -0.119743
v    -0.888300 0.200857 -0.476993
v    -0.523083 0.242133 -0.933732
v     0.019046 -0.761052 -0.814567
v    -0.449134 -0.506135 -0.119743
v    -0.734421 -0.123357 -0.037174
v    -1.232093 0.290687 -0.091396
v    -0.888300 0.200857 -0.476993
v    -0.888300 0.200857 -0.476993
v    -0.449134 -0.506135 -0.119743
v    -0.734421 -0.123357 -0.037174
# 150 vertices

vt 0.023310 0.416515
vt 0.023310 0.391757
vt 0.064821 0.391757
vt 0.826012 0.382758
vt 0.800083 0.378530
vt 0.846966 0.361574
vt 0.023310 0.329860
vt 0.027788 0.324032
vt 0.042581 0.324160
vt 0.023310 0.391757
vt 0.023310 0.329860
vt 0.042581 0.324160
vt 0.064821 0.391757
vt 0.023310 0.391757
vt 0.042581 0.324160
vt 0.064821 0.346763
vt 0.064821 0.391757
vt 0.042581 0.324160
vt 0.587174 0.395050
vt 0.587671 0.484778
vt 0.576871 0.482915
vt 0.576871 0.482915
vt 0.576038 0.400301
vt 0.587174 0.395050
vt 0.573264 0.401564
vt 0.570758 0.482709
vt 0.562819 0.401575
vt 0.570758 0.482709
vt 0.573264 0.401564
vt 0.576038 0.400301
vt 0.576038 0.400301
vt 0.576871 0.482915
vt 0.570758 0.482709
vt 0.892455 0.254718
vt 0.770982 0.252970
vt 0.873302 0.209412
vt 0.891710 0.263132
vt 0.774428 0.282256
vt 0.770982 0.252970
vt 0.770982 0.252970
vt 0.892455 0.254718
vt 0.891710 0.263132
vt 0.181240 0.004543
vt 0.298891 0.004661
vt 0.184018 0.018994
vt 0.554737 0.773763
vt 0.667497 0.805230
vt 0.561074 0.804952
vt 0.665546 0.660426
vt 0.747709 0.692405
vt 0.699616 0.692405
vt 0.747709 0.692405
vt 0.665546 0.660426
vt 0.667965 0.635531
vt 0.667965 0.635531
vt 0.747710 0.636705
vt 0.747709 0.692405
vt 0.774428 0.282256
vt 0.877154 0.311005
vt 0.871944 0.328302
vt 0.871944 0.328302
vt 0.774428 0.328301
vt 0.774428 0.282256
vt 0.877154 0.311005
vt 0.774428 0.282256
vt 0.891710 0.263132
vt 0.843177 0.441507
vt 0.858761 0.383908
vt 0.909747 0.373832
vt 0.858761 0.383908
vt 0.836566 0.328725
vt 0.929579 0.335763
vt 0.929579 0.335763
vt 0.909418 0.373900
vt 0.858761 0.383908
vt 0.929759 0.335421
vt 1.000443 0.326979
vt 0.974549 0.390312
vt 0.974549 0.390312
vt 0.909418 0.373900
vt 0.929759 0.335421
vt 0.909409 0.373898
vt 0.916886 0.437097
vt 0.837919 0.436352
vt 0.909409 0.373898
vt 0.974549 0.390312
vt 0.916886 0.437097
vt 0.727099 0.705137
vt 0.699616 0.692405
vt 0.747709 0.692405
vt 0.846966 0.361574
vt 0.800083 0.378530
vt 0.774428 0.374346
vt 0.774428 0.374346
vt 0.855016 0.351794
vt 0.846966 0.361574
vt 0.855016 0.351794
vt 0.774428 0.374346
vt 0.774428 0.328301
vt 0.774428 0.328301
vt 0.871944 0.328302
vt 0.855016 0.351794
vt 0.064821 0.391757
vt 0.064821 0.436751
vt 0.023310 0.416515
vt 0.747709 0.692405
vt 0.747709 0.714685
vt 0.727099 0.705137
vt 0.771008 0.120809
vt 0.761536 0.111627
vt 0.729378 0.118557
vt 0.775157 0.122332
vt 0.771008 0.120809
vt 0.729378 0.118557
vt 0.778976 0.138646
vt 0.775157 0.122332
vt 0.729378 0.118557
vt 0.713209 0.213978
vt 0.777778 0.209432
vt 0.786659 0.202456
vt 0.689841 0.215623
vt 0.713209 0.213978
vt 0.786659 0.202456
vt 0.729378 0.118557
vt 0.689841 0.215623
vt 0.786659 0.202456
vt 0.818965 0.148750
vt 0.816482 0.131761
vt 0.778976 0.138646
vt 0.778976 0.138646
vt 0.786659 0.202456
vt 0.818965 0.148750
vt 0.778976 0.138646
vt 0.729378 0.118557
vt 0.786659 0.202456
vt 0.641123 0.203007
vt 0.656023 0.212335
vt 0.689841 0.215623
vt 0.689841 0.215623
vt 0.662429 0.124485
vt 0.641123 0.203007
vt 0.689841 0.215623
vt 0.729378 0.118557
vt 0.662429 0.124485
vt 0.635650 0.158551
vt 0.597086 0.203386
vt 0.641123 0.203007
vt 0.641123 0.203007
vt 0.662429 0.124485
vt 0.635650 0.158551
# 150 texture coordinates

vn 0.000000 -0.000002 1.000000
vn 0.000000 -0.000002 1.000000
vn 0.000000 -0.000002 1.000000
vn 0.234660 0.971925 -0.017201
vn 0.234660 0.971925 -0.017201
vn 0.234660 0.971925 -0.017201
vn -0.000014 0.000005 1.000000
vn -0.000014 0.000005 1.000000
vn -0.000014 0.000005 1.000000
vn 0.000000 0.000000 1.000000
vn 0.000000 0.000000 1.000000
vn 0.000000 0.000000 1.000000
vn 0.000000 -0.000002 1.000000
vn 0.000000 -0.000002 1.000000
vn 0.000000 -0.000002 1.000000
vn 0.000001 0.000002 1.000000
vn 0.000001 0.000002 1.000000
vn 0.000001 0.000002 1.000000
vn 0.995655 0.010693 -0.092501
vn 0.995655 0.010693 -0.092501
vn 0.995655 0.010693 -0.092501
vn 0.991615 0.071814 -0.107437
vn 0.991615 0.071814 -0.107437
vn 0.991615 0.071814 -0.107437
vn 0.760194 -0.627140 0.169708
vn 0.760194 -0.627140 0.169708
vn 0.760194 -0.627140 0.169708
vn 0.510155 -0.823290 0.248867
vn 0.510155 -0.823290 0.248867
vn 0.510155 -0.823290 0.248867
vn 0.510155 -0.823290 0.248867
vn 0.510155 -0.823290 0.248867
vn 0.510155 -0.823290 0.248867
vn 0.676022 0.731955 -0.085065
vn 0.676022 0.731955 -0.085065
vn 0.676022 0.731955 -0.085065
vn 0.619653 0.780884 -0.079059
vn 0.619653 0.780884 -0.079059
vn 0.619653 0.780884 -0.079059
vn 0.619653 0.780884 -0.079059
vn 0.619653 0.780884 -0.079059
vn 0.619653 0.780884 -0.079059
vn 0.990585 0.006215 0.136759
vn 0.990585 0.006215 0.136759
vn 0.990585 0.006215 0.136759
vn -0.004977 -0.943721 0.330706
vn -0.004977 -0.943721 0.330706
vn -0.004977 -0.943721 0.330706
vn 0.094770 -0.912241 0.398540
vn 0.094770 -0.912241 0.398540
vn 0.094770 -0.912241 0.398540
vn -0.000000 -0.922892 0.385058
vn -0.000000 -0.922892 0.385058
vn -0.000000 -0.922892 0.385058
vn 0.000000 -0.922892 0.385058
vn 0.000000 -0.922892 0.385058
vn 0.000000 -0.922892 0.385058
vn -0.000000 0.995062 -0.099256
vn -0.000000 0.995062 -0.099256
vn -0.000000 0.995062 -0.099256
vn -0.000000 0.995062 -0.099256
vn -0.000000 0.995062 -0.099256
vn -0.000000 0.995062 -0.099256
vn 0.000008 0.995062 -0.099259
vn 0.000008 0.995062 -0.099259
vn 0.000008 0.995062 -0.099259
vn -0.675952 -0.611827 0.410800
vn -0.675952 -0.611827 0.410800
vn -0.675952 -0.611827 0.410800
vn -0.635115 -0.730540 0.250881
vn -0.635115 -0.730540 0.250881
vn -0.635115 -0.730540 0.250881
vn -0.803891 -0.594375 0.021837
vn -0.803891 -0.594375 0.021837
vn -0.803891 -0.594375 0.021837
vn -0.792982 -0.605522 0.067249
vn -0.792982 -0.605522 0.067249
vn -0.792982 -0.605522 0.067249
vn -0.771250 -0.635380 0.038280
vn -0.771250 -0.635380 0.038280
vn -0.771250 -0.635380 0.038280
vn -0.895974 -0.400167 0.192603
vn -0.895974 -0.400167 0.192603
vn -0.895974 -0.400167 0.192603
vn -0.782545 -0.604885 0.147436
vn -0.782545 -0.604885 0.147436
vn -0.782545 -0.604885 0.147436
vn 0.682996 -0.701582 0.203224
vn 0.682996 -0.701582 0.203224
vn 0.682996 -0.701582 0.203224
vn -0.668895 0.734025 -0.117416
vn -0.668895 0.734025 -0.117416
vn -0.668895 0.734025 -0.117416
vn -0.668895 0.734025 -0.117416
vn -0.668895 0.734025 -0.117416
vn -0.668895 0.734025 -0.117416
vn 0.000000 0.995062 -0.099256
vn 0.000000 0.995062 -0.099256
vn 0.000000 0.995062 -0.099256
vn 0.000000 0.995062 -0.099256
vn 0.000000 0.995062 -0.099256
vn 0.000000 0.995062 -0.099256
vn -0.000003 0.000001 1.000000
vn -0.000003 0.000001 1.000000
vn -0.000003 0.000001 1.000000
vn 0.000000 -0.788184 0.615439
vn 0.000000 -0.788184 0.615439
vn 0.000000 -0.788184 0.615439
vn 0.123070 -0.253182 -0.959559
vn 0.123070 -0.253182 -0.959559
vn 0.123070 -0.253182 -0.959559
vn 0.269655 -0.950310 -0.155552
vn 0.269655 -0.950310 -0.155552
vn 0.269655 -0.950310 -0.155552
vn 0.201004 -0.699905 -0.685369
vn 0.201004 -0.699905 -0.685369
vn 0.201004 -0.699905 -0.685369
vn -0.367676 -0.076391 -0.926811
vn -0.367676 -0.076391 -0.926811
vn -0.367676 -0.076391 -0.926811
vn -0.367675 -0.076382 -0.926812
vn -0.367675 -0.076382 -0.926812
vn -0.367675 -0.076382 -0.926812
vn -0.373843 -0.306031 -0.875549
vn -0.373843 -0.306031 -0.875549
vn -0.373843 -0.306031 -0.875549
vn -0.195797 -0.246937 -0.949044
vn -0.195797 -0.246937 -0.949044
vn -0.195797 -0.246937 -0.949044
vn -0.065530 -0.522246 -0.850273
vn -0.065530 -0.522246 -0.850273
vn -0.065530 -0.522246 -0.850273
vn 0.052090 -0.510045 -0.858569
vn 0.052090 -0.510045 -0.858569
vn 0.052090 -0.510045 -0.858569
vn -0.753337 -0.214278 -0.621747
vn -0.753337 -0.214278 -0.621747
vn -0.753337 -0.214278 -0.621747
vn -0.581418 -0.624610 -0.521359
vn -0.581418 -0.624610 -0.521359
vn -0.581418 -0.624610 -0.521359
vn -0.800352 -0.475839 -0.364710
vn -0.800352 -0.475839 -0.364710
vn -0.800352 -0.475839 -0.364710
vn -0.578332 -0.740089 -0.343220
vn -0.578332 -0.740089 -0.343220
vn -0.578332 -0.740089 -0.343220
vn -0.808149 -0.572308 -0.139134
vn -0.808149 -0.572308 -0.139134
vn -0.808149 -0.572308 -0.139134
# 150 normals

g object0
usemtl Material_0
f 1/1/1  2/2/2  3/3/3
f 7/7/7  8/8/8  9/9/9
f 10/10/10  11/11/11  12/12/12
f 13/13/13  14/14/14  15/15/15
f 16/16/16  17/17/17  18/18/18
f 19/19/19  20/20/20  21/21/21
f 22/22/22  23/23/23  24/24/24
f 25/25/25  26/26/26  27/27/27
f 28/28/28  29/29/29  30/30/30
f 31/31/31  32/32/32  33/33/33
f 34/34/34  35/35/35  36/36/36
f 37/37/37  38/38/38  39/39/39
f 40/40/40  41/41/41  42/42/42
f 43/43/43  44/44/44  45/45/45
f 46/46/46  47/47/47  48/48/48
f 49/49/49  50/50/50  51/51/51
f 52/52/52  53/53/53  54/54/54
f 55/55/55  56/56/56  57/57/57
f 58/58/58  59/59/59  60/60/60
f 61/61/61  62/62/62  63/63/63
f 64/64/64  65/65/65  66/66/66
f 67/67/67  68/68/68  69/69/69
f 70/70/70  71/71/71  72/72/72
f 73/73/73  74/74/74  75/75/75
f 76/76/76  77/77/77  78/78/78
f 79/79/79  80/80/80  81/81/81
f 82/82/82  83/83/83  84/84/84
f 85/85/85  86/86/86  87/87/87
f 88/88/88  89/89/89  90/90/90
f 91/91/91  92/92/92  93/93/93
f 94/94/94  95/95/95  96/96/96
f 97/97/97  98/98/98  99/99/99
f 100/100/100  101/101/101  102/102/102
f 103/103/103  104/104/104  105/105/105
f 106/106/106  107/107/107  108/108/108
f 109/109/109  110/110/110  111/111/111
f 112/112/112  113/113/113  114/114/114
f 115/115/115  116/116/116  117/117/117
f 118/118/118  119/119/119  120/120/120
f 121/121/121  122/122/122  123/123/123
f 124/124/124  125/125/125  126/126/126
f 127/127/127  128/128/128  129/129/129
f 130/130/130  131/131/131  132/132/132
f 133/133/133  134/134/134  135/135/135
f 136/136/136  137/137/137  138/138/138
f 139/139/139  140/140/140  141/141/141
f 142/142/142  143/143/143  144/144/144
f 145/145/145  146/146/146  147/147/147
f 148/148/148  149/149/149  150/150/150
f 4/4/4  5/5/5  6/6/6
# 50 polygons in group

# 50 polygons total
