# Wavefront OBJ exported by IMDeditor

mtllib Stone_Arrow_destroyed3.mtl

v     0.158774 0.094988 0.773707
v     0.710968 0.096650 -0.864989
v    -0.124142 0.774879 0.810123
v    -0.669148 0.095648 0.647511
v    -0.731521 0.739215 0.657196
v     0.198369 0.095911 -0.815012
v     0.198369 0.095911 -0.815012
v    -0.124142 0.774879 0.810123
v     0.710968 0.096650 -0.864989
v    -0.731521 0.739215 0.657196
v    -0.124142 0.774879 0.810123
v     0.198369 0.095911 -0.815012
v     0.224339 -0.617294 -0.820034
v     0.660295 -0.644331 -0.855456
v     0.283132 -0.752685 -0.714170
v     0.591913 -0.774878 -0.737623
v     0.283132 -0.752685 -0.714170
v     0.660295 -0.644331 -0.855456
v     0.224339 -0.617294 -0.820034
v    -0.587521 -0.470296 0.702795
v    -0.647143 -0.346217 0.644096
v    -0.587521 -0.470296 0.702795
v     0.224339 -0.617294 -0.820034
v     0.283132 -0.752685 -0.714170
v     0.660295 -0.644331 -0.855456
v     0.108053 -0.387724 0.770253
v     0.591913 -0.774878 -0.737623
v     0.042417 -0.512637 0.758709
v     0.591913 -0.774878 -0.737623
v     0.108053 -0.387724 0.770253
v     0.283132 -0.752685 -0.714170
v     0.591913 -0.774878 -0.737623
v    -0.587521 -0.470296 0.702795
v     0.042417 -0.512637 0.758709
v    -0.587521 -0.470296 0.702795
v     0.591913 -0.774878 -0.737623
v    -0.647143 -0.346217 0.644096
v     0.198369 0.095911 -0.815012
v     0.224339 -0.617294 -0.820034
v     0.198369 0.095911 -0.815012
v    -0.647143 -0.346217 0.644096
v    -0.669148 0.095648 0.647511
v     0.660295 -0.644331 -0.855456
v     0.224339 -0.617294 -0.820034
v     0.710968 0.096650 -0.864989
v     0.198369 0.095911 -0.815012
v     0.710968 0.096650 -0.864989
v     0.224339 -0.617294 -0.820034
v     0.108053 -0.387724 0.770253
v     0.660295 -0.644331 -0.855456
v     0.158774 0.094988 0.773707
v     0.710968 0.096650 -0.864989
v     0.158774 0.094988 0.773707
v     0.660295 -0.644331 -0.855456
v     0.042417 -0.512637 0.758709
v     0.108053 -0.387724 0.770253
v    -0.647143 -0.346217 0.644096
v    -0.647143 -0.346217 0.644096
v    -0.587521 -0.470296 0.702795
v     0.042417 -0.512637 0.758709
v    -0.669148 0.095648 0.647511
v     0.158774 0.094988 0.773707
v    -0.124142 0.774879 0.810123
v    -0.124142 0.774879 0.810123
v    -0.731521 0.739215 0.657196
v    -0.669148 0.095648 0.647511
v     0.158774 0.094988 0.773707
v    -0.669148 0.095648 0.647511
v    -0.647143 -0.346217 0.644096
v    -0.647143 -0.346217 0.644096
v     0.108053 -0.387724 0.770253
v     0.158774 0.094988 0.773707
# 72 vertices

vt 0.652037 0.091958
vt 0.547261 0.091900
vt 0.675388 0.147163
vt 0.552197 0.538628
vt 0.553495 0.598178
vt 0.429073 0.538855
vt 0.982939 0.614480
vt 0.857157 0.666888
vt 0.990739 0.666564
vt 0.859509 0.606347
vt 0.857157 0.666888
vt 0.982939 0.614480
vt 0.649178 0.266377
vt 0.681201 0.266377
vt 0.653419 0.257487
vt 0.676514 0.257488
vt 0.653419 0.257487
vt 0.681201 0.266377
vt 0.097823 0.518638
vt 0.223103 0.530356
vt 0.219863 0.541353
vt 0.223103 0.530356
vt 0.097823 0.518638
vt 0.099864 0.507922
vt 0.012195 0.029735
vt 0.117143 0.030143
vt 0.012119 0.019684
vt 0.119390 0.019489
vt 0.012119 0.019684
vt 0.117143 0.030143
vt 0.099356 0.507477
vt 0.101975 0.482868
vt 0.223015 0.529790
vt 0.234653 0.480530
vt 0.223015 0.529790
vt 0.101975 0.482868
vt 0.551196 0.480411
vt 0.429073 0.538855
vt 0.429622 0.479844
vt 0.429073 0.538855
vt 0.551196 0.480411
vt 0.552197 0.538628
vt 0.681201 0.266377
vt 0.649178 0.266377
vt 0.684522 0.305509
vt 0.645620 0.305509
vt 0.684522 0.305509
vt 0.649178 0.266377
vt 0.117143 0.030143
vt 0.012195 0.029735
vt 0.117143 0.077155
vt 0.011382 0.077240
vt 0.117143 0.077155
vt 0.012195 0.029735
vt 0.764323 0.323209
vt 0.770150 0.334077
vt 0.703195 0.337776
vt 0.703195 0.337776
vt 0.709126 0.326581
vt 0.764323 0.323209
vt 0.701338 0.394408
vt 0.774581 0.394354
vt 0.750604 0.452945
vt 0.750604 0.452945
vt 0.696074 0.450309
vt 0.701338 0.394408
vt 0.774581 0.394354
vt 0.701338 0.394408
vt 0.703195 0.337776
vt 0.703195 0.337776
vt 0.770150 0.334077
vt 0.774581 0.394354
# 72 texture coordinates

vn 0.886566 0.352897 0.299105
vn 0.886566 0.352897 0.299105
vn 0.886566 0.352897 0.299105
vn -0.858638 -0.057712 -0.509324
vn -0.857617 -0.075464 -0.508722
vn -0.860470 -0.037929 -0.508088
vn -0.026876 0.920466 -0.389897
vn 0.029389 0.924371 -0.380362
vn -0.039530 0.919172 -0.391867
vn 0.040934 0.924798 -0.378250
vn 0.029389 0.924371 -0.380362
vn -0.026876 0.920466 -0.389897
vn -0.101577 -0.639779 -0.761817
vn -0.103002 -0.637288 -0.763711
vn -0.102083 -0.638896 -0.762490
vn -0.103790 -0.635907 -0.764755
vn -0.102083 -0.638896 -0.762490
vn -0.103002 -0.637288 -0.763711
vn -0.740038 -0.581214 -0.338429
vn -0.763561 -0.539393 -0.355007
vn -0.765235 -0.536220 -0.356206
vn -0.763561 -0.539393 -0.355007
vn -0.740038 -0.581214 -0.338429
vn -0.738240 -0.584219 -0.337181
vn 0.937640 -0.109975 0.329753
vn 0.894371 -0.266248 0.359460
vn 0.920400 -0.186999 0.343359
vn 0.805487 -0.458002 0.376066
vn 0.920400 -0.186999 0.343359
vn 0.894371 -0.266248 0.359460
vn -0.058640 -0.985319 0.160335
vn -0.064566 -0.985713 0.155566
vn -0.076604 -0.986338 0.145841
vn -0.079071 -0.986437 0.143842
vn -0.076604 -0.986338 0.145841
vn -0.064566 -0.985713 0.155566
vn -0.859856 -0.036253 -0.509247
vn -0.860470 -0.037929 -0.508088
vn -0.861220 -0.027787 -0.507472
vn -0.860470 -0.037929 -0.508088
vn -0.859856 -0.036253 -0.509247
vn -0.858638 -0.057712 -0.509324
vn -0.081430 -0.007253 -0.996653
vn -0.087392 -0.003159 -0.996169
vn -0.091519 -0.000324 -0.995803
vn -0.097042 0.003474 -0.995274
vn -0.091519 -0.000324 -0.995803
vn -0.087392 -0.003159 -0.996169
vn 0.894371 -0.266248 0.359460
vn 0.937640 -0.109975 0.329753
vn 0.939525 -0.090520 0.330301
vn 0.945922 -0.060588 0.318687
vn 0.939525 -0.090520 0.330301
vn 0.937640 -0.109975 0.329753
vn -0.165004 -0.004440 0.986283
vn -0.165004 -0.004440 0.986283
vn -0.165004 -0.004440 0.986283
vn -0.053706 0.405822 0.912373
vn -0.053706 0.405822 0.912373
vn -0.053706 0.405822 0.912373
vn -0.149775 -0.114923 0.982018
vn -0.149775 -0.114923 0.982018
vn -0.149775 -0.114923 0.982018
vn -0.241884 -0.038033 0.969559
vn -0.241884 -0.038033 0.969559
vn -0.241884 -0.038033 0.969559
vn -0.150679 -0.015144 0.988467
vn -0.150679 -0.015144 0.988467
vn -0.150679 -0.015144 0.988467
vn -0.164215 0.010196 0.986372
vn -0.164215 0.010196 0.986372
vn -0.164215 0.010196 0.986372
# 72 normals

g object0
usemtl Material_0
f 1/1/1  2/2/2  3/3/3
f 4/4/4  5/5/5  6/6/6
f 7/7/7  8/8/8  9/9/9
f 10/10/10  11/11/11  12/12/12
f 13/13/13  14/14/14  15/15/15
f 16/16/16  17/17/17  18/18/18
f 19/19/19  20/20/20  21/21/21
f 22/22/22  23/23/23  24/24/24
f 25/25/25  26/26/26  27/27/27
f 28/28/28  29/29/29  30/30/30
f 31/31/31  32/32/32  33/33/33
f 34/34/34  35/35/35  36/36/36
f 37/37/37  38/38/38  39/39/39
f 40/40/40  41/41/41  42/42/42
f 43/43/43  44/44/44  45/45/45
f 46/46/46  47/47/47  48/48/48
f 49/49/49  50/50/50  51/51/51
f 52/52/52  53/53/53  54/54/54
f 55/55/55  56/56/56  57/57/57
f 58/58/58  59/59/59  60/60/60
f 61/61/61  62/62/62  63/63/63
f 64/64/64  65/65/65  66/66/66
f 67/67/67  68/68/68  69/69/69
f 70/70/70  71/71/71  72/72/72
# 24 polygons in group

# 24 polygons total
