# Wavefront OBJ exported by IMDeditor

mtllib Stone_Arrow_destroyed4.mtl

v     0.508098 -0.290820 -0.326643
v     0.673435 -0.319316 0.719171
v     0.498382 -0.397406 -0.303833
v     0.671827 -0.412821 0.736137
v     0.498382 -0.397406 -0.303833
v     0.673435 -0.319316 0.719171
v    -0.679126 0.167189 -0.889245
v     0.649697 -0.435464 0.755815
v    -0.447609 0.142744 0.537485
v     0.649697 -0.435464 0.755815
v    -0.679126 0.167189 -0.889245
v     0.466482 -0.419159 -0.345101
v    -0.427763 0.534799 0.470485
v    -0.447609 0.142744 0.537485
v     0.654128 -0.293349 0.729547
v     0.649697 -0.435464 0.755815
v     0.654128 -0.293349 0.729547
v    -0.447609 0.142744 0.537485
v    -0.653708 0.570306 -0.980657
v    -0.427763 0.534799 0.470485
v     0.478963 -0.263086 -0.378062
v     0.654128 -0.293349 0.729547
v     0.478963 -0.263086 -0.378062
v    -0.427763 0.534799 0.470485
v    -0.679126 0.167189 -0.889245
v    -0.653708 0.570306 -0.980657
v     0.466482 -0.419159 -0.345101
v     0.478963 -0.263086 -0.378062
v     0.466482 -0.419159 -0.345101
v    -0.653708 0.570306 -0.980657
v     0.649697 -0.435464 0.755815
v     0.466482 -0.419159 -0.345101
v     0.671827 -0.412821 0.736137
v     0.498382 -0.397406 -0.303833
v     0.671827 -0.412821 0.736137
v     0.466482 -0.419159 -0.345101
v     0.654128 -0.293349 0.729547
v     0.649697 -0.435464 0.755815
v     0.673435 -0.319316 0.719171
v     0.671827 -0.412821 0.736137
v     0.673435 -0.319316 0.719171
v     0.649697 -0.435464 0.755815
v     0.478963 -0.263086 -0.378062
v     0.654128 -0.293349 0.729547
v     0.508098 -0.290820 -0.326643
v     0.673435 -0.319316 0.719171
v     0.508098 -0.290820 -0.326643
v     0.654128 -0.293349 0.729547
v     0.466482 -0.419159 -0.345101
v     0.478963 -0.263086 -0.378062
v     0.498382 -0.397406 -0.303833
v     0.508098 -0.290820 -0.326643
v     0.498382 -0.397406 -0.303833
v     0.478963 -0.263086 -0.378062
v    -0.679126 0.167189 -0.889245
v    -0.447609 0.142744 0.537485
v    -0.427763 0.534799 0.470485
v    -0.427763 0.534799 0.470485
v    -0.653708 0.570306 -0.980657
v    -0.679126 0.167189 -0.889245
# 60 vertices

vt 0.635800 0.781007
vt 0.718570 0.779502
vt 0.637538 0.770579
vt 0.719960 0.770301
vt 0.637538 0.770579
vt 0.718570 0.779502
vt 0.969737 0.642911
vt 0.853395 0.475728
vt 0.968078 0.519266
vt 0.853395 0.475728
vt 0.969737 0.642911
vt 0.853949 0.571158
vt 0.726423 0.563780
vt 0.727433 0.595261
vt 0.614572 0.606494
vt 0.614702 0.618007
vt 0.614572 0.606494
vt 0.727433 0.595261
vt 0.961776 0.810194
vt 0.959622 0.694683
vt 0.856540 0.741204
vt 0.854957 0.652985
vt 0.856540 0.741204
vt 0.959622 0.694683
vt 0.836679 0.630629
vt 0.836961 0.600422
vt 0.948429 0.652774
vt 0.948795 0.641056
vt 0.948429 0.652774
vt 0.836961 0.600422
vt 0.723243 0.767098
vt 0.633600 0.767656
vt 0.719960 0.770301
vt 0.637538 0.770579
vt 0.719960 0.770301
vt 0.633600 0.767656
vt 0.720921 0.782826
vt 0.723243 0.767098
vt 0.718570 0.779502
vt 0.719960 0.770301
vt 0.718570 0.779502
vt 0.723243 0.767098
vt 0.631034 0.783830
vt 0.720921 0.782826
vt 0.635800 0.781007
vt 0.718570 0.779502
vt 0.635800 0.781007
vt 0.720921 0.782826
vt 0.633600 0.767656
vt 0.631034 0.783830
vt 0.637538 0.770579
vt 0.635800 0.781007
vt 0.637538 0.770579
vt 0.631034 0.783830
vt 0.136261 0.487743
vt 0.218813 0.486380
vt 0.215210 0.508838
vt 0.215210 0.508838
vt 0.131329 0.510872
vt 0.136261 0.487743
# 60 texture coordinates

vn 0.979689 -0.123169 -0.158239
vn 0.979689 -0.123169 -0.158239
vn 0.979689 -0.123169 -0.158239
vn 0.985178 -0.046882 -0.165002
vn 0.985178 -0.046882 -0.165002
vn 0.985178 -0.046882 -0.165002
vn -0.474908 -0.877847 0.062023
vn -0.474908 -0.877847 0.062023
vn -0.474908 -0.877847 0.062023
vn -0.479573 -0.874951 0.066852
vn -0.479573 -0.874951 0.066852
vn -0.479573 -0.874951 0.066852
vn -0.102459 0.172602 0.979648
vn -0.102459 0.172602 0.979648
vn -0.102459 0.172602 0.979648
vn -0.097741 0.183834 0.978086
vn -0.097741 0.183834 0.978086
vn -0.097741 0.183834 0.978086
vn 0.617114 0.783105 -0.076924
vn 0.617114 0.783105 -0.076924
vn 0.617114 0.783105 -0.076924
vn 0.617510 0.782856 -0.076267
vn 0.617510 0.782856 -0.076267
vn 0.617510 0.782856 -0.076267
vn 0.319713 -0.228669 -0.919508
vn 0.319713 -0.228669 -0.919508
vn 0.319713 -0.228669 -0.919508
vn 0.326897 -0.220235 -0.919040
vn 0.326897 -0.220235 -0.919040
vn 0.326897 -0.220235 -0.919040
vn 0.655764 -0.745341 -0.120171
vn 0.655764 -0.745341 -0.120171
vn 0.655764 -0.745341 -0.120171
vn 0.661554 -0.740022 -0.121302
vn 0.661554 -0.740022 -0.121302
vn 0.661554 -0.740022 -0.121302
vn 0.597305 0.127725 0.791779
vn 0.597305 0.127725 0.791779
vn 0.597305 0.127725 0.791779
vn 0.576817 0.136221 0.805435
vn 0.576817 0.136221 0.805435
vn 0.576817 0.136221 0.805435
vn 0.777337 0.620092 -0.105991
vn 0.777337 0.620092 -0.105991
vn 0.777337 0.620092 -0.105991
vn 0.777228 0.620231 -0.105975
vn 0.777228 0.620231 -0.105975
vn 0.777228 0.620231 -0.105975
vn 0.821889 -0.179875 -0.540503
vn 0.821889 -0.179875 -0.540503
vn 0.821889 -0.179875 -0.540503
vn 0.805229 -0.193363 -0.560551
vn 0.805229 -0.193363 -0.560551
vn 0.805229 -0.193363 -0.560551
vn -0.983923 0.077318 0.160987
vn -0.983923 0.077318 0.160987
vn -0.983923 0.077318 0.160987
vn -0.983048 0.097234 0.155441
vn -0.983048 0.097234 0.155441
vn -0.983048 0.097234 0.155441
# 60 normals

g object0
usemtl Material_0
f 1/1/1  2/2/2  3/3/3
f 4/4/4  5/5/5  6/6/6
f 7/7/7  8/8/8  9/9/9
f 10/10/10  11/11/11  12/12/12
f 13/13/13  14/14/14  15/15/15
f 16/16/16  17/17/17  18/18/18
f 19/19/19  20/20/20  21/21/21
f 22/22/22  23/23/23  24/24/24
f 25/25/25  26/26/26  27/27/27
f 28/28/28  29/29/29  30/30/30
f 31/31/31  32/32/32  33/33/33
f 34/34/34  35/35/35  36/36/36
f 37/37/37  38/38/38  39/39/39
f 40/40/40  41/41/41  42/42/42
f 43/43/43  44/44/44  45/45/45
f 46/46/46  47/47/47  48/48/48
f 49/49/49  50/50/50  51/51/51
f 52/52/52  53/53/53  54/54/54
f 55/55/55  56/56/56  57/57/57
f 58/58/58  59/59/59  60/60/60
# 20 polygons in group

# 20 polygons total
