# Wavefront OBJ exported by IMDeditor

mtllib systembox.mtl

v    -0.030000 -0.053286 -0.030000
v     0.030000 -0.053286 -0.030000
v     0.030000 -0.053286 0.030000
v     0.030000 -0.053286 0.030000
v    -0.030000 -0.053286 0.030000
v    -0.030000 -0.053286 -0.030000
v    -0.013020 0.053468 -0.013142
v    -0.013020 0.053468 0.013142
v     0.013020 0.053468 0.013142
v     0.013020 0.053468 0.013142
v     0.013020 0.053468 -0.013142
v    -0.013020 0.053468 -0.013142
v    -0.019555 -0.002754 0.050000
v    -0.021057 -0.021691 0.050000
v     0.021057 -0.021691 0.050000
v     0.021057 -0.021691 0.050000
v     0.019550 -0.002754 0.050000
v    -0.019555 -0.002754 0.050000
v    -0.050000 -0.002754 -0.018809
v    -0.050000 -0.021691 -0.020379
v    -0.050000 -0.021691 0.020379
v    -0.050000 -0.021691 0.020379
v    -0.050000 -0.002754 0.018809
v    -0.050000 -0.002754 -0.018809
v     0.019589 -0.002754 -0.050000
v     0.021057 -0.021691 -0.050000
v    -0.021057 -0.021691 -0.050000
v    -0.021057 -0.021691 -0.050000
v    -0.019589 -0.002754 -0.050000
v     0.019589 -0.002754 -0.050000
v     0.050000 -0.002754 0.018809
v     0.050000 -0.021691 0.020379
v     0.050000 -0.021691 -0.020379
v     0.050000 -0.021691 -0.020379
v     0.050000 -0.002754 -0.018809
v     0.050000 -0.002754 0.018809
v    -0.050000 -0.002754 0.018809
v    -0.023965 0.056714 0.023971
v    -0.023965 0.056714 -0.023971
v    -0.050000 -0.002754 -0.018809
v    -0.050000 -0.002754 0.018809
v    -0.023965 0.056714 -0.023971
v    -0.030000 -0.043286 0.030000
v    -0.050000 -0.021691 0.020379
v    -0.050000 -0.021691 -0.020379
v    -0.030000 -0.043286 -0.030000
v    -0.030000 -0.043286 0.030000
v    -0.050000 -0.021691 -0.020379
v    -0.019589 -0.002754 -0.050000
v    -0.023965 0.056714 -0.023971
v     0.023965 0.056714 -0.023971
v     0.019589 -0.002754 -0.050000
v    -0.019589 -0.002754 -0.050000
v     0.023965 0.056714 -0.023971
v    -0.030000 -0.043286 -0.030000
v    -0.021057 -0.021691 -0.050000
v     0.021057 -0.021691 -0.050000
v     0.030000 -0.043286 -0.030000
v    -0.030000 -0.043286 -0.030000
v     0.021057 -0.021691 -0.050000
v    -0.050000 -0.021691 -0.020379
v    -0.050000 -0.002754 -0.018809
v    -0.023965 0.056714 -0.023971
v    -0.030000 -0.043286 -0.030000
v    -0.050000 -0.021691 -0.020379
v    -0.023965 0.056714 -0.023971
v    -0.019589 -0.002754 -0.050000
v    -0.021057 -0.021691 -0.050000
v    -0.030000 -0.043286 -0.030000
v    -0.023965 0.056714 -0.023971
v    -0.019589 -0.002754 -0.050000
v    -0.030000 -0.043286 -0.030000
v     0.050000 -0.002754 -0.018809
v     0.023965 0.056714 -0.023971
v     0.023965 0.056714 0.023971
v     0.050000 -0.002754 0.018809
v     0.050000 -0.002754 -0.018809
v     0.023965 0.056714 0.023971
v     0.030000 -0.043286 -0.030000
v     0.050000 -0.021691 -0.020379
v     0.050000 -0.021691 0.020379
v     0.030000 -0.043286 0.030000
v     0.030000 -0.043286 -0.030000
v     0.050000 -0.021691 0.020379
v     0.021057 -0.021691 -0.050000
v     0.019589 -0.002754 -0.050000
v     0.023965 0.056714 -0.023971
v     0.030000 -0.043286 -0.030000
v     0.021057 -0.021691 -0.050000
v     0.023965 0.056714 -0.023971
v     0.050000 -0.021691 -0.020379
v     0.030000 -0.043286 -0.030000
v     0.023965 0.056714 -0.023971
v     0.050000 -0.002754 -0.018809
v     0.050000 -0.021691 -0.020379
v     0.023965 0.056714 -0.023971
v     0.019550 -0.002754 0.050000
v     0.023965 0.056714 0.023971
v    -0.023965 0.056714 0.023971
v    -0.019555 -0.002754 0.050000
v     0.019550 -0.002754 0.050000
v    -0.023965 0.056714 0.023971
v     0.030000 -0.043286 0.030000
v     0.021057 -0.021691 0.050000
v    -0.021057 -0.021691 0.050000
v    -0.030000 -0.043286 0.030000
v     0.030000 -0.043286 0.030000
v    -0.021057 -0.021691 0.050000
v     0.050000 -0.021691 0.020379
v     0.050000 -0.002754 0.018809
v     0.023965 0.056714 0.023971
v     0.030000 -0.043286 0.030000
v     0.050000 -0.021691 0.020379
v     0.023965 0.056714 0.023971
v     0.021057 -0.021691 0.050000
v     0.030000 -0.043286 0.030000
v     0.023965 0.056714 0.023971
v     0.019550 -0.002754 0.050000
v     0.021057 -0.021691 0.050000
v     0.023965 0.056714 0.023971
v    -0.021057 -0.021691 0.050000
v    -0.019555 -0.002754 0.050000
v    -0.023965 0.056714 0.023971
v    -0.030000 -0.043286 0.030000
v    -0.021057 -0.021691 0.050000
v    -0.023965 0.056714 0.023971
v    -0.050000 -0.021691 0.020379
v    -0.030000 -0.043286 0.030000
v    -0.023965 0.056714 0.023971
v    -0.050000 -0.002754 0.018809
v    -0.050000 -0.021691 0.020379
v    -0.023965 0.056714 0.023971
v     0.030000 -0.053286 -0.030000
v     0.030000 -0.043286 -0.030000
v     0.030000 -0.043286 0.030000
v     0.030000 -0.043286 0.030000
v     0.030000 -0.053286 0.030000
v     0.030000 -0.053286 -0.030000
v    -0.030000 -0.053286 -0.030000
v    -0.030000 -0.043286 -0.030000
v     0.030000 -0.043286 -0.030000
v     0.030000 -0.043286 -0.030000
v     0.030000 -0.053286 -0.030000
v    -0.030000 -0.053286 -0.030000
v    -0.030000 -0.053286 0.030000
v    -0.030000 -0.043286 0.030000
v    -0.030000 -0.043286 -0.030000
v    -0.030000 -0.043286 -0.030000
v    -0.030000 -0.053286 -0.030000
v    -0.030000 -0.053286 0.030000
v     0.030000 -0.053286 0.030000
v     0.030000 -0.043286 0.030000
v    -0.030000 -0.043286 0.030000
v    -0.030000 -0.043286 0.030000
v    -0.030000 -0.053286 0.030000
v     0.030000 -0.053286 0.030000
v    -0.019300 0.059768 0.019204
v    -0.023965 0.056714 0.023971
v     0.023965 0.056714 0.023971
v     0.023965 0.056714 0.023971
v     0.019300 0.059768 0.019204
v    -0.019300 0.059768 0.019204
v    -0.019300 0.059768 -0.019204
v    -0.023965 0.056714 -0.023971
v    -0.023965 0.056714 0.023971
v    -0.023965 0.056714 0.023971
v    -0.019300 0.059768 0.019204
v    -0.019300 0.059768 -0.019204
v     0.019300 0.059768 -0.019204
v     0.023965 0.056714 -0.023971
v    -0.023965 0.056714 -0.023971
v    -0.023965 0.056714 -0.023971
v    -0.019300 0.059768 -0.019204
v     0.019300 0.059768 -0.019204
v     0.019300 0.059768 0.019204
v     0.023965 0.056714 0.023971
v     0.023965 0.056714 -0.023971
v     0.023965 0.056714 -0.023971
v     0.019300 0.059768 -0.019204
v     0.019300 0.059768 0.019204
v    -0.013020 0.053468 0.013142
v    -0.019300 0.059768 0.019204
v     0.019300 0.059768 0.019204
v     0.019300 0.059768 0.019204
v     0.013020 0.053468 0.013142
v    -0.013020 0.053468 0.013142
v    -0.013020 0.053468 -0.013142
v    -0.019300 0.059768 -0.019204
v    -0.019300 0.059768 0.019204
v    -0.019300 0.059768 0.019204
v    -0.013020 0.053468 0.013142
v    -0.013020 0.053468 -0.013142
v     0.013020 0.053468 -0.013142
v     0.019300 0.059768 -0.019204
v    -0.019300 0.059768 -0.019204
v    -0.019300 0.059768 -0.019204
v    -0.013020 0.053468 -0.013142
v     0.013020 0.053468 -0.013142
v     0.013020 0.053468 0.013142
v     0.019300 0.059768 0.019204
v     0.019300 0.059768 -0.019204
v     0.019300 0.059768 -0.019204
v     0.013020 0.053468 -0.013142
v     0.013020 0.053468 0.013142
# 204 vertices

vt 0.730469 0.025391
vt 0.490234 0.025391
vt 0.490234 0.265625
vt 0.490234 0.265625
vt 0.730469 0.265625
vt 0.730469 0.025391
vt 0.925781 0.175781
vt 0.925781 0.068359
vt 0.818359 0.068359
vt 0.818359 0.068359
vt 0.818359 0.175781
vt 0.925781 0.175781
vt 0.207031 0.798828
vt 0.130859 0.792969
vt 0.130859 0.957031
vt 0.130859 0.957031
vt 0.207031 0.951172
vt 0.207031 0.798828
vt 0.207031 0.548828
vt 0.130859 0.542969
vt 0.130859 0.707031
vt 0.130859 0.707031
vt 0.207031 0.701172
vt 0.207031 0.548828
vt 0.207031 0.298828
vt 0.130859 0.292969
vt 0.130859 0.457031
vt 0.130859 0.457031
vt 0.207031 0.451172
vt 0.207031 0.298828
vt 0.207031 0.050781
vt 0.130859 0.044922
vt 0.130859 0.208984
vt 0.130859 0.208984
vt 0.207031 0.203125
vt 0.207031 0.050781
vt 0.207031 0.701172
vt 0.445312 0.720703
vt 0.445312 0.529297
vt 0.207031 0.548828
vt 0.207031 0.701172
vt 0.445312 0.529297
vt 0.044922 0.746094
vt 0.130859 0.707031
vt 0.130859 0.542969
vt 0.044922 0.503906
vt 0.044922 0.746094
vt 0.130859 0.542969
vt 0.207031 0.451172
vt 0.445312 0.470703
vt 0.445312 0.279297
vt 0.207031 0.298828
vt 0.207031 0.451172
vt 0.445312 0.279297
vt 0.044922 0.496094
vt 0.130859 0.457031
vt 0.130859 0.292969
vt 0.044922 0.253906
vt 0.044922 0.496094
vt 0.130859 0.292969
vt 0.554688 0.783203
vt 0.630859 0.783203
vt 0.867188 0.695312
vt 0.466797 0.695312
vt 0.554688 0.783203
vt 0.867188 0.695312
vt 0.820312 0.580078
vt 0.896484 0.580078
vt 0.984375 0.667969
vt 0.583984 0.667969
vt 0.820312 0.580078
vt 0.984375 0.667969
vt 0.207031 0.203125
vt 0.445312 0.222656
vt 0.445312 0.031250
vt 0.207031 0.050781
vt 0.207031 0.203125
vt 0.445312 0.031250
vt 0.044922 0.248047
vt 0.130859 0.208984
vt 0.130859 0.044922
vt 0.044922 0.005859
vt 0.044922 0.248047
vt 0.130859 0.044922
vt 0.554688 0.632812
vt 0.630859 0.632812
vt 0.867188 0.544922
vt 0.466797 0.544922
vt 0.554688 0.632812
vt 0.867188 0.544922
vt 0.896484 0.427734
vt 0.984375 0.515625
vt 0.583984 0.515625
vt 0.820312 0.427734
vt 0.896484 0.427734
vt 0.583984 0.515625
vt 0.207031 0.951172
vt 0.445312 0.970703
vt 0.445312 0.779297
vt 0.207031 0.798828
vt 0.207031 0.951172
vt 0.445312 0.779297
vt 0.044922 0.996094
vt 0.130859 0.957031
vt 0.130859 0.792969
vt 0.044922 0.753906
vt 0.044922 0.996094
vt 0.130859 0.792969
vt 0.554688 0.466797
vt 0.630859 0.466797
vt 0.867188 0.378906
vt 0.466797 0.378906
vt 0.554688 0.466797
vt 0.867188 0.378906
vt 0.896484 0.886719
vt 0.984375 0.974609
vt 0.583984 0.974609
vt 0.820312 0.886719
vt 0.896484 0.886719
vt 0.583984 0.974609
vt 0.554688 0.935547
vt 0.630859 0.935547
vt 0.867188 0.847656
vt 0.466797 0.847656
vt 0.554688 0.935547
vt 0.867188 0.847656
vt 0.896484 0.734375
vt 0.984375 0.822266
vt 0.583984 0.822266
vt 0.820312 0.734375
vt 0.896484 0.734375
vt 0.583984 0.822266
vt 0.005859 0.248047
vt 0.044922 0.248047
vt 0.044922 0.005859
vt 0.044922 0.005859
vt 0.005859 0.005859
vt 0.005859 0.248047
vt 0.005859 0.496094
vt 0.044922 0.496094
vt 0.044922 0.253906
vt 0.044922 0.253906
vt 0.005859 0.253906
vt 0.005859 0.496094
vt 0.005859 0.746094
vt 0.044922 0.746094
vt 0.044922 0.503906
vt 0.044922 0.503906
vt 0.005859 0.503906
vt 0.005859 0.746094
vt 0.005859 0.996094
vt 0.044922 0.996094
vt 0.044922 0.753906
vt 0.044922 0.753906
vt 0.005859 0.753906
vt 0.005859 0.996094
vt 0.794922 0.044922
vt 0.775391 0.025391
vt 0.775391 0.216797
vt 0.775391 0.216797
vt 0.794922 0.197266
vt 0.794922 0.044922
vt 0.947266 0.044922
vt 0.966797 0.025391
vt 0.775391 0.025391
vt 0.775391 0.025391
vt 0.794922 0.044922
vt 0.947266 0.044922
vt 0.947266 0.197266
vt 0.966797 0.216797
vt 0.966797 0.025391
vt 0.966797 0.025391
vt 0.947266 0.044922
vt 0.947266 0.197266
vt 0.794922 0.197266
vt 0.775391 0.216797
vt 0.966797 0.216797
vt 0.966797 0.216797
vt 0.947266 0.197266
vt 0.794922 0.197266
vt 0.958984 0.355469
vt 0.984375 0.318359
vt 0.830078 0.318359
vt 0.830078 0.318359
vt 0.855469 0.355469
vt 0.958984 0.355469
vt 0.958984 0.292969
vt 0.984375 0.255859
vt 0.830078 0.255859
vt 0.830078 0.255859
vt 0.855469 0.292969
vt 0.958984 0.292969
vt 0.607422 0.355469
vt 0.632812 0.318359
vt 0.478516 0.318359
vt 0.478516 0.318359
vt 0.503906 0.355469
vt 0.607422 0.355469
vt 0.785156 0.355469
vt 0.810547 0.318359
vt 0.656250 0.318359
vt 0.656250 0.318359
vt 0.681641 0.355469
vt 0.785156 0.355469
# 204 texture coordinates

vn 0.000000 -1.000000 0.000000
vn 0.000000 -1.000000 0.000000
vn 0.000000 -1.000000 0.000000
vn 0.000000 -1.000000 0.000000
vn 0.000000 -1.000000 0.000000
vn 0.000000 -1.000000 0.000000
vn 0.000000 1.000000 0.000000
vn 0.000000 1.000000 0.000000
vn 0.000000 1.000000 0.000000
vn 0.000000 1.000000 0.000000
vn 0.000000 1.000000 0.000000
vn 0.000000 1.000000 0.000000
vn -0.524229 0.176934 0.832993
vn -0.505024 -0.245503 0.827453
vn 0.505026 -0.245488 0.827457
vn 0.505026 -0.245488 0.827457
vn 0.523946 0.177005 0.833156
vn -0.524229 0.176934 0.832993
vn -0.841610 0.176910 -0.510289
vn -0.834569 -0.245318 -0.493269
vn -0.834569 -0.245318 0.493269
vn -0.834569 -0.245318 0.493269
vn -0.841610 0.176910 0.510289
vn -0.841610 0.176910 -0.510289
vn 0.526376 0.176392 -0.831753
vn 0.505006 -0.245621 -0.827429
vn -0.502778 -0.246994 -0.828377
vn -0.502778 -0.246994 -0.828377
vn -0.522547 0.177433 -0.833944
vn 0.526376 0.176392 -0.831753
vn 0.841610 0.176910 0.510289
vn 0.834569 -0.245318 0.493269
vn 0.834569 -0.245318 -0.493269
vn 0.834569 -0.245318 -0.493269
vn 0.841610 0.176910 -0.510289
vn 0.841610 0.176910 0.510289
vn -0.841610 0.176910 0.510289
vn -0.816955 0.558067 0.145415
vn -0.816955 0.558067 -0.145415
vn -0.841610 0.176910 -0.510289
vn -0.841610 0.176910 0.510289
vn -0.816955 0.558067 -0.145415
vn -0.742418 -0.478848 0.468530
vn -0.834569 -0.245318 0.493269
vn -0.834569 -0.245318 -0.493269
vn -0.742418 -0.478848 -0.468530
vn -0.742418 -0.478848 0.468530
vn -0.834569 -0.245318 -0.493269
vn -0.522547 0.177433 -0.833944
vn -0.144585 0.564513 -0.812662
vn 0.144590 0.564404 -0.812737
vn 0.526376 0.176392 -0.831753
vn -0.522547 0.177433 -0.833944
vn 0.144590 0.564404 -0.812737
vn -0.470043 -0.487770 -0.735623
vn -0.502778 -0.246994 -0.828377
vn 0.505006 -0.245621 -0.827429
vn 0.469980 -0.487102 -0.736104
vn -0.470043 -0.487770 -0.735623
vn 0.505006 -0.245621 -0.827429
vn -0.834569 -0.245318 -0.493269
vn -0.841610 0.176910 -0.510289
vn -0.816955 0.558067 -0.145415
vn -0.742418 -0.478848 -0.468530
vn -0.834569 -0.245318 -0.493269
vn -0.816955 0.558067 -0.145415
vn -0.522547 0.177433 -0.833944
vn -0.502778 -0.246994 -0.828377
vn -0.470043 -0.487770 -0.735623
vn -0.144585 0.564513 -0.812662
vn -0.522547 0.177433 -0.833944
vn -0.470043 -0.487770 -0.735623
vn 0.841610 0.176910 -0.510289
vn 0.816955 0.558067 -0.145415
vn 0.816955 0.558067 0.145415
vn 0.841610 0.176910 0.510289
vn 0.841610 0.176910 -0.510289
vn 0.816955 0.558067 0.145415
vn 0.742418 -0.478848 -0.468530
vn 0.834569 -0.245318 -0.493269
vn 0.834569 -0.245318 0.493269
vn 0.742418 -0.478848 0.468530
vn 0.742418 -0.478848 -0.468530
vn 0.834569 -0.245318 0.493269
vn 0.505006 -0.245621 -0.827429
vn 0.526376 0.176392 -0.831753
vn 0.144590 0.564404 -0.812737
vn 0.469980 -0.487102 -0.736104
vn 0.505006 -0.245621 -0.827429
vn 0.144590 0.564404 -0.812737
vn 0.834569 -0.245318 -0.493269
vn 0.742418 -0.478848 -0.468530
vn 0.816955 0.558067 -0.145415
vn 0.841610 0.176910 -0.510289
vn 0.834569 -0.245318 -0.493269
vn 0.816955 0.558067 -0.145415
vn 0.523946 0.177005 0.833156
vn 0.144589 0.564387 0.812749
vn -0.144589 0.564389 0.812748
vn -0.524229 0.176934 0.832993
vn 0.523946 0.177005 0.833156
vn -0.144589 0.564389 0.812748
vn 0.469980 -0.487102 0.736105
vn 0.505026 -0.245488 0.827457
vn -0.505024 -0.245503 0.827453
vn -0.469980 -0.487102 0.736105
vn 0.469980 -0.487102 0.736105
vn -0.505024 -0.245503 0.827453
vn 0.834569 -0.245318 0.493269
vn 0.841610 0.176910 0.510289
vn 0.816955 0.558067 0.145415
vn 0.742418 -0.478848 0.468530
vn 0.834569 -0.245318 0.493269
vn 0.816955 0.558067 0.145415
vn 0.505026 -0.245488 0.827457
vn 0.469980 -0.487102 0.736105
vn 0.144589 0.564387 0.812749
vn 0.523946 0.177005 0.833156
vn 0.505026 -0.245488 0.827457
vn 0.144589 0.564387 0.812749
vn -0.505024 -0.245503 0.827453
vn -0.524229 0.176934 0.832993
vn -0.144589 0.564389 0.812748
vn -0.469980 -0.487102 0.736105
vn -0.505024 -0.245503 0.827453
vn -0.144589 0.564389 0.812748
vn -0.834569 -0.245318 0.493269
vn -0.742418 -0.478848 0.468530
vn -0.816955 0.558067 0.145415
vn -0.841610 0.176910 0.510289
vn -0.834569 -0.245318 0.493269
vn -0.816955 0.558067 0.145415
vn 0.707107 0.000000 -0.707107
vn 0.707107 0.000000 -0.707107
vn 0.707107 0.000000 0.707107
vn 0.707107 0.000000 0.707107
vn 0.707107 0.000000 0.707107
vn 0.707107 0.000000 -0.707107
vn -0.707107 0.000000 -0.707107
vn -0.707107 0.000000 -0.707107
vn 0.707107 0.000000 -0.707107
vn 0.707107 0.000000 -0.707107
vn 0.707107 0.000000 -0.707107
vn -0.707107 0.000000 -0.707107
vn -0.707107 0.000000 0.707107
vn -0.707107 0.000000 0.707107
vn -0.707107 0.000000 -0.707107
vn -0.707107 0.000000 -0.707107
vn -0.707107 0.000000 -0.707107
vn -0.707107 0.000000 0.707107
vn 0.707107 0.000000 0.707107
vn 0.707107 0.000000 0.707107
vn -0.707107 0.000000 0.707107
vn -0.707107 0.000000 0.707107
vn -0.707107 0.000000 0.707107
vn 0.707107 0.000000 0.707107
vn 0.000000 0.978767 0.204978
vn -0.144589 0.564389 0.812748
vn 0.144589 0.564387 0.812749
vn 0.144589 0.564387 0.812749
vn 0.000000 0.978767 0.204978
vn 0.000000 0.978767 0.204978
vn -0.210700 0.977551 0.000000
vn -0.816955 0.558067 -0.145415
vn -0.816955 0.558067 0.145415
vn -0.816955 0.558067 0.145415
vn -0.210700 0.977551 0.000000
vn -0.210700 0.977551 0.000000
vn 0.000000 0.978767 -0.204978
vn 0.144590 0.564404 -0.812737
vn -0.144585 0.564513 -0.812662
vn -0.144585 0.564513 -0.812662
vn 0.000000 0.978767 -0.204978
vn 0.000000 0.978767 -0.204978
vn 0.210700 0.977551 0.000000
vn 0.816955 0.558067 0.145415
vn 0.816955 0.558067 -0.145415
vn 0.816955 0.558067 -0.145415
vn 0.210700 0.977551 0.000000
vn 0.210700 0.977551 0.000000
vn 0.000000 0.693341 -0.720610
vn 0.000000 0.978767 0.204978
vn 0.000000 0.978767 0.204978
vn 0.000000 0.978767 0.204978
vn 0.000000 0.693341 -0.720610
vn 0.000000 0.693341 -0.720610
vn 0.708258 0.705954 0.000000
vn -0.210700 0.977551 0.000000
vn -0.210700 0.977551 0.000000
vn -0.210700 0.977551 0.000000
vn 0.708258 0.705954 0.000000
vn 0.708258 0.705954 0.000000
vn 0.000000 0.693341 0.720610
vn 0.000000 0.978767 -0.204978
vn 0.000000 0.978767 -0.204978
vn 0.000000 0.978767 -0.204978
vn 0.000000 0.693341 0.720610
vn 0.000000 0.693341 0.720610
vn -0.708258 0.705954 0.000000
vn 0.210700 0.977551 0.000000
vn 0.210700 0.977551 0.000000
vn 0.210700 0.977551 0.000000
vn -0.708258 0.705954 0.000000
vn -0.708258 0.705954 0.000000
# 204 normals

g object0
usemtl Material_0
f 1/1/1  2/2/2  3/3/3
f 10/10/10  11/11/11  12/12/12
f 13/13/13  14/14/14  15/15/15
f 16/16/16  17/17/17  18/18/18
f 19/19/19  20/20/20  21/21/21
f 22/22/22  23/23/23  24/24/24
f 25/25/25  26/26/26  27/27/27
f 28/28/28  29/29/29  30/30/30
f 31/31/31  32/32/32  33/33/33
f 34/34/34  35/35/35  36/36/36
f 37/37/37  38/38/38  39/39/39
f 40/40/40  41/41/41  42/42/42
f 43/43/43  44/44/44  45/45/45
f 46/46/46  47/47/47  48/48/48
f 49/49/49  50/50/50  51/51/51
f 52/52/52  53/53/53  54/54/54
f 55/55/55  56/56/56  57/57/57
f 58/58/58  59/59/59  60/60/60
f 61/61/61  62/62/62  63/63/63
f 64/64/64  65/65/65  66/66/66
f 67/67/67  68/68/68  69/69/69
f 70/70/70  71/71/71  72/72/72
f 73/73/73  74/74/74  75/75/75
f 76/76/76  77/77/77  78/78/78
f 79/79/79  80/80/80  81/81/81
f 82/82/82  83/83/83  84/84/84
f 85/85/85  86/86/86  87/87/87
f 88/88/88  89/89/89  90/90/90
f 91/91/91  92/92/92  93/93/93
f 94/94/94  95/95/95  96/96/96
f 97/97/97  98/98/98  99/99/99
f 100/100/100  101/101/101  102/102/102
f 103/103/103  104/104/104  105/105/105
f 106/106/106  107/107/107  108/108/108
f 109/109/109  110/110/110  111/111/111
f 112/112/112  113/113/113  114/114/114
f 115/115/115  116/116/116  117/117/117
f 118/118/118  119/119/119  120/120/120
f 121/121/121  122/122/122  123/123/123
f 124/124/124  125/125/125  126/126/126
f 127/127/127  128/128/128  129/129/129
f 130/130/130  131/131/131  132/132/132
f 133/133/133  134/134/134  135/135/135
f 136/136/136  137/137/137  138/138/138
f 139/139/139  140/140/140  141/141/141
f 142/142/142  143/143/143  144/144/144
f 145/145/145  146/146/146  147/147/147
f 148/148/148  149/149/149  150/150/150
f 151/151/151  152/152/152  153/153/153
f 154/154/154  155/155/155  156/156/156
f 157/157/157  158/158/158  159/159/159
f 160/160/160  161/161/161  162/162/162
f 163/163/163  164/164/164  165/165/165
f 166/166/166  167/167/167  168/168/168
f 169/169/169  170/170/170  171/171/171
f 172/172/172  173/173/173  174/174/174
f 175/175/175  176/176/176  177/177/177
f 178/178/178  179/179/179  180/180/180
f 181/181/181  182/182/182  183/183/183
f 184/184/184  185/185/185  186/186/186
f 187/187/187  188/188/188  189/189/189
f 190/190/190  191/191/191  192/192/192
f 193/193/193  194/194/194  195/195/195
f 196/196/196  197/197/197  198/198/198
f 199/199/199  200/200/200  201/201/201
f 202/202/202  203/203/203  204/204/204
f 4/4/4  5/5/5  6/6/6
f 7/7/7  8/8/8  9/9/9
# 68 polygons in group

# 68 polygons total
