# Wavefront OBJ exported by IMDeditor

mtllib uss_logo_base.mtl

v    -1.147038 -0.273336 -0.007029
v    -1.147038 0.168365 -0.007029
v    -0.810484 0.168365 -0.818808
v    -0.810484 0.168365 -0.818808
v    -0.810484 -0.273336 -0.818808
v    -1.147038 -0.273336 -0.007029
v    -0.810484 -0.273336 -0.818808
v    -0.810484 0.168365 -0.818808
v     0.001295 0.168365 -1.155362
v     0.001295 0.168365 -1.155362
v     0.001295 -0.273336 -1.155362
v    -0.810484 -0.273336 -0.818808
v     0.001295 -0.273336 -1.155362
v     0.001295 0.168365 -1.155362
v     0.813074 0.168365 -0.818808
v     0.813074 0.168365 -0.818808
v     0.813074 -0.273336 -0.818808
v     0.001295 -0.273336 -1.155362
v     0.813074 -0.273336 -0.818808
v     0.813074 0.168365 -0.818808
v     1.149627 0.168365 -0.007029
v     1.149627 0.168365 -0.007029
v     1.149627 -0.273336 -0.007029
v     0.813074 -0.273336 -0.818808
v     1.149627 -0.273336 -0.007029
v     1.149627 0.168365 -0.007029
v     0.813074 0.168365 0.804749
v     0.813074 0.168365 0.804749
v     0.813074 -0.273336 0.804749
v     1.149627 -0.273336 -0.007029
v     0.813074 -0.273336 0.804749
v     0.813074 0.168365 0.804749
v     0.001295 0.168365 1.141303
v     0.001295 0.168365 1.141303
v     0.001295 -0.273336 1.141303
v     0.813074 -0.273336 0.804749
v     0.001295 -0.273336 1.141303
v     0.001295 0.168365 1.141303
v    -0.810484 0.168365 0.804749
v    -0.810484 0.168365 0.804749
v    -0.810484 -0.273336 0.804749
v     0.001295 -0.273336 1.141303
v    -0.810484 -0.273336 0.804749
v    -0.810484 0.168365 0.804749
v    -1.147038 0.168365 -0.007029
v    -1.147038 0.168365 -0.007029
v    -1.147038 -0.273336 -0.007029
v    -0.810484 -0.273336 0.804749
v    -0.715839 -0.450016 -0.724163
v     0.001295 -0.450016 -1.021478
v     0.718428 -0.450016 -0.724163
v    -0.715839 -0.450016 -0.724163
v     0.718428 -0.450016 -0.724163
v     1.015743 -0.450016 -0.007029
v    -0.715839 -0.450016 -0.724163
v     1.015743 -0.450016 -0.007029
v     0.718428 -0.450016 0.710104
v    -1.013154 -0.450016 -0.007029
v    -0.715839 -0.450016 -0.724163
v     0.718428 -0.450016 0.710104
v    -0.715839 -0.450016 0.710104
v    -1.013154 -0.450016 -0.007029
v     0.718428 -0.450016 0.710104
v     0.001295 -0.450016 1.007419
v    -0.715839 -0.450016 0.710104
v     0.718428 -0.450016 0.710104
v    -0.810484 0.168365 0.804749
v     0.001295 0.168365 1.141303
v     0.813074 0.168365 0.804749
v    -1.147038 0.168365 -0.007029
v    -0.810484 0.168365 0.804749
v     0.813074 0.168365 0.804749
v    -0.810484 0.168365 -0.818808
v    -1.147038 0.168365 -0.007029
v     0.813074 0.168365 0.804749
v     0.813074 0.168365 -0.818808
v     0.001295 0.168365 -1.155362
v    -0.810484 0.168365 -0.818808
v     1.149627 0.168365 -0.007029
v     0.813074 0.168365 -0.818808
v    -0.810484 0.168365 -0.818808
v     1.149627 0.168365 -0.007029
v    -0.810484 0.168365 -0.818808
v     0.813074 0.168365 0.804749
v    -1.013154 -0.450016 -0.007029
v    -1.147038 -0.273336 -0.007029
v    -0.810484 -0.273336 -0.818808
v    -0.810484 -0.273336 -0.818808
v    -0.715839 -0.450016 -0.724163
v    -1.013154 -0.450016 -0.007029
v    -0.715839 -0.450016 0.710104
v    -0.810484 -0.273336 0.804749
v    -1.147038 -0.273336 -0.007029
v    -1.147038 -0.273336 -0.007029
v    -1.013154 -0.450016 -0.007029
v    -0.715839 -0.450016 0.710104
v     0.001295 -0.450016 1.007419
v     0.001295 -0.273336 1.141303
v    -0.810484 -0.273336 0.804749
v    -0.810484 -0.273336 0.804749
v    -0.715839 -0.450016 0.710104
v     0.001295 -0.450016 1.007419
v     0.718428 -0.450016 0.710104
v     0.813074 -0.273336 0.804749
v     0.001295 -0.273336 1.141303
v     0.001295 -0.273336 1.141303
v     0.001295 -0.450016 1.007419
v     0.718428 -0.450016 0.710104
v     1.015743 -0.450016 -0.007029
v     1.149627 -0.273336 -0.007029
v     0.813074 -0.273336 0.804749
v     0.813074 -0.273336 0.804749
v     0.718428 -0.450016 0.710104
v     1.015743 -0.450016 -0.007029
v     0.718428 -0.450016 -0.724163
v     0.813074 -0.273336 -0.818808
v     1.149627 -0.273336 -0.007029
v     1.149627 -0.273336 -0.007029
v     1.015743 -0.450016 -0.007029
v     0.718428 -0.450016 -0.724163
v     0.001295 -0.450016 -1.021478
v     0.001295 -0.273336 -1.155362
v     0.813074 -0.273336 -0.818808
v     0.813074 -0.273336 -0.818808
v     0.718428 -0.450016 -0.724163
v     0.001295 -0.450016 -1.021478
v    -0.715839 -0.450016 -0.724163
v    -0.810484 -0.273336 -0.818808
v     0.001295 -0.273336 -1.155362
v     0.001295 -0.273336 -1.155362
v     0.001295 -0.450016 -1.021478
v    -0.715839 -0.450016 -0.724163
# 132 vertices

vt 0.009804 0.000616
vt 0.009804 0.062213
vt 0.132353 0.062213
vt 0.132353 0.062213
vt 0.132353 0.000616
vt 0.009804 0.000616
vt 0.132353 0.000616
vt 0.132353 0.062213
vt 0.254902 0.062213
vt 0.254902 0.062213
vt 0.254902 0.000616
vt 0.132353 0.000616
vt 0.254902 0.000616
vt 0.254902 0.062213
vt 0.377451 0.062213
vt 0.377451 0.062213
vt 0.377451 0.000616
vt 0.254902 0.000616
vt 0.377451 0.000616
vt 0.377451 0.062213
vt 0.500000 0.062213
vt 0.500000 0.062213
vt 0.500000 0.000616
vt 0.377451 0.000616
vt 0.500000 0.000616
vt 0.500000 0.062213
vt 0.622549 0.062213
vt 0.622549 0.062213
vt 0.622549 0.000616
vt 0.500000 0.000616
vt 0.622549 0.000616
vt 0.622549 0.062213
vt 0.745098 0.062213
vt 0.745098 0.062213
vt 0.745098 0.000616
vt 0.622549 0.000616
vt 0.745098 0.000616
vt 0.745098 0.062213
vt 0.867647 0.062213
vt 0.867647 0.062213
vt 0.867647 0.000616
vt 0.745098 0.000616
vt 0.867647 0.000616
vt 0.867647 0.062213
vt 0.990196 0.062213
vt 0.990196 0.062213
vt 0.990196 0.000616
vt 0.867647 0.000616
vt 0.715535 0.139098
vt 0.715687 0.107195
vt 0.693221 0.084543
vt 0.715535 0.139098
vt 0.693221 0.084543
vt 0.661318 0.084390
vt 0.715535 0.139098
vt 0.661318 0.084390
vt 0.638666 0.106856
vt 0.692882 0.161564
vt 0.715535 0.139098
vt 0.638666 0.106856
vt 0.660979 0.161411
vt 0.692882 0.161564
vt 0.638666 0.106856
vt 0.638514 0.138759
vt 0.660979 0.161411
vt 0.638666 0.106856
vt 0.217022 0.652745
vt 0.182908 0.638602
vt 0.148794 0.652745
vt 0.231165 0.686859
vt 0.217022 0.652745
vt 0.148794 0.652745
vt 0.217022 0.720973
vt 0.231165 0.686859
vt 0.148794 0.652745
vt 0.148794 0.720973
vt 0.182908 0.735116
vt 0.217022 0.720973
vt 0.134650 0.686859
vt 0.148794 0.720973
vt 0.217022 0.720973
vt 0.134650 0.686859
vt 0.217022 0.720973
vt 0.148794 0.652745
vt 0.692882 0.161564
vt 0.694965 0.166656
vt 0.720607 0.141225
vt 0.720607 0.141225
vt 0.715535 0.139098
vt 0.692882 0.161564
vt 0.660979 0.161411
vt 0.658852 0.166484
vt 0.694965 0.166656
vt 0.694965 0.166656
vt 0.692882 0.161564
vt 0.660979 0.161411
vt 0.638514 0.138759
vt 0.633421 0.140842
vt 0.658852 0.166484
vt 0.658852 0.166484
vt 0.660979 0.161411
vt 0.638514 0.138759
vt 0.638666 0.106856
vt 0.633593 0.104728
vt 0.633421 0.140842
vt 0.633421 0.140842
vt 0.638514 0.138759
vt 0.638666 0.106856
vt 0.661318 0.084390
vt 0.659235 0.079298
vt 0.633593 0.104728
vt 0.633593 0.104728
vt 0.638666 0.106856
vt 0.661318 0.084390
vt 0.693221 0.084543
vt 0.695349 0.079470
vt 0.659235 0.079298
vt 0.659235 0.079298
vt 0.661318 0.084390
vt 0.693221 0.084543
vt 0.715687 0.107195
vt 0.720779 0.105112
vt 0.695349 0.079470
vt 0.695349 0.079470
vt 0.693221 0.084543
vt 0.715687 0.107195
vt 0.715535 0.139098
vt 0.720607 0.141225
vt 0.720779 0.105112
vt 0.720779 0.105112
vt 0.715687 0.107195
vt 0.715535 0.139098
# 132 texture coordinates

vn -0.923757 0.000000 -0.382978
vn -0.923757 0.000000 -0.382978
vn -0.923757 0.000000 -0.382978
vn -0.923757 0.000000 -0.382978
vn -0.923757 0.000000 -0.382978
vn -0.923757 0.000000 -0.382978
vn -0.382978 0.000000 -0.923757
vn -0.382978 0.000000 -0.923757
vn -0.382978 0.000000 -0.923757
vn -0.382978 0.000000 -0.923757
vn -0.382978 0.000000 -0.923757
vn -0.382978 0.000000 -0.923757
vn 0.382978 0.000000 -0.923757
vn 0.382978 0.000000 -0.923757
vn 0.382978 0.000000 -0.923757
vn 0.382978 0.000000 -0.923757
vn 0.382978 0.000000 -0.923757
vn 0.382978 0.000000 -0.923757
vn 0.923757 0.000000 -0.382978
vn 0.923757 0.000000 -0.382978
vn 0.923757 0.000000 -0.382978
vn 0.923757 0.000000 -0.382978
vn 0.923757 0.000000 -0.382978
vn 0.923757 0.000000 -0.382978
vn 0.923757 0.000000 0.382978
vn 0.923757 0.000000 0.382978
vn 0.923757 0.000000 0.382978
vn 0.923757 0.000000 0.382978
vn 0.923757 0.000000 0.382978
vn 0.923757 0.000000 0.382978
vn 0.382978 0.000000 0.923757
vn 0.382978 0.000000 0.923757
vn 0.382978 0.000000 0.923757
vn 0.382978 0.000000 0.923757
vn 0.382978 0.000000 0.923757
vn 0.382978 0.000000 0.923757
vn -0.382978 0.000000 0.923757
vn -0.382978 0.000000 0.923757
vn -0.382978 0.000000 0.923757
vn -0.382978 0.000000 0.923757
vn -0.382978 0.000000 0.923757
vn -0.382978 0.000000 0.923757
vn -0.923757 0.000000 0.382978
vn -0.923757 0.000000 0.382978
vn -0.923757 0.000000 0.382978
vn -0.923757 0.000000 0.382978
vn -0.923757 0.000000 0.382978
vn -0.923757 0.000000 0.382978
vn 0.000000 -1.000000 0.000000
vn 0.000000 -1.000000 0.000000
vn 0.000000 -1.000000 0.000000
vn 0.000000 -1.000000 0.000000
vn 0.000000 -1.000000 0.000000
vn 0.000000 -1.000000 0.000000
vn 0.000000 -1.000000 0.000000
vn 0.000000 -1.000000 0.000000
vn 0.000000 -1.000000 0.000000
vn 0.000000 -1.000000 0.000000
vn 0.000000 -1.000000 0.000000
vn 0.000000 -1.000000 0.000000
vn 0.000000 -1.000000 0.000000
vn 0.000000 -1.000000 0.000000
vn 0.000000 -1.000000 0.000000
vn 0.000000 -1.000000 0.000000
vn 0.000000 -1.000000 0.000000
vn 0.000000 -1.000000 0.000000
vn 0.000000 1.000000 0.000000
vn 0.000000 1.000000 0.000000
vn 0.000000 1.000000 0.000000
vn 0.000000 1.000000 0.000000
vn 0.000000 1.000000 0.000000
vn 0.000000 1.000000 0.000000
vn 0.000000 1.000000 0.000000
vn 0.000000 1.000000 0.000000
vn 0.000000 1.000000 0.000000
vn 0.000000 1.000000 0.000000
vn 0.000000 1.000000 0.000000
vn 0.000000 1.000000 0.000000
vn 0.000000 1.000000 0.000000
vn 0.000000 1.000000 0.000000
vn 0.000000 1.000000 0.000000
vn 0.000000 1.000000 0.000000
vn 0.000000 1.000000 0.000000
vn 0.000000 1.000000 0.000000
vn -0.756772 -0.573462 -0.313748
vn -0.756772 -0.573462 -0.313748
vn -0.756772 -0.573462 -0.313748
vn -0.756772 -0.573462 -0.313748
vn -0.756772 -0.573462 -0.313748
vn -0.756772 -0.573462 -0.313748
vn -0.756772 -0.573462 0.313748
vn -0.756772 -0.573462 0.313748
vn -0.756772 -0.573462 0.313748
vn -0.756772 -0.573462 0.313748
vn -0.756772 -0.573462 0.313748
vn -0.756772 -0.573462 0.313748
vn -0.313748 -0.573462 0.756772
vn -0.313748 -0.573462 0.756772
vn -0.313748 -0.573462 0.756772
vn -0.313748 -0.573462 0.756772
vn -0.313748 -0.573462 0.756772
vn -0.313748 -0.573462 0.756772
vn 0.313748 -0.573462 0.756772
vn 0.313748 -0.573462 0.756772
vn 0.313748 -0.573462 0.756772
vn 0.313748 -0.573462 0.756772
vn 0.313748 -0.573462 0.756772
vn 0.313748 -0.573462 0.756772
vn 0.756772 -0.573462 0.313748
vn 0.756772 -0.573462 0.313748
vn 0.756772 -0.573462 0.313748
vn 0.756772 -0.573462 0.313748
vn 0.756772 -0.573462 0.313748
vn 0.756772 -0.573462 0.313748
vn 0.756772 -0.573462 -0.313748
vn 0.756772 -0.573462 -0.313748
vn 0.756772 -0.573462 -0.313748
vn 0.756772 -0.573462 -0.313748
vn 0.756772 -0.573462 -0.313748
vn 0.756772 -0.573462 -0.313748
vn 0.313748 -0.573462 -0.756772
vn 0.313748 -0.573462 -0.756772
vn 0.313748 -0.573462 -0.756772
vn 0.313748 -0.573462 -0.756772
vn 0.313748 -0.573462 -0.756772
vn 0.313748 -0.573462 -0.756772
vn -0.313748 -0.573462 -0.756772
vn -0.313748 -0.573462 -0.756772
vn -0.313748 -0.573462 -0.756772
vn -0.313748 -0.573462 -0.756772
vn -0.313748 -0.573462 -0.756772
vn -0.313748 -0.573462 -0.756772
# 132 normals

g object0
usemtl Material_0
f 1/1/1  2/2/2  3/3/3
f 7/7/7  8/8/8  9/9/9
f 10/10/10  11/11/11  12/12/12
f 13/13/13  14/14/14  15/15/15
f 16/16/16  17/17/17  18/18/18
f 19/19/19  20/20/20  21/21/21
f 22/22/22  23/23/23  24/24/24
f 25/25/25  26/26/26  27/27/27
f 28/28/28  29/29/29  30/30/30
f 31/31/31  32/32/32  33/33/33
f 34/34/34  35/35/35  36/36/36
f 37/37/37  38/38/38  39/39/39
f 40/40/40  41/41/41  42/42/42
f 43/43/43  44/44/44  45/45/45
f 46/46/46  47/47/47  48/48/48
f 49/49/49  50/50/50  51/51/51
f 52/52/52  53/53/53  54/54/54
f 55/55/55  56/56/56  57/57/57
f 58/58/58  59/59/59  60/60/60
f 61/61/61  62/62/62  63/63/63
f 64/64/64  65/65/65  66/66/66
f 67/67/67  68/68/68  69/69/69
f 70/70/70  71/71/71  72/72/72
f 73/73/73  74/74/74  75/75/75
f 76/76/76  77/77/77  78/78/78
f 79/79/79  80/80/80  81/81/81
f 82/82/82  83/83/83  84/84/84
f 85/85/85  86/86/86  87/87/87
f 88/88/88  89/89/89  90/90/90
f 91/91/91  92/92/92  93/93/93
f 94/94/94  95/95/95  96/96/96
f 97/97/97  98/98/98  99/99/99
f 100/100/100  101/101/101  102/102/102
f 103/103/103  104/104/104  105/105/105
f 106/106/106  107/107/107  108/108/108
f 109/109/109  110/110/110  111/111/111
f 112/112/112  113/113/113  114/114/114
f 115/115/115  116/116/116  117/117/117
f 118/118/118  119/119/119  120/120/120
f 121/121/121  122/122/122  123/123/123
f 124/124/124  125/125/125  126/126/126
f 127/127/127  128/128/128  129/129/129
f 130/130/130  131/131/131  132/132/132
f 4/4/4  5/5/5  6/6/6
# 44 polygons in group

# 44 polygons total
